<mxfile host="app.diagrams.net" modified="2021-10-07T17:59:06.358Z" agent="5.0 (Windows NT 10.0; Win64; x64) AppleWebKit/537.36 (KHTML, like Gecko) Chrome/92.0.4515.131 Safari/537.36 OPR/78.0.4093.186" etag="65qAyw-ECLE90BgQ42R_" version="15.4.3" type="github">
  <diagram id="L-4JTbhqK5Z3GWyyr0-M" name="Page-1">
    <mxGraphModel dx="2617" dy="1883" grid="1" gridSize="10" guides="1" tooltips="1" connect="1" arrows="1" fold="1" page="1" pageScale="1" pageWidth="850" pageHeight="1100" math="0" shadow="0">
      <root>
        <mxCell id="0" />
        <mxCell id="1" parent="0" />
        <mxCell id="VXNcRWfN4zNZ4ETa913i-1" value="Indexer" style="swimlane;fontStyle=1;align=center;verticalAlign=top;childLayout=stackLayout;horizontal=1;startSize=26;horizontalStack=0;resizeParent=1;resizeParentMax=0;resizeLast=0;collapsible=1;marginBottom=0;hachureGap=4;pointerEvents=0;" parent="1" vertex="1">
          <mxGeometry x="860" y="320" width="320" height="170" as="geometry">
            <mxRectangle x="800" y="400" width="70" height="26" as="alternateBounds" />
          </mxGeometry>
        </mxCell>
        <mxCell id="3ZD-ds__CDtL9bY-RWLM-7" value="+ dataServerConnection: ServerManager" style="text;strokeColor=none;fillColor=none;align=left;verticalAlign=top;spacingLeft=4;spacingRight=4;overflow=hidden;rotatable=0;points=[[0,0.5],[1,0.5]];portConstraint=eastwest;" parent="VXNcRWfN4zNZ4ETa913i-1" vertex="1">
          <mxGeometry y="26" width="320" height="26" as="geometry" />
        </mxCell>
        <mxCell id="3ZD-ds__CDtL9bY-RWLM-8" value="+ urlResolver: URLResolver" style="text;strokeColor=none;fillColor=none;align=left;verticalAlign=top;spacingLeft=4;spacingRight=4;overflow=hidden;rotatable=0;points=[[0,0.5],[1,0.5]];portConstraint=eastwest;" parent="VXNcRWfN4zNZ4ETa913i-1" vertex="1">
          <mxGeometry y="52" width="320" height="26" as="geometry" />
        </mxCell>
        <mxCell id="ZLtzulAEG12qj5SxT5-5-52" value="Use" style="endArrow=open;endSize=12;dashed=1;html=1;rounded=0;edgeStyle=orthogonalEdgeStyle;" edge="1" parent="VXNcRWfN4zNZ4ETa913i-1" target="vnPngC09RosFCxPqreI9-8">
          <mxGeometry width="160" relative="1" as="geometry">
            <mxPoint y="70" as="sourcePoint" />
            <mxPoint x="160" y="70" as="targetPoint" />
            <Array as="points">
              <mxPoint x="-80" y="70" />
              <mxPoint x="-80" y="-60" />
              <mxPoint x="-102" y="-60" />
            </Array>
          </mxGeometry>
        </mxCell>
        <mxCell id="VXNcRWfN4zNZ4ETa913i-3" value="" style="line;strokeWidth=1;fillColor=none;align=left;verticalAlign=middle;spacingTop=-1;spacingLeft=3;spacingRight=3;rotatable=0;labelPosition=right;points=[];portConstraint=eastwest;" parent="VXNcRWfN4zNZ4ETa913i-1" vertex="1">
          <mxGeometry y="78" width="320" height="10" as="geometry" />
        </mxCell>
        <mxCell id="VXNcRWfN4zNZ4ETa913i-4" value="+ makeIndex(doc: DocumentModel): IndexModel&#xa;&#xa;+ scheduleURLResolving(doc: IndexModel): void&#xa;" style="text;strokeColor=none;fillColor=none;align=left;verticalAlign=top;spacingLeft=4;spacingRight=4;overflow=hidden;rotatable=0;points=[[0,0.5],[1,0.5]];portConstraint=eastwest;" parent="VXNcRWfN4zNZ4ETa913i-1" vertex="1">
          <mxGeometry y="88" width="320" height="54" as="geometry" />
        </mxCell>
        <mxCell id="Vg_vFvyBdRH64RmHOJFF-16" value="+ updateIndex(doc: DocumentIndexModel): IndexModel" style="text;strokeColor=none;fillColor=none;align=left;verticalAlign=top;spacingLeft=4;spacingRight=4;overflow=hidden;rotatable=0;points=[[0,0.5],[1,0.5]];portConstraint=eastwest;" parent="VXNcRWfN4zNZ4ETa913i-1" vertex="1">
          <mxGeometry y="142" width="320" height="28" as="geometry" />
        </mxCell>
        <mxCell id="VXNcRWfN4zNZ4ETa913i-5" value="DocumentIndexModel" style="swimlane;fontStyle=1;align=center;verticalAlign=top;childLayout=stackLayout;horizontal=1;startSize=26;horizontalStack=0;resizeParent=1;resizeParentMax=0;resizeLast=0;collapsible=1;marginBottom=0;hachureGap=4;pointerEvents=0;" parent="1" vertex="1">
          <mxGeometry x="425" y="1008" width="160" height="140" as="geometry" />
        </mxCell>
        <mxCell id="VXNcRWfN4zNZ4ETa913i-6" value="+ docID: Int&#xa;+ plainDocId: int&#xa;+ docStatus: String&#xa;+ hash: String&#xa;+ docData: DocumentData&#xa;+ visits: Int&#xa;+ seoRank: Int" style="text;strokeColor=none;fillColor=none;align=left;verticalAlign=top;spacingLeft=4;spacingRight=4;overflow=hidden;rotatable=0;points=[[0,0.5],[1,0.5]];portConstraint=eastwest;" parent="VXNcRWfN4zNZ4ETa913i-5" vertex="1">
          <mxGeometry y="26" width="160" height="104" as="geometry" />
        </mxCell>
        <mxCell id="B37MmopoNUqpj75_Dg1A-53" value="" style="line;strokeWidth=1;fillColor=none;align=left;verticalAlign=middle;spacingTop=-1;spacingLeft=3;spacingRight=3;rotatable=0;labelPosition=right;points=[];portConstraint=eastwest;" parent="VXNcRWfN4zNZ4ETa913i-5" vertex="1">
          <mxGeometry y="130" width="160" height="10" as="geometry" />
        </mxCell>
        <mxCell id="VXNcRWfN4zNZ4ETa913i-38" value="Hit" style="swimlane;fontStyle=3;align=center;verticalAlign=top;childLayout=stackLayout;horizontal=1;startSize=26;horizontalStack=0;resizeParent=1;resizeParentMax=0;resizeLast=0;collapsible=1;marginBottom=0;hachureGap=4;pointerEvents=0;" parent="1" vertex="1">
          <mxGeometry x="680" y="1460" width="160" height="58" as="geometry">
            <mxRectangle x="680" y="1460" width="50" height="26" as="alternateBounds" />
          </mxGeometry>
        </mxCell>
        <mxCell id="VXNcRWfN4zNZ4ETa913i-39" value="+ positions: Int[0..*]" style="text;strokeColor=none;fillColor=none;align=left;verticalAlign=top;spacingLeft=4;spacingRight=4;overflow=hidden;rotatable=0;points=[[0,0.5],[1,0.5]];portConstraint=eastwest;" parent="VXNcRWfN4zNZ4ETa913i-38" vertex="1">
          <mxGeometry y="26" width="160" height="24" as="geometry" />
        </mxCell>
        <mxCell id="VXNcRWfN4zNZ4ETa913i-40" value="" style="line;strokeWidth=1;fillColor=none;align=left;verticalAlign=middle;spacingTop=-1;spacingLeft=3;spacingRight=3;rotatable=0;labelPosition=right;points=[];portConstraint=eastwest;" parent="VXNcRWfN4zNZ4ETa913i-38" vertex="1">
          <mxGeometry y="50" width="160" height="8" as="geometry" />
        </mxCell>
        <mxCell id="VXNcRWfN4zNZ4ETa913i-43" value="PlainHit" style="swimlane;fontStyle=1;align=center;verticalAlign=top;childLayout=stackLayout;horizontal=1;startSize=26;horizontalStack=0;resizeParent=1;resizeParentMax=0;resizeLast=0;collapsible=1;marginBottom=0;hachureGap=4;pointerEvents=0;" parent="1" vertex="1">
          <mxGeometry x="550" y="1640" width="160" height="34" as="geometry">
            <mxRectangle x="550" y="1640" width="80" height="26" as="alternateBounds" />
          </mxGeometry>
        </mxCell>
        <mxCell id="VXNcRWfN4zNZ4ETa913i-48" value="FancyHit" style="swimlane;fontStyle=1;align=center;verticalAlign=top;childLayout=stackLayout;horizontal=1;startSize=26;horizontalStack=0;resizeParent=1;resizeParentMax=0;resizeLast=0;collapsible=1;marginBottom=0;hachureGap=4;pointerEvents=0;" parent="1" vertex="1">
          <mxGeometry x="800" y="1640" width="160" height="34" as="geometry">
            <mxRectangle x="800" y="1640" width="80" height="26" as="alternateBounds" />
          </mxGeometry>
        </mxCell>
        <mxCell id="UL4YKMBXZopJeCdpC2au-22" value="IndexModel" style="swimlane;fontStyle=3;align=center;verticalAlign=top;childLayout=stackLayout;horizontal=1;startSize=26;horizontalStack=0;resizeParent=1;resizeParentMax=0;resizeLast=0;collapsible=1;marginBottom=0;" parent="1" vertex="1">
          <mxGeometry x="625" y="530" width="270" height="160" as="geometry" />
        </mxCell>
        <mxCell id="B37MmopoNUqpj75_Dg1A-55" value="+ dataServerConnection: ServerManager" style="text;strokeColor=none;fillColor=none;align=left;verticalAlign=top;spacingLeft=4;spacingRight=4;overflow=hidden;rotatable=0;points=[[0,0.5],[1,0.5]];portConstraint=eastwest;" parent="UL4YKMBXZopJeCdpC2au-22" vertex="1">
          <mxGeometry y="26" width="270" height="26" as="geometry" />
        </mxCell>
        <mxCell id="ZLtzulAEG12qj5SxT5-5-54" value="Use" style="endArrow=open;endSize=12;dashed=1;html=1;rounded=0;edgeStyle=orthogonalEdgeStyle;entryX=0.32;entryY=1.136;entryDx=0;entryDy=0;entryPerimeter=0;" edge="1" parent="UL4YKMBXZopJeCdpC2au-22" target="vnPngC09RosFCxPqreI9-8">
          <mxGeometry width="160" relative="1" as="geometry">
            <mxPoint x="5" y="40" as="sourcePoint" />
            <mxPoint x="165" y="40" as="targetPoint" />
            <Array as="points">
              <mxPoint x="-25" y="40" />
              <mxPoint x="-25" y="-30" />
              <mxPoint x="155" y="-30" />
              <mxPoint x="155" y="-270" />
              <mxPoint x="133" y="-270" />
            </Array>
          </mxGeometry>
        </mxCell>
        <mxCell id="UL4YKMBXZopJeCdpC2au-24" value="" style="line;strokeWidth=1;fillColor=none;align=left;verticalAlign=middle;spacingTop=-1;spacingLeft=3;spacingRight=3;rotatable=0;labelPosition=right;points=[];portConstraint=eastwest;" parent="UL4YKMBXZopJeCdpC2au-22" vertex="1">
          <mxGeometry y="52" width="270" height="8" as="geometry" />
        </mxCell>
        <mxCell id="B37MmopoNUqpj75_Dg1A-56" value="+ createModel(): void&#xa;" style="text;strokeColor=none;fillColor=none;align=left;verticalAlign=top;spacingLeft=4;spacingRight=4;overflow=hidden;rotatable=0;points=[[0,0.5],[1,0.5]];portConstraint=eastwest;" parent="UL4YKMBXZopJeCdpC2au-22" vertex="1">
          <mxGeometry y="60" width="270" height="20" as="geometry" />
        </mxCell>
        <mxCell id="B37MmopoNUqpj75_Dg1A-57" value="+ updateModell(): void&#xa;" style="text;strokeColor=none;fillColor=none;align=left;verticalAlign=top;spacingLeft=4;spacingRight=4;overflow=hidden;rotatable=0;points=[[0,0.5],[1,0.5]];portConstraint=eastwest;" parent="UL4YKMBXZopJeCdpC2au-22" vertex="1">
          <mxGeometry y="80" width="270" height="20" as="geometry" />
        </mxCell>
        <mxCell id="B37MmopoNUqpj75_Dg1A-58" value="+ deleteModel(): void&#xa;" style="text;strokeColor=none;fillColor=none;align=left;verticalAlign=top;spacingLeft=4;spacingRight=4;overflow=hidden;rotatable=0;points=[[0,0.5],[1,0.5]];portConstraint=eastwest;" parent="UL4YKMBXZopJeCdpC2au-22" vertex="1">
          <mxGeometry y="100" width="270" height="20" as="geometry" />
        </mxCell>
        <mxCell id="B37MmopoNUqpj75_Dg1A-60" value="+ getModel(): void&#xa;" style="text;strokeColor=none;fillColor=none;align=left;verticalAlign=top;spacingLeft=4;spacingRight=4;overflow=hidden;rotatable=0;points=[[0,0.5],[1,0.5]];portConstraint=eastwest;" parent="UL4YKMBXZopJeCdpC2au-22" vertex="1">
          <mxGeometry y="120" width="270" height="20" as="geometry" />
        </mxCell>
        <mxCell id="Vg_vFvyBdRH64RmHOJFF-7" value="+ getPlainDocument(): String" style="text;strokeColor=none;fillColor=none;align=left;verticalAlign=top;spacingLeft=4;spacingRight=4;overflow=hidden;rotatable=0;points=[[0,0.5],[1,0.5]];portConstraint=eastwest;" parent="UL4YKMBXZopJeCdpC2au-22" vertex="1">
          <mxGeometry y="140" width="270" height="20" as="geometry" />
        </mxCell>
        <mxCell id="UL4YKMBXZopJeCdpC2au-59" value="ServerManager" style="swimlane;fontStyle=1;align=center;verticalAlign=top;childLayout=stackLayout;horizontal=1;startSize=26;horizontalStack=0;resizeParent=1;resizeParentMax=0;resizeLast=0;collapsible=1;marginBottom=0;" parent="1" vertex="1">
          <mxGeometry x="1030" y="44" width="190" height="80" as="geometry" />
        </mxCell>
        <mxCell id="vnPngC09RosFCxPqreI9-1" value="AnchorTextUsage" style="swimlane;fontStyle=1;align=center;verticalAlign=top;childLayout=stackLayout;horizontal=1;startSize=26;horizontalStack=0;resizeParent=1;resizeParentMax=0;resizeLast=0;collapsible=1;marginBottom=0;" parent="1" vertex="1">
          <mxGeometry x="2920" y="1366" width="160" height="34" as="geometry" />
        </mxCell>
        <mxCell id="ulZ0jbCKSlaguCblbPYP-53" value="" style="endArrow=block;endSize=16;endFill=0;html=1;exitX=0.5;exitY=0;exitDx=0;exitDy=0;" parent="vnPngC09RosFCxPqreI9-1" source="vnPngC09RosFCxPqreI9-1" edge="1">
          <mxGeometry x="0.0045" y="46" width="160" relative="1" as="geometry">
            <mxPoint x="80" y="-6" as="sourcePoint" />
            <mxPoint x="-1160" y="-86" as="targetPoint" />
            <Array as="points">
              <mxPoint x="80" y="-46" />
              <mxPoint x="-1160" y="-46" />
            </Array>
            <mxPoint as="offset" />
          </mxGeometry>
        </mxCell>
        <mxCell id="vnPngC09RosFCxPqreI9-5" value="URLResolver" style="swimlane;fontStyle=1;align=center;verticalAlign=top;childLayout=stackLayout;horizontal=1;startSize=26;horizontalStack=0;resizeParent=1;resizeParentMax=0;resizeLast=0;collapsible=1;marginBottom=0;" parent="1" vertex="1">
          <mxGeometry x="661.68" y="40" width="300" height="80" as="geometry" />
        </mxCell>
        <mxCell id="nHTIsOpt5-FmUogmospr-10" value="+ urlServerConnection: ServerManager" style="text;strokeColor=none;fillColor=none;align=left;verticalAlign=top;spacingLeft=4;spacingRight=4;overflow=hidden;rotatable=0;points=[[0,0.5],[1,0.5]];portConstraint=eastwest;" parent="vnPngC09RosFCxPqreI9-5" vertex="1">
          <mxGeometry y="26" width="300" height="26" as="geometry" />
        </mxCell>
        <mxCell id="nHTIsOpt5-FmUogmospr-11" value="" style="line;strokeWidth=1;fillColor=none;align=left;verticalAlign=middle;spacingTop=-1;spacingLeft=3;spacingRight=3;rotatable=0;labelPosition=right;points=[];portConstraint=eastwest;" parent="vnPngC09RosFCxPqreI9-5" vertex="1">
          <mxGeometry y="52" width="300" height="8" as="geometry" />
        </mxCell>
        <mxCell id="vnPngC09RosFCxPqreI9-8" value="+ resolveURLS(index: DocumentIndexModel): void" style="text;strokeColor=none;fillColor=none;align=left;verticalAlign=top;spacingLeft=4;spacingRight=4;overflow=hidden;rotatable=0;points=[[0,0.5],[1,0.5]];portConstraint=eastwest;" parent="vnPngC09RosFCxPqreI9-5" vertex="1">
          <mxGeometry y="60" width="300" height="20" as="geometry" />
        </mxCell>
        <mxCell id="vnPngC09RosFCxPqreI9-9" value="URLServer" style="swimlane;fontStyle=1;align=center;verticalAlign=top;childLayout=stackLayout;horizontal=1;startSize=26;horizontalStack=0;resizeParent=1;resizeParentMax=0;resizeLast=0;collapsible=1;marginBottom=0;" parent="1" vertex="1">
          <mxGeometry x="840" y="-114" width="160" height="20" as="geometry">
            <mxRectangle x="840" y="-114" width="90" height="26" as="alternateBounds" />
          </mxGeometry>
        </mxCell>
        <mxCell id="vnPngC09RosFCxPqreI9-13" value="DataServer" style="swimlane;fontStyle=1;align=center;verticalAlign=top;childLayout=stackLayout;horizontal=1;startSize=26;horizontalStack=0;resizeParent=1;resizeParentMax=0;resizeLast=0;collapsible=1;marginBottom=0;" parent="1" vertex="1">
          <mxGeometry x="1150" y="-114" width="160" height="20" as="geometry" />
        </mxCell>
        <mxCell id="xpTjOEdWHdF4yTKwdctW-21" value="Lexicon" style="swimlane;fontStyle=1;align=center;verticalAlign=top;childLayout=stackLayout;horizontal=1;startSize=26;horizontalStack=0;resizeParent=1;resizeParentMax=0;resizeLast=0;collapsible=1;marginBottom=0;hachureGap=4;pointerEvents=0;" parent="1" vertex="1">
          <mxGeometry x="2240" y="-64" width="200" height="50" as="geometry" />
        </mxCell>
        <mxCell id="xpTjOEdWHdF4yTKwdctW-22" value="+ instances: HashMap&lt;String,Int&gt;" style="text;strokeColor=none;fillColor=none;align=left;verticalAlign=top;spacingLeft=4;spacingRight=4;overflow=hidden;rotatable=0;points=[[0,0.5],[1,0.5]];portConstraint=eastwest;fontStyle=0" parent="xpTjOEdWHdF4yTKwdctW-21" vertex="1">
          <mxGeometry y="26" width="200" height="24" as="geometry" />
        </mxCell>
        <mxCell id="xpTjOEdWHdF4yTKwdctW-25" value="LexiconManager" style="swimlane;fontStyle=1;align=center;verticalAlign=top;childLayout=stackLayout;horizontal=1;startSize=26;horizontalStack=0;resizeParent=1;resizeParentMax=0;resizeLast=0;collapsible=1;marginBottom=0;" parent="1" vertex="1">
          <mxGeometry x="2260" y="80" width="260" height="122" as="geometry" />
        </mxCell>
        <mxCell id="xpTjOEdWHdF4yTKwdctW-26" value="+ dataServerConnection: ServerManager&#xa;- lexicon: Lexicon&#xa;" style="text;strokeColor=none;fillColor=none;align=left;verticalAlign=top;spacingLeft=4;spacingRight=4;overflow=hidden;rotatable=0;points=[[0,0.5],[1,0.5]];portConstraint=eastwest;" parent="xpTjOEdWHdF4yTKwdctW-25" vertex="1">
          <mxGeometry y="26" width="260" height="34" as="geometry" />
        </mxCell>
        <mxCell id="m8PIFnoMGad8uP0K9j40-1" value="" style="line;strokeWidth=1;fillColor=none;align=left;verticalAlign=middle;spacingTop=-1;spacingLeft=3;spacingRight=3;rotatable=0;labelPosition=right;points=[];portConstraint=eastwest;" parent="xpTjOEdWHdF4yTKwdctW-25" vertex="1">
          <mxGeometry y="60" width="260" height="10" as="geometry" />
        </mxCell>
        <mxCell id="xpTjOEdWHdF4yTKwdctW-27" value="" style="line;strokeWidth=1;fillColor=none;align=left;verticalAlign=middle;spacingTop=-1;spacingLeft=3;spacingRight=3;rotatable=0;labelPosition=right;points=[];portConstraint=eastwest;" parent="xpTjOEdWHdF4yTKwdctW-25" vertex="1">
          <mxGeometry y="70" width="260" height="10" as="geometry" />
        </mxCell>
        <mxCell id="xpTjOEdWHdF4yTKwdctW-28" value="+ getLexicon(): Lexicon&#xa;+ updateLexicon() : void&#xa;" style="text;strokeColor=none;fillColor=none;align=left;verticalAlign=top;spacingLeft=4;spacingRight=4;overflow=hidden;rotatable=0;points=[[0,0.5],[1,0.5]];portConstraint=eastwest;" parent="xpTjOEdWHdF4yTKwdctW-25" vertex="1">
          <mxGeometry y="80" width="260" height="42" as="geometry" />
        </mxCell>
        <mxCell id="xpTjOEdWHdF4yTKwdctW-38" value="" style="endArrow=diamondThin;endFill=1;endSize=24;html=1;rounded=0;edgeStyle=orthogonalEdgeStyle;" parent="1" source="xpTjOEdWHdF4yTKwdctW-22" edge="1">
          <mxGeometry width="160" relative="1" as="geometry">
            <mxPoint x="2382" y="-38" as="sourcePoint" />
            <mxPoint x="2395" y="80" as="targetPoint" />
            <Array as="points">
              <mxPoint x="2395" y="-10" />
              <mxPoint x="2395" y="-10" />
            </Array>
          </mxGeometry>
        </mxCell>
        <mxCell id="X9t2nn5iT1wmEAKBCxQw-26" value="ForwardIndex" style="swimlane;fontStyle=3;align=center;verticalAlign=top;childLayout=stackLayout;horizontal=1;startSize=26;horizontalStack=0;resizeParent=1;resizeParentMax=0;resizeLast=0;collapsible=1;marginBottom=0;" parent="1" vertex="1" collapsed="1">
          <mxGeometry x="440" y="810" width="120" height="26" as="geometry">
            <mxRectangle x="450" y="810" width="160" height="86" as="alternateBounds" />
          </mxGeometry>
        </mxCell>
        <mxCell id="X9t2nn5iT1wmEAKBCxQw-27" value="+ field: type" style="text;strokeColor=none;fillColor=none;align=left;verticalAlign=top;spacingLeft=4;spacingRight=4;overflow=hidden;rotatable=0;points=[[0,0.5],[1,0.5]];portConstraint=eastwest;" parent="X9t2nn5iT1wmEAKBCxQw-26" vertex="1">
          <mxGeometry y="26" width="120" height="26" as="geometry" />
        </mxCell>
        <mxCell id="X9t2nn5iT1wmEAKBCxQw-28" value="" style="line;strokeWidth=1;fillColor=none;align=left;verticalAlign=middle;spacingTop=-1;spacingLeft=3;spacingRight=3;rotatable=0;labelPosition=right;points=[];portConstraint=eastwest;" parent="X9t2nn5iT1wmEAKBCxQw-26" vertex="1">
          <mxGeometry y="52" width="120" height="8" as="geometry" />
        </mxCell>
        <mxCell id="X9t2nn5iT1wmEAKBCxQw-29" value="+ method(type): type" style="text;strokeColor=none;fillColor=none;align=left;verticalAlign=top;spacingLeft=4;spacingRight=4;overflow=hidden;rotatable=0;points=[[0,0.5],[1,0.5]];portConstraint=eastwest;" parent="X9t2nn5iT1wmEAKBCxQw-26" vertex="1">
          <mxGeometry y="60" width="120" height="26" as="geometry" />
        </mxCell>
        <mxCell id="VXNcRWfN4zNZ4ETa913i-9" value="DocumentData" style="swimlane;fontStyle=1;align=center;verticalAlign=top;childLayout=stackLayout;horizontal=1;startSize=26;horizontalStack=0;resizeParent=1;resizeParentMax=0;resizeLast=0;collapsible=1;marginBottom=0;hachureGap=4;pointerEvents=0;" parent="1" vertex="1">
          <mxGeometry x="390" y="1344" width="230" height="108" as="geometry" />
        </mxCell>
        <mxCell id="VXNcRWfN4zNZ4ETa913i-10" value="+ title: String&#xa;- wordIdList: Int[0..*]&#xa;+ hitList: Hit[0..*]&#xa;+ index: DocumentIndexModel" style="text;strokeColor=none;fillColor=none;align=left;verticalAlign=top;spacingLeft=4;spacingRight=4;overflow=hidden;rotatable=0;points=[[0,0.5],[1,0.5]];portConstraint=eastwest;" parent="VXNcRWfN4zNZ4ETa913i-9" vertex="1">
          <mxGeometry y="26" width="230" height="74" as="geometry" />
        </mxCell>
        <mxCell id="VXNcRWfN4zNZ4ETa913i-11" value="" style="line;strokeWidth=1;fillColor=none;align=left;verticalAlign=middle;spacingTop=-1;spacingLeft=3;spacingRight=3;rotatable=0;labelPosition=right;points=[];portConstraint=eastwest;" parent="VXNcRWfN4zNZ4ETa913i-9" vertex="1">
          <mxGeometry y="100" width="230" height="8" as="geometry" />
        </mxCell>
        <mxCell id="X9t2nn5iT1wmEAKBCxQw-30" value="InvertedIndex" style="swimlane;fontStyle=3;align=center;verticalAlign=top;childLayout=stackLayout;horizontal=1;startSize=26;horizontalStack=0;resizeParent=1;resizeParentMax=0;resizeLast=0;collapsible=1;marginBottom=0;" parent="1" vertex="1" collapsed="1">
          <mxGeometry x="831.68" y="810" width="118.32" height="26" as="geometry">
            <mxRectangle x="831.6800000000001" y="810" width="160" height="86" as="alternateBounds" />
          </mxGeometry>
        </mxCell>
        <mxCell id="X9t2nn5iT1wmEAKBCxQw-31" value="+ field: type" style="text;strokeColor=none;fillColor=none;align=left;verticalAlign=top;spacingLeft=4;spacingRight=4;overflow=hidden;rotatable=0;points=[[0,0.5],[1,0.5]];portConstraint=eastwest;" parent="X9t2nn5iT1wmEAKBCxQw-30" vertex="1">
          <mxGeometry y="26" width="118.32" height="26" as="geometry" />
        </mxCell>
        <mxCell id="X9t2nn5iT1wmEAKBCxQw-32" value="" style="line;strokeWidth=1;fillColor=none;align=left;verticalAlign=middle;spacingTop=-1;spacingLeft=3;spacingRight=3;rotatable=0;labelPosition=right;points=[];portConstraint=eastwest;" parent="X9t2nn5iT1wmEAKBCxQw-30" vertex="1">
          <mxGeometry y="52" width="118.32" height="8" as="geometry" />
        </mxCell>
        <mxCell id="X9t2nn5iT1wmEAKBCxQw-33" value="+ method(type): type" style="text;strokeColor=none;fillColor=none;align=left;verticalAlign=top;spacingLeft=4;spacingRight=4;overflow=hidden;rotatable=0;points=[[0,0.5],[1,0.5]];portConstraint=eastwest;" parent="X9t2nn5iT1wmEAKBCxQw-30" vertex="1">
          <mxGeometry y="60" width="118.32" height="26" as="geometry" />
        </mxCell>
        <mxCell id="X9t2nn5iT1wmEAKBCxQw-34" value="WordIndex" style="swimlane;fontStyle=1;align=center;verticalAlign=top;childLayout=stackLayout;horizontal=1;startSize=26;horizontalStack=0;resizeParent=1;resizeParentMax=0;resizeLast=0;collapsible=1;marginBottom=0;" parent="1" vertex="1">
          <mxGeometry x="711.6800000000001" y="1000" width="160" height="70" as="geometry" />
        </mxCell>
        <mxCell id="X9t2nn5iT1wmEAKBCxQw-35" value="+ wordId: Int&#xa;+ hitsInfo: HitsInfo[0..*]" style="text;strokeColor=none;fillColor=none;align=left;verticalAlign=top;spacingLeft=4;spacingRight=4;overflow=hidden;rotatable=0;points=[[0,0.5],[1,0.5]];portConstraint=eastwest;" parent="X9t2nn5iT1wmEAKBCxQw-34" vertex="1">
          <mxGeometry y="26" width="160" height="44" as="geometry" />
        </mxCell>
        <mxCell id="X9t2nn5iT1wmEAKBCxQw-38" value="ImageIndex" style="swimlane;fontStyle=1;align=center;verticalAlign=top;childLayout=stackLayout;horizontal=1;startSize=26;horizontalStack=0;resizeParent=1;resizeParentMax=0;resizeLast=0;collapsible=1;marginBottom=0;" parent="1" vertex="1">
          <mxGeometry x="961.6800000000001" y="1004" width="160" height="34" as="geometry" />
        </mxCell>
        <mxCell id="X9t2nn5iT1wmEAKBCxQw-49" value="" style="endArrow=block;endSize=16;endFill=0;html=1;rounded=0;edgeStyle=orthogonalEdgeStyle;exitX=0.438;exitY=0;exitDx=0;exitDy=0;exitPerimeter=0;entryX=0.5;entryY=1;entryDx=0;entryDy=0;" parent="1" source="X9t2nn5iT1wmEAKBCxQw-34" target="X9t2nn5iT1wmEAKBCxQw-30" edge="1">
          <mxGeometry x="0.1428" y="-22" width="160" relative="1" as="geometry">
            <mxPoint x="701.6800000000001" y="916" as="sourcePoint" />
            <mxPoint x="890" y="840" as="targetPoint" />
            <mxPoint as="offset" />
            <Array as="points">
              <mxPoint x="782" y="920" />
              <mxPoint x="891" y="920" />
            </Array>
          </mxGeometry>
        </mxCell>
        <mxCell id="X9t2nn5iT1wmEAKBCxQw-50" value="" style="endArrow=block;endSize=16;endFill=0;html=1;rounded=0;edgeStyle=orthogonalEdgeStyle;exitX=0.5;exitY=0;exitDx=0;exitDy=0;entryX=0.5;entryY=1;entryDx=0;entryDy=0;" parent="1" source="X9t2nn5iT1wmEAKBCxQw-38" target="X9t2nn5iT1wmEAKBCxQw-30" edge="1">
          <mxGeometry width="160" relative="1" as="geometry">
            <mxPoint x="791.1200000000003" y="1000" as="sourcePoint" />
            <mxPoint x="880" y="839" as="targetPoint" />
            <Array as="points">
              <mxPoint x="1042" y="920" />
              <mxPoint x="891" y="920" />
            </Array>
          </mxGeometry>
        </mxCell>
        <mxCell id="X9t2nn5iT1wmEAKBCxQw-51" value="HitsInfo" style="swimlane;fontStyle=1;align=center;verticalAlign=top;childLayout=stackLayout;horizontal=1;startSize=26;horizontalStack=0;resizeParent=1;resizeParentMax=0;resizeLast=0;collapsible=1;marginBottom=0;" parent="1" vertex="1">
          <mxGeometry x="690" y="1200" width="160" height="78" as="geometry" />
        </mxCell>
        <mxCell id="X9t2nn5iT1wmEAKBCxQw-52" value="+ docId: Int&#xa;+ hitList: Hit[0..*]&#xa;" style="text;strokeColor=none;fillColor=none;align=left;verticalAlign=top;spacingLeft=4;spacingRight=4;overflow=hidden;rotatable=0;points=[[0,0.5],[1,0.5]];portConstraint=eastwest;" parent="X9t2nn5iT1wmEAKBCxQw-51" vertex="1">
          <mxGeometry y="26" width="160" height="44" as="geometry" />
        </mxCell>
        <mxCell id="X9t2nn5iT1wmEAKBCxQw-53" value="" style="line;strokeWidth=1;fillColor=none;align=left;verticalAlign=middle;spacingTop=-1;spacingLeft=3;spacingRight=3;rotatable=0;labelPosition=right;points=[];portConstraint=eastwest;" parent="X9t2nn5iT1wmEAKBCxQw-51" vertex="1">
          <mxGeometry y="70" width="160" height="8" as="geometry" />
        </mxCell>
        <mxCell id="X9t2nn5iT1wmEAKBCxQw-59" value="" style="endArrow=block;endSize=16;endFill=0;html=1;rounded=0;edgeStyle=orthogonalEdgeStyle;exitX=0.5;exitY=0;exitDx=0;exitDy=0;entryX=0.5;entryY=1;entryDx=0;entryDy=0;" parent="1" source="X9t2nn5iT1wmEAKBCxQw-26" target="UL4YKMBXZopJeCdpC2au-22" edge="1">
          <mxGeometry x="0.0053" width="160" relative="1" as="geometry">
            <mxPoint x="570.0000000000002" y="800.71" as="sourcePoint" />
            <mxPoint x="720" y="660" as="targetPoint" />
            <Array as="points">
              <mxPoint x="530" y="740" />
              <mxPoint x="720" y="740" />
            </Array>
            <mxPoint as="offset" />
          </mxGeometry>
        </mxCell>
        <mxCell id="X9t2nn5iT1wmEAKBCxQw-60" value="" style="endArrow=block;endSize=16;endFill=0;html=1;rounded=0;edgeStyle=orthogonalEdgeStyle;exitX=0.5;exitY=0;exitDx=0;exitDy=0;" parent="1" source="X9t2nn5iT1wmEAKBCxQw-30" edge="1">
          <mxGeometry width="160" relative="1" as="geometry">
            <mxPoint x="570" y="836" as="sourcePoint" />
            <mxPoint x="720" y="690" as="targetPoint" />
            <Array as="points">
              <mxPoint x="912" y="740" />
              <mxPoint x="720" y="740" />
            </Array>
          </mxGeometry>
        </mxCell>
        <mxCell id="X9t2nn5iT1wmEAKBCxQw-61" value="" style="endArrow=block;endSize=16;endFill=0;html=1;rounded=0;edgeStyle=orthogonalEdgeStyle;exitX=0.563;exitY=0;exitDx=0;exitDy=0;exitPerimeter=0;" parent="1" source="VXNcRWfN4zNZ4ETa913i-5" edge="1">
          <mxGeometry width="160" relative="1" as="geometry">
            <mxPoint x="400" y="1000" as="sourcePoint" />
            <mxPoint x="523" y="833" as="targetPoint" />
            <Array as="points">
              <mxPoint x="523" y="1006" />
            </Array>
          </mxGeometry>
        </mxCell>
        <mxCell id="X9t2nn5iT1wmEAKBCxQw-62" value="Sorter" style="swimlane;fontStyle=1;align=center;verticalAlign=top;childLayout=stackLayout;horizontal=1;startSize=26;horizontalStack=0;resizeParent=1;resizeParentMax=0;resizeLast=0;collapsible=1;marginBottom=0;" parent="1" vertex="1">
          <mxGeometry x="1055" y="670" width="390" height="130" as="geometry" />
        </mxCell>
        <mxCell id="3ZD-ds__CDtL9bY-RWLM-31" value="+ dataServerConnection: ServerManager&#xa;+ lexiconManager: LexiconManager&#xa;" style="text;strokeColor=none;fillColor=none;align=left;verticalAlign=top;spacingLeft=4;spacingRight=4;overflow=hidden;rotatable=0;points=[[0,0.5],[1,0.5]];portConstraint=eastwest;" parent="X9t2nn5iT1wmEAKBCxQw-62" vertex="1">
          <mxGeometry y="26" width="390" height="44" as="geometry" />
        </mxCell>
        <mxCell id="ZLtzulAEG12qj5SxT5-5-51" value="Use" style="endArrow=open;endSize=12;dashed=1;html=1;rounded=0;edgeStyle=orthogonalEdgeStyle;" edge="1" parent="X9t2nn5iT1wmEAKBCxQw-62">
          <mxGeometry width="160" relative="1" as="geometry">
            <mxPoint x="-5" y="50" as="sourcePoint" />
            <mxPoint x="1205" y="-580" as="targetPoint" />
            <Array as="points">
              <mxPoint x="-55" y="50" />
              <mxPoint x="-55" y="-110" />
              <mxPoint x="215" y="-110" />
              <mxPoint x="215" y="-580" />
            </Array>
          </mxGeometry>
        </mxCell>
        <mxCell id="X9t2nn5iT1wmEAKBCxQw-64" value="" style="line;strokeWidth=1;fillColor=none;align=left;verticalAlign=middle;spacingTop=-1;spacingLeft=3;spacingRight=3;rotatable=0;labelPosition=right;points=[];portConstraint=eastwest;" parent="X9t2nn5iT1wmEAKBCxQw-62" vertex="1">
          <mxGeometry y="70" width="390" height="8" as="geometry" />
        </mxCell>
        <mxCell id="X9t2nn5iT1wmEAKBCxQw-65" value="+ updateInvertedIndex(forwardIndex: ForwardIndex): InvertedIndex" style="text;strokeColor=none;fillColor=none;align=left;verticalAlign=top;spacingLeft=4;spacingRight=4;overflow=hidden;rotatable=0;points=[[0,0.5],[1,0.5]];portConstraint=eastwest;" parent="X9t2nn5iT1wmEAKBCxQw-62" vertex="1">
          <mxGeometry y="78" width="390" height="26" as="geometry" />
        </mxCell>
        <mxCell id="3ZD-ds__CDtL9bY-RWLM-32" value="+ makeInvertedIndex(forwardIndex: ForwardIndex): InvertedIndex" style="text;strokeColor=none;fillColor=none;align=left;verticalAlign=top;spacingLeft=4;spacingRight=4;overflow=hidden;rotatable=0;points=[[0,0.5],[1,0.5]];portConstraint=eastwest;" parent="X9t2nn5iT1wmEAKBCxQw-62" vertex="1">
          <mxGeometry y="104" width="390" height="26" as="geometry" />
        </mxCell>
        <mxCell id="ZLtzulAEG12qj5SxT5-5-50" value="" style="endArrow=open;endFill=1;endSize=12;html=1;rounded=0;edgeStyle=orthogonalEdgeStyle;entryX=1;entryY=0.5;entryDx=0;entryDy=0;" edge="1" parent="X9t2nn5iT1wmEAKBCxQw-62" target="X9t2nn5iT1wmEAKBCxQw-30">
          <mxGeometry width="160" relative="1" as="geometry">
            <mxPoint x="5" y="120" as="sourcePoint" />
            <mxPoint x="155" y="120" as="targetPoint" />
          </mxGeometry>
        </mxCell>
        <mxCell id="X9t2nn5iT1wmEAKBCxQw-68" value="" style="endArrow=open;endFill=1;endSize=12;html=1;rounded=0;edgeStyle=orthogonalEdgeStyle;entryX=0.479;entryY=-0.019;entryDx=0;entryDy=0;entryPerimeter=0;" parent="1" target="X9t2nn5iT1wmEAKBCxQw-62" edge="1">
          <mxGeometry width="160" relative="1" as="geometry">
            <mxPoint x="1002" y="490" as="sourcePoint" />
            <mxPoint x="1210" y="630" as="targetPoint" />
            <Array as="points">
              <mxPoint x="1002" y="590" />
              <mxPoint x="1242" y="590" />
            </Array>
          </mxGeometry>
        </mxCell>
        <mxCell id="UL4YKMBXZopJeCdpC2au-80" value="OnPageSeoAspect" style="swimlane;fontStyle=1;align=center;verticalAlign=top;childLayout=stackLayout;horizontal=1;startSize=26;horizontalStack=0;resizeParent=1;resizeParentMax=0;resizeLast=0;collapsible=1;marginBottom=0;" parent="1" vertex="1">
          <mxGeometry x="1700" y="1248" width="160" height="34" as="geometry" />
        </mxCell>
        <mxCell id="ulZ0jbCKSlaguCblbPYP-35" value="" style="endArrow=block;endSize=16;endFill=0;html=1;entryX=0.377;entryY=1.083;entryDx=0;entryDy=0;entryPerimeter=0;" parent="UL4YKMBXZopJeCdpC2au-80" target="B37MmopoNUqpj75_Dg1A-77" edge="1">
          <mxGeometry width="160" relative="1" as="geometry">
            <mxPoint x="90" y="2" as="sourcePoint" />
            <mxPoint x="250" y="2" as="targetPoint" />
            <Array as="points">
              <mxPoint x="90" y="-18" />
              <mxPoint x="277" y="-18" />
            </Array>
          </mxGeometry>
        </mxCell>
        <mxCell id="UL4YKMBXZopJeCdpC2au-84" value="OffPageSeoAspect" style="swimlane;fontStyle=3;align=center;verticalAlign=top;childLayout=stackLayout;horizontal=1;startSize=26;horizontalStack=0;resizeParent=1;resizeParentMax=0;resizeLast=0;collapsible=1;marginBottom=0;" parent="1" vertex="1">
          <mxGeometry x="1960" y="1248" width="160" height="34" as="geometry" />
        </mxCell>
        <mxCell id="ulZ0jbCKSlaguCblbPYP-36" value="" style="endArrow=block;endSize=16;endFill=0;html=1;entryX=0.377;entryY=1.046;entryDx=0;entryDy=0;entryPerimeter=0;" parent="UL4YKMBXZopJeCdpC2au-84" target="B37MmopoNUqpj75_Dg1A-77" edge="1">
          <mxGeometry width="160" relative="1" as="geometry">
            <mxPoint x="80" y="2" as="sourcePoint" />
            <mxPoint x="4" y="-76" as="targetPoint" />
            <Array as="points">
              <mxPoint x="80" y="-18" />
              <mxPoint x="17" y="-18" />
            </Array>
          </mxGeometry>
        </mxCell>
        <mxCell id="UL4YKMBXZopJeCdpC2au-89" value="SEOAspect" style="swimlane;fontStyle=1;align=center;verticalAlign=top;childLayout=stackLayout;horizontal=1;startSize=26;horizontalStack=0;resizeParent=1;resizeParentMax=0;resizeLast=0;collapsible=1;marginBottom=0;" parent="1" vertex="1">
          <mxGeometry x="1830" y="990" width="390" height="192" as="geometry">
            <mxRectangle x="2170" y="1464" width="100" height="26" as="alternateBounds" />
          </mxGeometry>
        </mxCell>
        <mxCell id="m8PIFnoMGad8uP0K9j40-59" value="&lt;u&gt;+ name: String&lt;/u&gt;" style="text;strokeColor=none;fillColor=none;align=left;verticalAlign=top;spacingLeft=4;spacingRight=4;overflow=hidden;rotatable=0;points=[[0,0.5],[1,0.5]];portConstraint=eastwest;fontStyle=0;html=1;" parent="UL4YKMBXZopJeCdpC2au-89" vertex="1">
          <mxGeometry y="26" width="390" height="22" as="geometry" />
        </mxCell>
        <mxCell id="UL4YKMBXZopJeCdpC2au-90" value="&lt;u&gt;+ tags: htmlTag[0..*]&lt;br&gt;&lt;/u&gt;&lt;span&gt;+ childAspects: SEOAspect[0..*]&lt;/span&gt;&lt;u&gt;&lt;br&gt;&lt;/u&gt;&lt;div&gt;+ problems: SEOProblem[0..*]&lt;/div&gt;" style="text;strokeColor=none;fillColor=none;align=left;verticalAlign=top;spacingLeft=4;spacingRight=4;overflow=hidden;rotatable=0;points=[[0,0.5],[1,0.5]];portConstraint=eastwest;fontStyle=0;html=1;" parent="UL4YKMBXZopJeCdpC2au-89" vertex="1">
          <mxGeometry y="48" width="390" height="54" as="geometry" />
        </mxCell>
        <mxCell id="UL4YKMBXZopJeCdpC2au-91" value="" style="line;strokeWidth=1;fillColor=none;align=left;verticalAlign=middle;spacingTop=-1;spacingLeft=3;spacingRight=3;rotatable=0;labelPosition=right;points=[];portConstraint=eastwest;" parent="UL4YKMBXZopJeCdpC2au-89" vertex="1">
          <mxGeometry y="102" width="390" height="8" as="geometry" />
        </mxCell>
        <mxCell id="UL4YKMBXZopJeCdpC2au-92" value="+ removeAspect(aspect: SEOAspect) : void&#xa;+  addAspect(aspect: SEOAspect) : void&#xa;+ getAspect(aspect: SEOAspect): SEOAspect&#xa;" style="text;strokeColor=none;fillColor=none;align=left;verticalAlign=top;spacingLeft=4;spacingRight=4;overflow=hidden;rotatable=0;points=[[0,0.5],[1,0.5]];portConstraint=eastwest;" parent="UL4YKMBXZopJeCdpC2au-89" vertex="1">
          <mxGeometry y="110" width="390" height="52" as="geometry" />
        </mxCell>
        <mxCell id="B37MmopoNUqpj75_Dg1A-77" value="+ calculateImpact(elements: htmlElement[0..*]): Int" style="text;strokeColor=none;fillColor=none;align=left;verticalAlign=top;spacingLeft=4;spacingRight=4;overflow=hidden;rotatable=0;points=[[0,0.5],[1,0.5]];portConstraint=eastwest;fontStyle=4" parent="UL4YKMBXZopJeCdpC2au-89" vertex="1">
          <mxGeometry y="162" width="390" height="30" as="geometry" />
        </mxCell>
        <mxCell id="UL4YKMBXZopJeCdpC2au-95" value="MetaTagsUsage" style="swimlane;fontStyle=1;align=center;verticalAlign=top;childLayout=stackLayout;horizontal=1;startSize=26;horizontalStack=0;resizeParent=1;resizeParentMax=0;resizeLast=0;collapsible=1;marginBottom=0;" parent="1" vertex="1">
          <mxGeometry x="1540" y="1370" width="160" height="34" as="geometry" />
        </mxCell>
        <mxCell id="ulZ0jbCKSlaguCblbPYP-48" value="" style="endArrow=block;endSize=16;endFill=0;html=1;exitX=0.616;exitY=-0.018;exitDx=0;exitDy=0;exitPerimeter=0;" parent="UL4YKMBXZopJeCdpC2au-95" source="UL4YKMBXZopJeCdpC2au-95" edge="1">
          <mxGeometry x="0.1444" y="-10" width="160" relative="1" as="geometry">
            <mxPoint x="100" y="-10" as="sourcePoint" />
            <mxPoint x="220" y="-90" as="targetPoint" />
            <Array as="points">
              <mxPoint x="99" y="-50" />
              <mxPoint x="160" y="-50" />
              <mxPoint x="220" y="-50" />
            </Array>
            <mxPoint as="offset" />
          </mxGeometry>
        </mxCell>
        <mxCell id="UL4YKMBXZopJeCdpC2au-99" value="TitleUsage" style="swimlane;fontStyle=1;align=center;verticalAlign=top;childLayout=stackLayout;horizontal=1;startSize=26;horizontalStack=0;resizeParent=1;resizeParentMax=0;resizeLast=0;collapsible=1;marginBottom=0;" parent="1" vertex="1">
          <mxGeometry x="1500" y="1529.5" width="160" height="34" as="geometry" />
        </mxCell>
        <mxCell id="ulZ0jbCKSlaguCblbPYP-42" value="" style="endArrow=block;endSize=16;endFill=0;html=1;exitX=0.409;exitY=-0.026;exitDx=0;exitDy=0;exitPerimeter=0;" parent="UL4YKMBXZopJeCdpC2au-99" source="UL4YKMBXZopJeCdpC2au-99" edge="1">
          <mxGeometry width="160" relative="1" as="geometry">
            <mxPoint x="70" y="-9.5" as="sourcePoint" />
            <mxPoint x="120" y="-129.5" as="targetPoint" />
            <Array as="points">
              <mxPoint x="65" y="-29.5" />
              <mxPoint x="90" y="-29.5" />
              <mxPoint x="120" y="-29.5" />
            </Array>
          </mxGeometry>
        </mxCell>
        <mxCell id="UL4YKMBXZopJeCdpC2au-103" value="PageDescriptionUsage" style="swimlane;fontStyle=1;align=center;verticalAlign=top;childLayout=stackLayout;horizontal=1;startSize=26;horizontalStack=0;resizeParent=1;resizeParentMax=0;resizeLast=0;collapsible=1;marginBottom=0;" parent="1" vertex="1">
          <mxGeometry x="1750" y="1546" width="160" height="34" as="geometry" />
        </mxCell>
        <mxCell id="ulZ0jbCKSlaguCblbPYP-43" value="" style="endArrow=block;endSize=16;endFill=0;html=1;" parent="UL4YKMBXZopJeCdpC2au-103" edge="1">
          <mxGeometry width="160" relative="1" as="geometry">
            <mxPoint x="50" y="4" as="sourcePoint" />
            <mxPoint x="-130" y="-146" as="targetPoint" />
            <Array as="points">
              <mxPoint x="50" y="-46" />
              <mxPoint x="-130" y="-46" />
            </Array>
          </mxGeometry>
        </mxCell>
        <mxCell id="UL4YKMBXZopJeCdpC2au-107" value="AltTagsUsage" style="swimlane;fontStyle=1;align=center;verticalAlign=top;childLayout=stackLayout;horizontal=1;startSize=26;horizontalStack=0;resizeParent=1;resizeParentMax=0;resizeLast=0;collapsible=1;marginBottom=0;" parent="1" vertex="1">
          <mxGeometry x="1890" y="1370" width="160" height="34" as="geometry" />
        </mxCell>
        <mxCell id="ulZ0jbCKSlaguCblbPYP-49" value="" style="endArrow=block;endSize=16;endFill=0;html=1;" parent="UL4YKMBXZopJeCdpC2au-107" edge="1">
          <mxGeometry x="0.3103" y="80" width="160" relative="1" as="geometry">
            <mxPoint x="70" as="sourcePoint" />
            <mxPoint x="-130" y="-90" as="targetPoint" />
            <Array as="points">
              <mxPoint x="70" y="-50" />
              <mxPoint x="-130" y="-50" />
            </Array>
            <mxPoint as="offset" />
          </mxGeometry>
        </mxCell>
        <mxCell id="UL4YKMBXZopJeCdpC2au-111" value="SemanticTagsUsage" style="swimlane;fontStyle=1;align=center;verticalAlign=top;childLayout=stackLayout;horizontal=1;startSize=26;horizontalStack=0;resizeParent=1;resizeParentMax=0;resizeLast=0;collapsible=1;marginBottom=0;" parent="1" vertex="1">
          <mxGeometry x="2170" y="1370" width="160" height="34" as="geometry" />
        </mxCell>
        <mxCell id="ulZ0jbCKSlaguCblbPYP-50" value="" style="endArrow=block;endSize=16;endFill=0;html=1;" parent="UL4YKMBXZopJeCdpC2au-111" edge="1">
          <mxGeometry x="-0.3333" y="80" width="160" relative="1" as="geometry">
            <mxPoint x="70" as="sourcePoint" />
            <mxPoint x="-410" y="-90" as="targetPoint" />
            <Array as="points">
              <mxPoint x="70" y="-50" />
              <mxPoint x="-410" y="-50" />
            </Array>
            <mxPoint as="offset" />
          </mxGeometry>
        </mxCell>
        <mxCell id="UL4YKMBXZopJeCdpC2au-115" value="URLOptimization" style="swimlane;fontStyle=1;align=center;verticalAlign=top;childLayout=stackLayout;horizontal=1;startSize=26;horizontalStack=0;resizeParent=1;resizeParentMax=0;resizeLast=0;collapsible=1;marginBottom=0;" parent="1" vertex="1">
          <mxGeometry x="2410" y="1370" width="160" height="34" as="geometry" />
        </mxCell>
        <mxCell id="ulZ0jbCKSlaguCblbPYP-51" value="" style="endArrow=block;endSize=16;endFill=0;html=1;" parent="UL4YKMBXZopJeCdpC2au-115" edge="1">
          <mxGeometry x="0.0123" y="60" width="160" relative="1" as="geometry">
            <mxPoint x="70" as="sourcePoint" />
            <mxPoint x="-650" y="-90" as="targetPoint" />
            <Array as="points">
              <mxPoint x="70" y="-50" />
              <mxPoint x="-650" y="-50" />
            </Array>
            <mxPoint as="offset" />
          </mxGeometry>
        </mxCell>
        <mxCell id="UL4YKMBXZopJeCdpC2au-119" value="Formatting" style="swimlane;fontStyle=1;align=center;verticalAlign=top;childLayout=stackLayout;horizontal=1;startSize=26;horizontalStack=0;resizeParent=1;resizeParentMax=0;resizeLast=0;collapsible=1;marginBottom=0;" parent="1" vertex="1">
          <mxGeometry x="2660" y="1370" width="160" height="34" as="geometry" />
        </mxCell>
        <mxCell id="ulZ0jbCKSlaguCblbPYP-52" value="" style="endArrow=block;endSize=16;endFill=0;html=1;" parent="UL4YKMBXZopJeCdpC2au-119" edge="1">
          <mxGeometry x="0.0476" y="-30" width="160" relative="1" as="geometry">
            <mxPoint x="60" as="sourcePoint" />
            <mxPoint x="-900" y="-90" as="targetPoint" />
            <Array as="points">
              <mxPoint x="60" y="-50" />
              <mxPoint x="-900" y="-50" />
            </Array>
            <mxPoint as="offset" />
          </mxGeometry>
        </mxCell>
        <mxCell id="UL4YKMBXZopJeCdpC2au-123" value="HTagUsage" style="swimlane;fontStyle=1;align=center;verticalAlign=top;childLayout=stackLayout;horizontal=1;startSize=26;horizontalStack=0;resizeParent=1;resizeParentMax=0;resizeLast=0;collapsible=1;marginBottom=0;" parent="1" vertex="1">
          <mxGeometry x="2750" y="1560" width="160" height="34" as="geometry" />
        </mxCell>
        <mxCell id="ulZ0jbCKSlaguCblbPYP-57" value="" style="endArrow=block;endSize=16;endFill=0;html=1;entryX=0.352;entryY=0.839;entryDx=0;entryDy=0;entryPerimeter=0;" parent="UL4YKMBXZopJeCdpC2au-123" edge="1">
          <mxGeometry x="-0.6629" y="-60" width="160" relative="1" as="geometry">
            <mxPoint x="50" as="sourcePoint" />
            <mxPoint x="-33.68000000000029" y="-157.288" as="targetPoint" />
            <Array as="points">
              <mxPoint x="50" y="-30" />
              <mxPoint x="-34" y="-30" />
            </Array>
            <mxPoint as="offset" />
          </mxGeometry>
        </mxCell>
        <mxCell id="UL4YKMBXZopJeCdpC2au-127" value="NoHeaderFoundProblem" style="swimlane;fontStyle=1;align=center;verticalAlign=top;childLayout=stackLayout;horizontal=1;startSize=26;horizontalStack=0;resizeParent=1;resizeParentMax=0;resizeLast=0;collapsible=1;marginBottom=0;" parent="1" vertex="1">
          <mxGeometry x="2260" y="1560" width="160" height="34" as="geometry">
            <mxRectangle x="2260" y="1560" width="170" height="26" as="alternateBounds" />
          </mxGeometry>
        </mxCell>
        <mxCell id="UL4YKMBXZopJeCdpC2au-196" value="SlugUsage" style="swimlane;fontStyle=1;align=center;verticalAlign=top;childLayout=stackLayout;horizontal=1;startSize=26;horizontalStack=0;resizeParent=1;resizeParentMax=0;resizeLast=0;collapsible=1;marginBottom=0;" parent="1" vertex="1">
          <mxGeometry x="2490" y="1560" width="160" height="30" as="geometry" />
        </mxCell>
        <mxCell id="ulZ0jbCKSlaguCblbPYP-56" value="" style="endArrow=block;endSize=16;endFill=0;html=1;entryX=0.421;entryY=0.696;entryDx=0;entryDy=0;entryPerimeter=0;" parent="UL4YKMBXZopJeCdpC2au-196" edge="1">
          <mxGeometry x="-0.6498" y="-63" width="160" relative="1" as="geometry">
            <mxPoint x="60" as="sourcePoint" />
            <mxPoint x="-12.640000000000327" y="-158.4320000000007" as="targetPoint" />
            <Array as="points">
              <mxPoint x="60" y="-40" />
              <mxPoint x="-10" y="-40" />
            </Array>
            <mxPoint x="20" y="3" as="offset" />
          </mxGeometry>
        </mxCell>
        <mxCell id="X9t2nn5iT1wmEAKBCxQw-89" value="DescriptionNotFoundProblem" style="swimlane;fontStyle=1;childLayout=stackLayout;horizontal=1;startSize=26;fillColor=none;horizontalStack=0;resizeParent=1;resizeParentMax=0;resizeLast=0;collapsible=1;marginBottom=0;" parent="1" vertex="1">
          <mxGeometry x="1720" y="1663" width="190" height="37" as="geometry" />
        </mxCell>
        <mxCell id="ZvxXPG6ARuYnSKrhNRSG-1" value="FewAltTagsProblem" style="swimlane;fontStyle=1;childLayout=stackLayout;horizontal=1;startSize=26;fillColor=none;horizontalStack=0;resizeParent=1;resizeParentMax=0;resizeLast=0;collapsible=1;marginBottom=0;" parent="1" vertex="1">
          <mxGeometry x="2010" y="1546" width="140" height="34" as="geometry" />
        </mxCell>
        <mxCell id="ZvxXPG6ARuYnSKrhNRSG-9" value="SEOConfigProxy" style="swimlane;fontStyle=1;align=center;verticalAlign=top;childLayout=stackLayout;horizontal=1;startSize=26;horizontalStack=0;resizeParent=1;resizeParentMax=0;resizeLast=0;collapsible=1;marginBottom=0;" parent="1" vertex="1">
          <mxGeometry x="1720" y="390" width="360" height="130" as="geometry" />
        </mxCell>
        <mxCell id="ZvxXPG6ARuYnSKrhNRSG-10" value="+ dataServerConnection: ServerManager" style="text;strokeColor=none;fillColor=none;align=left;verticalAlign=top;spacingLeft=4;spacingRight=4;overflow=hidden;rotatable=0;points=[[0,0.5],[1,0.5]];portConstraint=eastwest;" parent="ZvxXPG6ARuYnSKrhNRSG-9" vertex="1">
          <mxGeometry y="26" width="360" height="24" as="geometry" />
        </mxCell>
        <mxCell id="3ZD-ds__CDtL9bY-RWLM-16" value="&amp;nbsp;- seoAspectConfiguration: SEOAspect" style="text;whiteSpace=wrap;html=1;" parent="ZvxXPG6ARuYnSKrhNRSG-9" vertex="1">
          <mxGeometry y="50" width="360" height="30" as="geometry" />
        </mxCell>
        <mxCell id="ZvxXPG6ARuYnSKrhNRSG-11" value="" style="line;strokeWidth=1;fillColor=none;align=left;verticalAlign=middle;spacingTop=-1;spacingLeft=3;spacingRight=3;rotatable=0;labelPosition=right;points=[];portConstraint=eastwest;" parent="ZvxXPG6ARuYnSKrhNRSG-9" vertex="1">
          <mxGeometry y="80" width="360" height="10" as="geometry" />
        </mxCell>
        <mxCell id="ZvxXPG6ARuYnSKrhNRSG-12" value="+ getDefaultConfiguration(): SEOAspect&#xa;+ updateDefaultConfiguration(): void&#xa;&#xa;&#xa;" style="text;strokeColor=none;fillColor=none;align=left;verticalAlign=top;spacingLeft=4;spacingRight=4;overflow=hidden;rotatable=0;points=[[0,0.5],[1,0.5]];portConstraint=eastwest;" parent="ZvxXPG6ARuYnSKrhNRSG-9" vertex="1">
          <mxGeometry y="90" width="360" height="40" as="geometry" />
        </mxCell>
        <mxCell id="ZvxXPG6ARuYnSKrhNRSG-14" value="" style="endArrow=block;dashed=1;endFill=0;endSize=12;html=1;rounded=0;edgeStyle=orthogonalEdgeStyle;exitX=0.5;exitY=0;exitDx=0;exitDy=0;entryX=0.474;entryY=1;entryDx=0;entryDy=0;entryPerimeter=0;" parent="1" source="UL4YKMBXZopJeCdpC2au-89" target="ZvxXPG6ARuYnSKrhNRSG-31" edge="1">
          <mxGeometry width="160" relative="1" as="geometry">
            <mxPoint x="1600" y="1166" as="sourcePoint" />
            <mxPoint x="1680" y="910" as="targetPoint" />
            <Array as="points">
              <mxPoint x="2000" y="956" />
              <mxPoint x="2142" y="956" />
            </Array>
          </mxGeometry>
        </mxCell>
        <mxCell id="ZvxXPG6ARuYnSKrhNRSG-15" value="SEOProblem" style="swimlane;fontStyle=3;align=center;verticalAlign=top;childLayout=stackLayout;horizontal=1;startSize=26;horizontalStack=0;resizeParent=1;resizeParentMax=0;resizeLast=0;collapsible=1;marginBottom=0;" parent="1" vertex="1">
          <mxGeometry x="2470" y="990" width="380" height="180" as="geometry" />
        </mxCell>
        <mxCell id="B37MmopoNUqpj75_Dg1A-73" value="- weight: Int" style="text;strokeColor=none;fillColor=none;align=left;verticalAlign=top;spacingLeft=4;spacingRight=4;overflow=hidden;rotatable=0;points=[[0,0.5],[1,0.5]];portConstraint=eastwest;fontStyle=4;horizontal=1;" parent="ZvxXPG6ARuYnSKrhNRSG-15" vertex="1">
          <mxGeometry y="26" width="380" height="24" as="geometry" />
        </mxCell>
        <mxCell id="B37MmopoNUqpj75_Dg1A-75" value="+ description: String" style="text;strokeColor=none;fillColor=none;align=left;verticalAlign=top;spacingLeft=4;spacingRight=4;overflow=hidden;rotatable=0;points=[[0,0.5],[1,0.5]];portConstraint=eastwest;fontStyle=4;horizontal=1;" parent="ZvxXPG6ARuYnSKrhNRSG-15" vertex="1">
          <mxGeometry y="50" width="380" height="20" as="geometry" />
        </mxCell>
        <mxCell id="ZLtzulAEG12qj5SxT5-5-55" value="+ suggestions: SEOSuggestion&#xa;+ occurences: htmlTagPosition[0..*]" style="text;strokeColor=none;fillColor=none;align=left;verticalAlign=top;spacingLeft=4;spacingRight=4;overflow=hidden;rotatable=0;points=[[0,0.5],[1,0.5]];portConstraint=eastwest;fontStyle=0;horizontal=1;" vertex="1" parent="ZvxXPG6ARuYnSKrhNRSG-15">
          <mxGeometry y="70" width="380" height="44" as="geometry" />
        </mxCell>
        <mxCell id="ZvxXPG6ARuYnSKrhNRSG-17" value="" style="line;strokeWidth=1;fillColor=none;align=left;verticalAlign=middle;spacingTop=-1;spacingLeft=3;spacingRight=3;rotatable=0;labelPosition=right;points=[];portConstraint=eastwest;" parent="ZvxXPG6ARuYnSKrhNRSG-15" vertex="1">
          <mxGeometry y="114" width="380" height="6" as="geometry" />
        </mxCell>
        <mxCell id="ZvxXPG6ARuYnSKrhNRSG-18" value="+ calculateImpact(elements: htmlElement[0..*]): Int" style="text;strokeColor=none;fillColor=none;align=left;verticalAlign=top;spacingLeft=4;spacingRight=4;overflow=hidden;rotatable=0;points=[[0,0.5],[1,0.5]];portConstraint=eastwest;fontStyle=4" parent="ZvxXPG6ARuYnSKrhNRSG-15" vertex="1">
          <mxGeometry y="120" width="380" height="30" as="geometry" />
        </mxCell>
        <mxCell id="B37MmopoNUqpj75_Dg1A-76" value="+ getSuggestions(elements: htmlElement[0..*]): SEOSuggestion[0..*]&#xa; &#xa;" style="text;strokeColor=none;fillColor=none;align=left;verticalAlign=top;spacingLeft=4;spacingRight=4;overflow=hidden;rotatable=0;points=[[0,0.5],[1,0.5]];portConstraint=eastwest;fontStyle=4" parent="ZvxXPG6ARuYnSKrhNRSG-15" vertex="1">
          <mxGeometry y="150" width="380" height="30" as="geometry" />
        </mxCell>
        <mxCell id="ZvxXPG6ARuYnSKrhNRSG-31" value="&lt;p style=&quot;margin: 0px ; margin-top: 4px ; text-align: center&quot;&gt;&lt;i&gt;&amp;lt;&amp;lt;Interface&amp;gt;&amp;gt;&lt;/i&gt;&lt;br&gt;&lt;b&gt;ImpactCalculatable&lt;/b&gt;&lt;/p&gt;&lt;hr size=&quot;1&quot;&gt;&lt;hr size=&quot;1&quot;&gt;&lt;p style=&quot;margin: 0px ; margin-left: 4px&quot;&gt;+ calculateImpact (elements :htmlElement[0..*]) : Int&lt;/p&gt;" style="verticalAlign=top;align=left;overflow=fill;fontSize=12;fontFamily=Helvetica;html=1;" parent="1" vertex="1">
          <mxGeometry x="1990" y="836" width="320" height="80" as="geometry" />
        </mxCell>
        <mxCell id="ZvxXPG6ARuYnSKrhNRSG-46" value="htmlTag" style="swimlane;fontStyle=1;align=center;verticalAlign=top;childLayout=stackLayout;horizontal=1;startSize=26;horizontalStack=0;resizeParent=1;resizeParentMax=0;resizeLast=0;collapsible=1;marginBottom=0;" parent="1" vertex="1">
          <mxGeometry x="2250" y="986" width="160" height="34" as="geometry" />
        </mxCell>
        <mxCell id="xOgXABfGznbNNHsN3aHD-12" value="" style="endArrow=block;dashed=1;endFill=0;endSize=12;html=1;rounded=0;edgeStyle=orthogonalEdgeStyle;exitX=0.5;exitY=0;exitDx=0;exitDy=0;entryX=0.474;entryY=1;entryDx=0;entryDy=0;entryPerimeter=0;" parent="1" source="ZvxXPG6ARuYnSKrhNRSG-15" target="ZvxXPG6ARuYnSKrhNRSG-31" edge="1">
          <mxGeometry width="160" relative="1" as="geometry">
            <mxPoint x="1510" y="916" as="sourcePoint" />
            <mxPoint x="1670" y="916" as="targetPoint" />
            <Array as="points">
              <mxPoint x="2605" y="956" />
              <mxPoint x="2142" y="956" />
            </Array>
          </mxGeometry>
        </mxCell>
        <mxCell id="xdEpOosHyWj6ykagDoDC-6" value="" style="endArrow=open;endFill=1;endSize=12;html=1;rounded=0;edgeStyle=orthogonalEdgeStyle;entryX=0.728;entryY=1.022;entryDx=0;entryDy=0;entryPerimeter=0;" parent="1" edge="1">
          <mxGeometry width="160" relative="1" as="geometry">
            <mxPoint x="2474" y="1127" as="sourcePoint" />
            <mxPoint x="2366.4799999999996" y="1020.1759999999999" as="targetPoint" />
            <Array as="points">
              <mxPoint x="2367" y="1127" />
            </Array>
          </mxGeometry>
        </mxCell>
        <mxCell id="xdEpOosHyWj6ykagDoDC-7" value="TitleLengthProblem" style="swimlane;fontStyle=1;align=center;verticalAlign=top;childLayout=stackLayout;horizontal=1;startSize=26;horizontalStack=0;resizeParent=1;resizeParentMax=0;resizeLast=0;collapsible=1;marginBottom=0;html=1;" parent="1" vertex="1">
          <mxGeometry x="1480" y="1681" width="160" height="34" as="geometry" />
        </mxCell>
        <mxCell id="xdEpOosHyWj6ykagDoDC-11" value="" style="endArrow=diamondThin;endFill=1;endSize=24;html=1;rounded=0;edgeStyle=orthogonalEdgeStyle;exitX=0;exitY=0.5;exitDx=0;exitDy=0;" parent="1" source="ZvxXPG6ARuYnSKrhNRSG-18" edge="1">
          <mxGeometry width="160" relative="1" as="geometry">
            <mxPoint x="2460" y="1144" as="sourcePoint" />
            <mxPoint x="2220" y="1144" as="targetPoint" />
            <Array as="points">
              <mxPoint x="2470" y="1144" />
            </Array>
          </mxGeometry>
        </mxCell>
        <mxCell id="xdEpOosHyWj6ykagDoDC-12" value="KeywordsUsage" style="swimlane;fontStyle=1;align=center;verticalAlign=top;childLayout=stackLayout;horizontal=1;startSize=26;horizontalStack=0;resizeParent=1;resizeParentMax=0;resizeLast=0;collapsible=1;marginBottom=0;" parent="1" vertex="1">
          <mxGeometry x="1030" y="1366" width="160" height="34" as="geometry" />
        </mxCell>
        <mxCell id="xdEpOosHyWj6ykagDoDC-16" value="PowerWordsUsage" style="swimlane;fontStyle=1;align=center;verticalAlign=top;childLayout=stackLayout;horizontal=1;startSize=26;horizontalStack=0;resizeParent=1;resizeParentMax=0;resizeLast=0;collapsible=1;marginBottom=0;" parent="1" vertex="1">
          <mxGeometry x="1230" y="1366" width="160" height="34" as="geometry" />
        </mxCell>
        <mxCell id="ulZ0jbCKSlaguCblbPYP-47" value="" style="endArrow=block;endSize=16;endFill=0;html=1;exitX=0.5;exitY=0;exitDx=0;exitDy=0;" parent="xdEpOosHyWj6ykagDoDC-16" source="xdEpOosHyWj6ykagDoDC-16" edge="1">
          <mxGeometry width="160" relative="1" as="geometry">
            <mxPoint x="90" y="-6" as="sourcePoint" />
            <mxPoint x="530" y="-86" as="targetPoint" />
            <Array as="points">
              <mxPoint x="80" y="-46" />
              <mxPoint x="530" y="-46" />
            </Array>
          </mxGeometry>
        </mxCell>
        <mxCell id="xdEpOosHyWj6ykagDoDC-57" value="Extractor" style="swimlane;fontStyle=1;align=center;verticalAlign=top;childLayout=stackLayout;horizontal=1;startSize=26;horizontalStack=0;resizeParent=1;resizeParentMax=0;resizeLast=0;collapsible=1;marginBottom=0;strokeColor=default;html=1;" parent="1" vertex="1">
          <mxGeometry x="420" y="370" width="340" height="90" as="geometry" />
        </mxCell>
        <mxCell id="xdEpOosHyWj6ykagDoDC-58" value="&lt;div&gt;+ serversConnection: ServerManager&lt;/div&gt;" style="text;strokeColor=none;fillColor=none;align=left;verticalAlign=top;spacingLeft=4;spacingRight=4;overflow=hidden;rotatable=0;points=[[0,0.5],[1,0.5]];portConstraint=eastwest;html=1;" parent="xdEpOosHyWj6ykagDoDC-57" vertex="1">
          <mxGeometry y="26" width="340" height="26" as="geometry" />
        </mxCell>
        <mxCell id="xdEpOosHyWj6ykagDoDC-59" value="" style="line;strokeWidth=1;fillColor=none;align=left;verticalAlign=middle;spacingTop=-1;spacingLeft=3;spacingRight=3;rotatable=0;labelPosition=right;points=[];portConstraint=eastwest;html=1;" parent="xdEpOosHyWj6ykagDoDC-57" vertex="1">
          <mxGeometry y="52" width="340" height="8" as="geometry" />
        </mxCell>
        <mxCell id="xdEpOosHyWj6ykagDoDC-60" value="&lt;div&gt;+ extractFromURLS(is: InputStream): String[0..*]&lt;/div&gt;" style="text;strokeColor=none;fillColor=none;align=left;verticalAlign=top;spacingLeft=4;spacingRight=4;overflow=hidden;rotatable=0;points=[[0,0.5],[1,0.5]];portConstraint=eastwest;html=1;" parent="xdEpOosHyWj6ykagDoDC-57" vertex="1">
          <mxGeometry y="60" width="340" height="30" as="geometry" />
        </mxCell>
        <mxCell id="xdEpOosHyWj6ykagDoDC-62" value="Crawler" style="swimlane;fontStyle=1;align=center;verticalAlign=top;childLayout=stackLayout;horizontal=1;startSize=26;horizontalStack=0;resizeParent=1;resizeParentMax=0;resizeLast=0;collapsible=1;marginBottom=0;strokeColor=default;html=1;" parent="1" vertex="1">
          <mxGeometry x="90" y="370" width="290" height="90" as="geometry" />
        </mxCell>
        <mxCell id="xdEpOosHyWj6ykagDoDC-63" value="+ serversConnection: ServerManager" style="text;strokeColor=none;fillColor=none;align=left;verticalAlign=top;spacingLeft=4;spacingRight=4;overflow=hidden;rotatable=0;points=[[0,0.5],[1,0.5]];portConstraint=eastwest;html=1;" parent="xdEpOosHyWj6ykagDoDC-62" vertex="1">
          <mxGeometry y="26" width="290" height="26" as="geometry" />
        </mxCell>
        <mxCell id="xdEpOosHyWj6ykagDoDC-64" value="" style="line;strokeWidth=1;fillColor=none;align=left;verticalAlign=middle;spacingTop=-1;spacingLeft=3;spacingRight=3;rotatable=0;labelPosition=right;points=[];portConstraint=eastwest;html=1;" parent="xdEpOosHyWj6ykagDoDC-62" vertex="1">
          <mxGeometry y="52" width="290" height="8" as="geometry" />
        </mxCell>
        <mxCell id="xdEpOosHyWj6ykagDoDC-65" value="+ scan(urls: String[0..*]): CompressedDocument[0..*]" style="text;strokeColor=none;fillColor=none;align=left;verticalAlign=top;spacingLeft=4;spacingRight=4;overflow=hidden;rotatable=0;points=[[0,0.5],[1,0.5]];portConstraint=eastwest;html=1;" parent="xdEpOosHyWj6ykagDoDC-62" vertex="1">
          <mxGeometry y="60" width="290" height="30" as="geometry" />
        </mxCell>
        <mxCell id="xdEpOosHyWj6ykagDoDC-69" value="" style="endArrow=open;endFill=1;endSize=12;html=1;rounded=0;edgeStyle=orthogonalEdgeStyle;entryX=1.012;entryY=0.29;entryDx=0;entryDy=0;entryPerimeter=0;exitX=0;exitY=0.5;exitDx=0;exitDy=0;" parent="1" source="VXNcRWfN4zNZ4ETa913i-4" target="xdEpOosHyWj6ykagDoDC-60" edge="1">
          <mxGeometry width="160" relative="1" as="geometry">
            <mxPoint x="650" y="360" as="sourcePoint" />
            <mxPoint x="810" y="360" as="targetPoint" />
            <Array as="points">
              <mxPoint x="860" y="439" />
            </Array>
          </mxGeometry>
        </mxCell>
        <mxCell id="xdEpOosHyWj6ykagDoDC-75" value="&lt;b&gt;htmlTagPosition&lt;/b&gt;" style="swimlane;fontStyle=0;childLayout=stackLayout;horizontal=1;startSize=26;fillColor=none;horizontalStack=0;resizeParent=1;resizeParentMax=0;resizeLast=0;collapsible=1;marginBottom=0;html=1;" parent="1" vertex="1">
          <mxGeometry x="2260" y="1176" width="140" height="78" as="geometry" />
        </mxCell>
        <mxCell id="xdEpOosHyWj6ykagDoDC-76" value="+ tag: htmlTag" style="text;strokeColor=none;fillColor=none;align=left;verticalAlign=top;spacingLeft=4;spacingRight=4;overflow=hidden;rotatable=0;points=[[0,0.5],[1,0.5]];portConstraint=eastwest;html=1;" parent="xdEpOosHyWj6ykagDoDC-75" vertex="1">
          <mxGeometry y="26" width="140" height="26" as="geometry" />
        </mxCell>
        <mxCell id="xdEpOosHyWj6ykagDoDC-77" value="+ number: Int " style="text;strokeColor=none;fillColor=none;align=left;verticalAlign=top;spacingLeft=4;spacingRight=4;overflow=hidden;rotatable=0;points=[[0,0.5],[1,0.5]];portConstraint=eastwest;html=1;" parent="xdEpOosHyWj6ykagDoDC-75" vertex="1">
          <mxGeometry y="52" width="140" height="26" as="geometry" />
        </mxCell>
        <mxCell id="xdEpOosHyWj6ykagDoDC-79" value="" style="endArrow=open;endFill=1;endSize=12;html=1;rounded=0;edgeStyle=orthogonalEdgeStyle;entryX=1.014;entryY=0.154;entryDx=0;entryDy=0;entryPerimeter=0;" parent="1" target="xdEpOosHyWj6ykagDoDC-77" edge="1">
          <mxGeometry width="160" relative="1" as="geometry">
            <mxPoint x="2600" y="1180" as="sourcePoint" />
            <mxPoint x="2570" y="1226" as="targetPoint" />
            <Array as="points">
              <mxPoint x="2600" y="1232" />
            </Array>
          </mxGeometry>
        </mxCell>
        <mxCell id="xdEpOosHyWj6ykagDoDC-81" value="" style="endArrow=diamondThin;endFill=0;endSize=24;html=1;rounded=0;edgeStyle=orthogonalEdgeStyle;entryX=0.5;entryY=0;entryDx=0;entryDy=0;" parent="1" target="xdEpOosHyWj6ykagDoDC-75" edge="1">
          <mxGeometry width="160" relative="1" as="geometry">
            <mxPoint x="2330" y="1020" as="sourcePoint" />
            <mxPoint x="2410" y="1090" as="targetPoint" />
            <Array as="points">
              <mxPoint x="2330" y="1020" />
            </Array>
          </mxGeometry>
        </mxCell>
        <mxCell id="xdEpOosHyWj6ykagDoDC-83" value="" style="endArrow=diamondThin;endFill=1;endSize=24;html=1;rounded=0;edgeStyle=orthogonalEdgeStyle;exitX=0.443;exitY=0.982;exitDx=0;exitDy=0;exitPerimeter=0;entryX=0.5;entryY=0;entryDx=0;entryDy=0;" parent="1" target="ZvxXPG6ARuYnSKrhNRSG-1" edge="1">
          <mxGeometry width="160" relative="1" as="geometry">
            <mxPoint x="1960.88" y="1403.8560000000002" as="sourcePoint" />
            <mxPoint x="2110" y="1506.41" as="targetPoint" />
            <Array as="points">
              <mxPoint x="1963" y="1404" />
              <mxPoint x="1963" y="1500" />
              <mxPoint x="2080" y="1500" />
            </Array>
          </mxGeometry>
        </mxCell>
        <mxCell id="xdEpOosHyWj6ykagDoDC-84" value="" style="endArrow=diamondThin;endFill=1;endSize=24;html=1;rounded=0;edgeStyle=orthogonalEdgeStyle;entryX=0.5;entryY=0;entryDx=0;entryDy=0;exitX=0.456;exitY=0.5;exitDx=0;exitDy=0;exitPerimeter=0;" parent="1" target="UL4YKMBXZopJeCdpC2au-127" edge="1">
          <mxGeometry width="160" relative="1" as="geometry">
            <mxPoint x="2242.96" y="1400" as="sourcePoint" />
            <mxPoint x="2470" y="1420" as="targetPoint" />
            <Array as="points">
              <mxPoint x="2243" y="1510" />
              <mxPoint x="2340" y="1510" />
            </Array>
          </mxGeometry>
        </mxCell>
        <mxCell id="xdEpOosHyWj6ykagDoDC-85" value="" style="endArrow=diamondThin;endFill=1;endSize=24;html=1;rounded=0;edgeStyle=orthogonalEdgeStyle;entryX=0.564;entryY=0.017;entryDx=0;entryDy=0;entryPerimeter=0;" parent="1" target="X9t2nn5iT1wmEAKBCxQw-89" edge="1">
          <mxGeometry width="160" relative="1" as="geometry">
            <mxPoint x="1840" y="1580" as="sourcePoint" />
            <mxPoint x="2090" y="1682.41" as="targetPoint" />
            <Array as="points">
              <mxPoint x="1827" y="1580" />
            </Array>
          </mxGeometry>
        </mxCell>
        <mxCell id="xdEpOosHyWj6ykagDoDC-92" value="" style="endArrow=diamondThin;endFill=1;endSize=24;html=1;rounded=0;edgeStyle=orthogonalEdgeStyle;entryX=0.5;entryY=0;entryDx=0;entryDy=0;exitX=0.366;exitY=0.33;exitDx=0;exitDy=0;exitPerimeter=0;" parent="1" target="xdEpOosHyWj6ykagDoDC-7" edge="1">
          <mxGeometry width="160" relative="1" as="geometry">
            <mxPoint x="1558.5600000000004" y="1558.1399999999999" as="sourcePoint" />
            <mxPoint x="1810" y="1580" as="targetPoint" />
            <Array as="points">
              <mxPoint x="1560" y="1558" />
            </Array>
          </mxGeometry>
        </mxCell>
        <mxCell id="xdEpOosHyWj6ykagDoDC-96" value="" style="endArrow=block;endSize=16;endFill=0;html=1;rounded=0;edgeStyle=orthogonalEdgeStyle;exitX=0.5;exitY=0;exitDx=0;exitDy=0;" parent="1" source="VXNcRWfN4zNZ4ETa913i-43" edge="1">
          <mxGeometry x="0.4847" y="-70" width="160" relative="1" as="geometry">
            <mxPoint x="550" y="1620" as="sourcePoint" />
            <mxPoint x="760" y="1520" as="targetPoint" />
            <Array as="points">
              <mxPoint x="630" y="1600" />
              <mxPoint x="760" y="1600" />
              <mxPoint x="760" y="1555" />
            </Array>
            <mxPoint as="offset" />
          </mxGeometry>
        </mxCell>
        <mxCell id="xdEpOosHyWj6ykagDoDC-99" value="" style="endArrow=block;endSize=16;endFill=0;html=1;rounded=0;edgeStyle=orthogonalEdgeStyle;exitX=0.5;exitY=0;exitDx=0;exitDy=0;" parent="1" source="VXNcRWfN4zNZ4ETa913i-48" edge="1">
          <mxGeometry width="160" relative="1" as="geometry">
            <mxPoint x="910" y="1500" as="sourcePoint" />
            <mxPoint x="759" y="1520" as="targetPoint" />
            <Array as="points">
              <mxPoint x="840" y="1600" />
              <mxPoint x="759" y="1600" />
            </Array>
          </mxGeometry>
        </mxCell>
        <mxCell id="QKs4qBYW7GnzKIks0Z7w-29" value="Searcher" style="swimlane;fontStyle=3;align=center;verticalAlign=top;childLayout=stackLayout;horizontal=1;startSize=26;horizontalStack=0;resizeParent=1;resizeParentMax=0;resizeLast=0;collapsible=1;marginBottom=0;" parent="1" vertex="1">
          <mxGeometry x="4820" y="-246" width="300" height="120" as="geometry" />
        </mxCell>
        <mxCell id="ZLtzulAEG12qj5SxT5-5-42" value="Use" style="endArrow=open;endSize=12;dashed=1;html=1;rounded=0;edgeStyle=orthogonalEdgeStyle;" edge="1" parent="QKs4qBYW7GnzKIks0Z7w-29">
          <mxGeometry width="160" relative="1" as="geometry">
            <mxPoint y="36" as="sourcePoint" />
            <mxPoint x="-2340" y="326" as="targetPoint" />
            <Array as="points">
              <mxPoint x="-40" y="36" />
              <mxPoint x="-40" y="-44" />
              <mxPoint x="-2340" y="-44" />
            </Array>
          </mxGeometry>
        </mxCell>
        <mxCell id="3ZD-ds__CDtL9bY-RWLM-22" value="+ lexiconManager: LexiconManager" style="text;whiteSpace=wrap;html=1;" parent="QKs4qBYW7GnzKIks0Z7w-29" vertex="1">
          <mxGeometry y="26" width="300" height="30" as="geometry" />
        </mxCell>
        <mxCell id="ZLtzulAEG12qj5SxT5-5-43" value="Use" style="endArrow=open;endSize=12;dashed=1;html=1;rounded=0;edgeStyle=orthogonalEdgeStyle;entryX=1;entryY=0.5;entryDx=0;entryDy=0;" edge="1" parent="QKs4qBYW7GnzKIks0Z7w-29" target="UL4YKMBXZopJeCdpC2au-59">
          <mxGeometry width="160" relative="1" as="geometry">
            <mxPoint y="66" as="sourcePoint" />
            <mxPoint x="-3480" y="296" as="targetPoint" />
            <Array as="points">
              <mxPoint x="-70" y="66" />
              <mxPoint x="-70" y="-44" />
              <mxPoint x="-3120" y="-44" />
              <mxPoint x="-3120" y="330" />
            </Array>
          </mxGeometry>
        </mxCell>
        <mxCell id="3ZD-ds__CDtL9bY-RWLM-25" value="+ dataServerConnection: ServerManager" style="text;whiteSpace=wrap;html=1;" parent="QKs4qBYW7GnzKIks0Z7w-29" vertex="1">
          <mxGeometry y="56" width="300" height="30" as="geometry" />
        </mxCell>
        <mxCell id="yS8y4EqdHsvdQgxTJSFS-51" value="" style="line;strokeWidth=1;fillColor=none;align=left;verticalAlign=middle;spacingTop=-1;spacingLeft=3;spacingRight=3;rotatable=0;labelPosition=right;points=[];portConstraint=eastwest;" parent="QKs4qBYW7GnzKIks0Z7w-29" vertex="1">
          <mxGeometry y="86" width="300" height="8" as="geometry" />
        </mxCell>
        <mxCell id="j_Ctqi_ZfGnduSrjhimz-65" value="+ search(request: SearchRequest): JSON" style="text;strokeColor=none;fillColor=none;align=left;verticalAlign=top;spacingLeft=4;spacingRight=4;overflow=hidden;rotatable=0;points=[[0,0.5],[1,0.5]];portConstraint=eastwest;" parent="QKs4qBYW7GnzKIks0Z7w-29" vertex="1">
          <mxGeometry y="94" width="300" height="26" as="geometry" />
        </mxCell>
        <mxCell id="QKs4qBYW7GnzKIks0Z7w-33" value="VoiceSearcher" style="swimlane;fontStyle=1;align=center;verticalAlign=top;childLayout=stackLayout;horizontal=1;startSize=26;horizontalStack=0;resizeParent=1;resizeParentMax=0;resizeLast=0;collapsible=1;marginBottom=0;" parent="1" vertex="1">
          <mxGeometry x="4195" y="-14" width="355" height="60" as="geometry" />
        </mxCell>
        <mxCell id="QKs4qBYW7GnzKIks0Z7w-35" value="" style="line;strokeWidth=1;fillColor=none;align=left;verticalAlign=middle;spacingTop=-1;spacingLeft=3;spacingRight=3;rotatable=0;labelPosition=right;points=[];portConstraint=eastwest;" parent="QKs4qBYW7GnzKIks0Z7w-33" vertex="1">
          <mxGeometry y="26" width="355" height="8" as="geometry" />
        </mxCell>
        <mxCell id="QKs4qBYW7GnzKIks0Z7w-36" value="+ search(request: VoiceSearchRequest): VoiceSearchResponse" style="text;strokeColor=none;fillColor=none;align=left;verticalAlign=top;spacingLeft=4;spacingRight=4;overflow=hidden;rotatable=0;points=[[0,0.5],[1,0.5]];portConstraint=eastwest;" parent="QKs4qBYW7GnzKIks0Z7w-33" vertex="1">
          <mxGeometry y="34" width="355" height="26" as="geometry" />
        </mxCell>
        <mxCell id="QKs4qBYW7GnzKIks0Z7w-37" value="StringSearcher" style="swimlane;fontStyle=1;align=center;verticalAlign=top;childLayout=stackLayout;horizontal=1;startSize=26;horizontalStack=0;resizeParent=1;resizeParentMax=0;resizeLast=0;collapsible=1;marginBottom=0;" parent="1" vertex="1">
          <mxGeometry x="4685" y="-16" width="435" height="60" as="geometry" />
        </mxCell>
        <mxCell id="QKs4qBYW7GnzKIks0Z7w-39" value="" style="line;strokeWidth=1;fillColor=none;align=left;verticalAlign=middle;spacingTop=-1;spacingLeft=3;spacingRight=3;rotatable=0;labelPosition=right;points=[];portConstraint=eastwest;" parent="QKs4qBYW7GnzKIks0Z7w-37" vertex="1">
          <mxGeometry y="26" width="435" height="8" as="geometry" />
        </mxCell>
        <mxCell id="QKs4qBYW7GnzKIks0Z7w-40" value="+ search(request: StringSearchRequest): StringSearchResponse" style="text;strokeColor=none;fillColor=none;align=left;verticalAlign=top;spacingLeft=4;spacingRight=4;overflow=hidden;rotatable=0;points=[[0,0.5],[1,0.5]];portConstraint=eastwest;" parent="QKs4qBYW7GnzKIks0Z7w-37" vertex="1">
          <mxGeometry y="34" width="435" height="26" as="geometry" />
        </mxCell>
        <mxCell id="QKs4qBYW7GnzKIks0Z7w-41" value="ImageSearcher" style="swimlane;fontStyle=1;align=center;verticalAlign=top;childLayout=stackLayout;horizontal=1;startSize=26;horizontalStack=0;resizeParent=1;resizeParentMax=0;resizeLast=0;collapsible=1;marginBottom=0;" parent="1" vertex="1">
          <mxGeometry x="5280" y="-16" width="410" height="60" as="geometry" />
        </mxCell>
        <mxCell id="QKs4qBYW7GnzKIks0Z7w-43" value="" style="line;strokeWidth=1;fillColor=none;align=left;verticalAlign=middle;spacingTop=-1;spacingLeft=3;spacingRight=3;rotatable=0;labelPosition=right;points=[];portConstraint=eastwest;" parent="QKs4qBYW7GnzKIks0Z7w-41" vertex="1">
          <mxGeometry y="26" width="410" height="8" as="geometry" />
        </mxCell>
        <mxCell id="QKs4qBYW7GnzKIks0Z7w-44" value="+ search(request: ImageSearchRequest): ImageSearchResponse" style="text;strokeColor=none;fillColor=none;align=left;verticalAlign=top;spacingLeft=4;spacingRight=4;overflow=hidden;rotatable=0;points=[[0,0.5],[1,0.5]];portConstraint=eastwest;" parent="QKs4qBYW7GnzKIks0Z7w-41" vertex="1">
          <mxGeometry y="34" width="410" height="26" as="geometry" />
        </mxCell>
        <mxCell id="QKs4qBYW7GnzKIks0Z7w-45" value="" style="endArrow=block;endSize=16;endFill=0;html=1;rounded=0;edgeStyle=orthogonalEdgeStyle;exitX=0.5;exitY=0;exitDx=0;exitDy=0;entryX=0.461;entryY=1.141;entryDx=0;entryDy=0;entryPerimeter=0;" parent="1" source="QKs4qBYW7GnzKIks0Z7w-33" target="j_Ctqi_ZfGnduSrjhimz-65" edge="1">
          <mxGeometry width="160" relative="1" as="geometry">
            <mxPoint x="4255" y="-50" as="sourcePoint" />
            <mxPoint x="4590" y="-148" as="targetPoint" />
            <Array as="points">
              <mxPoint x="4373" y="-70" />
              <mxPoint x="4958" y="-70" />
            </Array>
          </mxGeometry>
        </mxCell>
        <mxCell id="QKs4qBYW7GnzKIks0Z7w-47" value="" style="endArrow=block;endSize=16;endFill=0;html=1;rounded=0;edgeStyle=orthogonalEdgeStyle;exitX=0.5;exitY=0;exitDx=0;exitDy=0;entryX=0.466;entryY=1.141;entryDx=0;entryDy=0;entryPerimeter=0;" parent="1" source="QKs4qBYW7GnzKIks0Z7w-37" target="j_Ctqi_ZfGnduSrjhimz-65" edge="1">
          <mxGeometry width="160" relative="1" as="geometry">
            <mxPoint x="4285" y="-4" as="sourcePoint" />
            <mxPoint x="4960" y="-100" as="targetPoint" />
            <Array as="points">
              <mxPoint x="4903" y="-70" />
              <mxPoint x="4960" y="-70" />
            </Array>
          </mxGeometry>
        </mxCell>
        <mxCell id="QKs4qBYW7GnzKIks0Z7w-48" value="" style="endArrow=block;endSize=16;endFill=0;html=1;rounded=0;edgeStyle=orthogonalEdgeStyle;exitX=0.5;exitY=0;exitDx=0;exitDy=0;entryX=0.474;entryY=1.09;entryDx=0;entryDy=0;entryPerimeter=0;" parent="1" source="QKs4qBYW7GnzKIks0Z7w-41" target="j_Ctqi_ZfGnduSrjhimz-65" edge="1">
          <mxGeometry width="160" relative="1" as="geometry">
            <mxPoint x="4285" y="-4" as="sourcePoint" />
            <mxPoint x="4960" y="-100" as="targetPoint" />
            <Array as="points">
              <mxPoint x="5485" y="-70" />
              <mxPoint x="4962" y="-70" />
            </Array>
          </mxGeometry>
        </mxCell>
        <mxCell id="QKs4qBYW7GnzKIks0Z7w-52" value="Client" style="swimlane;fontStyle=1;align=center;verticalAlign=top;childLayout=stackLayout;horizontal=1;startSize=26;horizontalStack=0;resizeParent=1;resizeParentMax=0;resizeLast=0;collapsible=1;marginBottom=0;" parent="1" vertex="1">
          <mxGeometry x="6460" y="690" width="350" height="160" as="geometry">
            <mxRectangle x="2900" y="820" width="70" height="26" as="alternateBounds" />
          </mxGeometry>
        </mxCell>
        <mxCell id="ZLtzulAEG12qj5SxT5-5-27" value="Use" style="endArrow=open;endSize=12;dashed=1;html=1;rounded=0;edgeStyle=orthogonalEdgeStyle;entryX=1;entryY=0.133;entryDx=0;entryDy=0;entryPerimeter=0;" edge="1" parent="QKs4qBYW7GnzKIks0Z7w-52" target="yS8y4EqdHsvdQgxTJSFS-74">
          <mxGeometry width="160" relative="1" as="geometry">
            <mxPoint y="40" as="sourcePoint" />
            <mxPoint x="160" y="40" as="targetPoint" />
            <Array as="points">
              <mxPoint x="-130" y="40" />
              <mxPoint x="-130" y="-210" />
              <mxPoint x="-470" y="-210" />
              <mxPoint x="-470" y="-410" />
            </Array>
          </mxGeometry>
        </mxCell>
        <mxCell id="QKs4qBYW7GnzKIks0Z7w-53" value="+ searchRequestController: SearchRequestController&#xa;+ pageVisitController: PageVisitController" style="text;strokeColor=none;fillColor=none;align=left;verticalAlign=top;spacingLeft=4;spacingRight=4;overflow=hidden;rotatable=0;points=[[0,0.5],[1,0.5]];portConstraint=eastwest;" parent="QKs4qBYW7GnzKIks0Z7w-52" vertex="1">
          <mxGeometry y="26" width="350" height="54" as="geometry" />
        </mxCell>
        <mxCell id="QKs4qBYW7GnzKIks0Z7w-54" value="" style="line;strokeWidth=1;fillColor=none;align=left;verticalAlign=middle;spacingTop=-1;spacingLeft=3;spacingRight=3;rotatable=0;labelPosition=right;points=[];portConstraint=eastwest;" parent="QKs4qBYW7GnzKIks0Z7w-52" vertex="1">
          <mxGeometry y="80" width="350" height="20" as="geometry" />
        </mxCell>
        <mxCell id="QKs4qBYW7GnzKIks0Z7w-55" value="+ performSearch(): SearchResponse&#xa;+ askSEOSuggestions(): SearchResponse&#xa;+ goToSite(): SearchResponse" style="text;strokeColor=none;fillColor=none;align=left;verticalAlign=top;spacingLeft=4;spacingRight=4;overflow=hidden;rotatable=0;points=[[0,0.5],[1,0.5]];portConstraint=eastwest;" parent="QKs4qBYW7GnzKIks0Z7w-52" vertex="1">
          <mxGeometry y="100" width="350" height="60" as="geometry" />
        </mxCell>
        <mxCell id="ulZ0jbCKSlaguCblbPYP-9" value="" style="endArrow=open;html=1;endSize=12;startArrow=diamondThin;startSize=14;startFill=1;edgeStyle=orthogonalEdgeStyle;align=left;verticalAlign=bottom;" parent="1" source="B37MmopoNUqpj75_Dg1A-53" edge="1">
          <mxGeometry x="-0.1519" y="80" relative="1" as="geometry">
            <mxPoint x="530" y="1160" as="sourcePoint" />
            <mxPoint x="530" y="1345" as="targetPoint" />
            <Array as="points">
              <mxPoint x="530" y="1190" />
              <mxPoint x="530" y="1190" />
            </Array>
            <mxPoint as="offset" />
          </mxGeometry>
        </mxCell>
        <mxCell id="ulZ0jbCKSlaguCblbPYP-10" value="" style="endArrow=open;html=1;endSize=12;startArrow=diamondThin;startSize=14;startFill=1;edgeStyle=orthogonalEdgeStyle;align=left;verticalAlign=bottom;entryX=0.25;entryY=0;entryDx=0;entryDy=0;" parent="1" target="VXNcRWfN4zNZ4ETa913i-38" edge="1">
          <mxGeometry x="-1" y="3" relative="1" as="geometry">
            <mxPoint x="620" y="1400" as="sourcePoint" />
            <mxPoint x="780" y="1400" as="targetPoint" />
          </mxGeometry>
        </mxCell>
        <mxCell id="ulZ0jbCKSlaguCblbPYP-11" value="" style="endArrow=open;html=1;endSize=12;startArrow=diamondThin;startSize=14;startFill=1;edgeStyle=orthogonalEdgeStyle;align=left;verticalAlign=bottom;entryX=0.5;entryY=0;entryDx=0;entryDy=0;" parent="1" target="VXNcRWfN4zNZ4ETa913i-38" edge="1" source="X9t2nn5iT1wmEAKBCxQw-53">
          <mxGeometry x="-1" y="3" relative="1" as="geometry">
            <mxPoint x="760" y="1320" as="sourcePoint" />
            <mxPoint x="920" y="1320" as="targetPoint" />
            <Array as="points">
              <mxPoint x="760" y="1320" />
              <mxPoint x="760" y="1320" />
            </Array>
          </mxGeometry>
        </mxCell>
        <mxCell id="ulZ0jbCKSlaguCblbPYP-12" value="" style="endArrow=open;html=1;endSize=12;startArrow=diamondThin;startSize=14;startFill=1;edgeStyle=orthogonalEdgeStyle;align=left;verticalAlign=bottom;entryX=0.5;entryY=0;entryDx=0;entryDy=0;" parent="1" target="X9t2nn5iT1wmEAKBCxQw-51" edge="1">
          <mxGeometry x="0.6" y="130" relative="1" as="geometry">
            <mxPoint x="770" y="1070" as="sourcePoint" />
            <mxPoint x="930" y="1150" as="targetPoint" />
            <mxPoint as="offset" />
            <Array as="points">
              <mxPoint x="770" y="1110" />
              <mxPoint x="770" y="1110" />
            </Array>
          </mxGeometry>
        </mxCell>
        <mxCell id="ulZ0jbCKSlaguCblbPYP-13" value="Use" style="endArrow=open;endSize=12;dashed=1;html=1;exitX=0;exitY=0.5;exitDx=0;exitDy=0;entryX=1;entryY=0.5;entryDx=0;entryDy=0;" parent="1" source="X9t2nn5iT1wmEAKBCxQw-65" target="X9t2nn5iT1wmEAKBCxQw-26" edge="1">
          <mxGeometry x="0.618" y="-13" width="160" relative="1" as="geometry">
            <mxPoint x="830" y="650" as="sourcePoint" />
            <mxPoint x="990" y="650" as="targetPoint" />
            <Array as="points">
              <mxPoint x="1055" y="780" />
              <mxPoint x="900" y="780" />
              <mxPoint x="760" y="780" />
              <mxPoint x="760" y="823" />
            </Array>
            <mxPoint as="offset" />
          </mxGeometry>
        </mxCell>
        <mxCell id="ulZ0jbCKSlaguCblbPYP-15" value="" style="endArrow=open;endFill=1;endSize=12;html=1;" parent="1" edge="1">
          <mxGeometry width="160" relative="1" as="geometry">
            <mxPoint x="2220" y="1060" as="sourcePoint" />
            <mxPoint x="2280" y="1020" as="targetPoint" />
            <Array as="points">
              <mxPoint x="2280" y="1060" />
            </Array>
          </mxGeometry>
        </mxCell>
        <mxCell id="ulZ0jbCKSlaguCblbPYP-37" value="" style="endArrow=block;endSize=16;endFill=0;html=1;" parent="1" edge="1">
          <mxGeometry x="0.3515" y="300" width="160" relative="1" as="geometry">
            <mxPoint x="1830" y="1700" as="sourcePoint" />
            <mxPoint x="2850" y="1060" as="targetPoint" />
            <Array as="points">
              <mxPoint x="1830" y="1850" />
              <mxPoint x="3200" y="1860" />
              <mxPoint x="3200" y="1460" />
              <mxPoint x="3200" y="1060" />
            </Array>
            <mxPoint as="offset" />
          </mxGeometry>
        </mxCell>
        <mxCell id="ulZ0jbCKSlaguCblbPYP-38" value="" style="endArrow=block;endSize=16;endFill=0;html=1;" parent="1" edge="1">
          <mxGeometry x="-0.0761" y="425" width="160" relative="1" as="geometry">
            <mxPoint x="1560" y="1710" as="sourcePoint" />
            <mxPoint x="2850" y="1030" as="targetPoint" />
            <Array as="points">
              <mxPoint x="1560" y="1790" />
              <mxPoint x="1560" y="1960" />
              <mxPoint x="3240" y="1960" />
              <mxPoint x="3240" y="1480" />
              <mxPoint x="3240" y="1030" />
            </Array>
            <mxPoint as="offset" />
          </mxGeometry>
        </mxCell>
        <mxCell id="ulZ0jbCKSlaguCblbPYP-39" value="" style="endArrow=block;endSize=16;endFill=0;html=1;exitX=0.5;exitY=1;exitDx=0;exitDy=0;" parent="1" source="ZvxXPG6ARuYnSKrhNRSG-1" edge="1">
          <mxGeometry x="0.2941" y="200" width="160" relative="1" as="geometry">
            <mxPoint x="2080" y="1600" as="sourcePoint" />
            <mxPoint x="2850" y="1100" as="targetPoint" />
            <Array as="points">
              <mxPoint x="2080" y="1760" />
              <mxPoint x="3160" y="1760" />
              <mxPoint x="3160" y="1100" />
            </Array>
            <mxPoint as="offset" />
          </mxGeometry>
        </mxCell>
        <mxCell id="ulZ0jbCKSlaguCblbPYP-46" value="" style="endArrow=block;endSize=16;endFill=0;html=1;exitX=0.5;exitY=0;exitDx=0;exitDy=0;" parent="1" edge="1">
          <mxGeometry width="160" relative="1" as="geometry">
            <mxPoint x="1107" y="1366" as="sourcePoint" />
            <mxPoint x="1760" y="1280" as="targetPoint" />
            <Array as="points">
              <mxPoint x="1107" y="1320" />
              <mxPoint x="1760" y="1320" />
            </Array>
          </mxGeometry>
        </mxCell>
        <mxCell id="nHTIsOpt5-FmUogmospr-4" value="CompressedDocument" style="html=1;align=center;fontStyle=3" parent="1" vertex="1">
          <mxGeometry x="285" y="490" width="140" height="50" as="geometry" />
        </mxCell>
        <mxCell id="nHTIsOpt5-FmUogmospr-5" value="Use" style="endArrow=open;endSize=12;dashed=1;html=1;rounded=0;edgeStyle=orthogonalEdgeStyle;entryX=0;entryY=0.5;entryDx=0;entryDy=0;" parent="1" target="nHTIsOpt5-FmUogmospr-4" edge="1">
          <mxGeometry width="160" relative="1" as="geometry">
            <mxPoint x="240" y="460" as="sourcePoint" />
            <mxPoint x="240" y="560" as="targetPoint" />
            <Array as="points">
              <mxPoint x="240" y="515" />
            </Array>
          </mxGeometry>
        </mxCell>
        <mxCell id="nHTIsOpt5-FmUogmospr-13" value="" style="endArrow=diamondThin;endFill=0;endSize=24;html=1;rounded=0;edgeStyle=orthogonalEdgeStyle;entryX=0.25;entryY=0;entryDx=0;entryDy=0;exitX=0.5;exitY=1;exitDx=0;exitDy=0;" parent="1" source="vnPngC09RosFCxPqreI9-9" target="UL4YKMBXZopJeCdpC2au-59" edge="1">
          <mxGeometry width="160" relative="1" as="geometry">
            <mxPoint x="919.6800000000003" y="-78.80400000000009" as="sourcePoint" />
            <mxPoint x="1110" y="-20" as="targetPoint" />
            <Array as="points">
              <mxPoint x="920" y="-10" />
              <mxPoint x="1077" y="-10" />
            </Array>
          </mxGeometry>
        </mxCell>
        <mxCell id="nHTIsOpt5-FmUogmospr-14" value="" style="endArrow=diamondThin;endFill=0;endSize=24;html=1;rounded=0;edgeStyle=orthogonalEdgeStyle;exitX=0.5;exitY=1;exitDx=0;exitDy=0;entryX=0.25;entryY=0;entryDx=0;entryDy=0;" parent="1" source="vnPngC09RosFCxPqreI9-13" target="UL4YKMBXZopJeCdpC2au-59" edge="1">
          <mxGeometry width="160" relative="1" as="geometry">
            <mxPoint x="1226.8000000000002" y="-59.99800000000005" as="sourcePoint" />
            <mxPoint x="1080" y="44" as="targetPoint" />
            <Array as="points">
              <mxPoint x="1227" y="-94" />
              <mxPoint x="1227" y="-10" />
              <mxPoint x="1077" y="-10" />
            </Array>
          </mxGeometry>
        </mxCell>
        <mxCell id="nHTIsOpt5-FmUogmospr-15" value="Use" style="endArrow=open;endSize=12;dashed=1;html=1;rounded=0;edgeStyle=orthogonalEdgeStyle;entryX=0.458;entryY=0;entryDx=0;entryDy=0;entryPerimeter=0;" parent="1" edge="1">
          <mxGeometry width="160" relative="1" as="geometry">
            <mxPoint x="1990" y="860" as="sourcePoint" />
            <mxPoint x="1633.2800000000002" y="980" as="targetPoint" />
          </mxGeometry>
        </mxCell>
        <mxCell id="nHTIsOpt5-FmUogmospr-16" value="htmlElement" style="html=1;align=center;fontStyle=1" parent="1" vertex="1">
          <mxGeometry x="1580" y="976" width="110" height="50" as="geometry" />
        </mxCell>
        <mxCell id="j_Ctqi_ZfGnduSrjhimz-10" value="VoiceSearchValidator" style="swimlane;fontStyle=1;align=center;verticalAlign=top;childLayout=stackLayout;horizontal=1;startSize=26;horizontalStack=0;resizeParent=1;resizeParentMax=0;resizeLast=0;collapsible=1;marginBottom=0;" parent="1" vertex="1">
          <mxGeometry x="5770" y="-14" width="350" height="60" as="geometry" />
        </mxCell>
        <mxCell id="j_Ctqi_ZfGnduSrjhimz-12" value="" style="line;strokeWidth=1;fillColor=none;align=left;verticalAlign=middle;spacingTop=-1;spacingLeft=3;spacingRight=3;rotatable=0;labelPosition=right;points=[];portConstraint=eastwest;" parent="j_Ctqi_ZfGnduSrjhimz-10" vertex="1">
          <mxGeometry y="26" width="350" height="8" as="geometry" />
        </mxCell>
        <mxCell id="j_Ctqi_ZfGnduSrjhimz-13" value="validate(request: VoiceSearchRequest): VoiceSearchRequest" style="text;strokeColor=none;fillColor=none;align=left;verticalAlign=top;spacingLeft=4;spacingRight=4;overflow=hidden;rotatable=0;points=[[0,0.5],[1,0.5]];portConstraint=eastwest;" parent="j_Ctqi_ZfGnduSrjhimz-10" vertex="1">
          <mxGeometry y="34" width="350" height="26" as="geometry" />
        </mxCell>
        <mxCell id="j_Ctqi_ZfGnduSrjhimz-14" value="StringSearchValidator" style="swimlane;fontStyle=1;align=center;verticalAlign=top;childLayout=stackLayout;horizontal=1;startSize=26;horizontalStack=0;resizeParent=1;resizeParentMax=0;resizeLast=0;collapsible=1;marginBottom=0;" parent="1" vertex="1">
          <mxGeometry x="6260" y="-14" width="340" height="60" as="geometry" />
        </mxCell>
        <mxCell id="j_Ctqi_ZfGnduSrjhimz-16" value="" style="line;strokeWidth=1;fillColor=none;align=left;verticalAlign=middle;spacingTop=-1;spacingLeft=3;spacingRight=3;rotatable=0;labelPosition=right;points=[];portConstraint=eastwest;" parent="j_Ctqi_ZfGnduSrjhimz-14" vertex="1">
          <mxGeometry y="26" width="340" height="8" as="geometry" />
        </mxCell>
        <mxCell id="j_Ctqi_ZfGnduSrjhimz-17" value="validate(request: VoiceSearchRequest): VoiceSearchRequest" style="text;strokeColor=none;fillColor=none;align=left;verticalAlign=top;spacingLeft=4;spacingRight=4;overflow=hidden;rotatable=0;points=[[0,0.5],[1,0.5]];portConstraint=eastwest;" parent="j_Ctqi_ZfGnduSrjhimz-14" vertex="1">
          <mxGeometry y="34" width="340" height="26" as="geometry" />
        </mxCell>
        <mxCell id="j_Ctqi_ZfGnduSrjhimz-18" value="ImageSearchValidator" style="swimlane;fontStyle=1;align=center;verticalAlign=top;childLayout=stackLayout;horizontal=1;startSize=26;horizontalStack=0;resizeParent=1;resizeParentMax=0;resizeLast=0;collapsible=1;marginBottom=0;" parent="1" vertex="1">
          <mxGeometry x="6700" y="-14" width="380" height="60" as="geometry" />
        </mxCell>
        <mxCell id="j_Ctqi_ZfGnduSrjhimz-20" value="" style="line;strokeWidth=1;fillColor=none;align=left;verticalAlign=middle;spacingTop=-1;spacingLeft=3;spacingRight=3;rotatable=0;labelPosition=right;points=[];portConstraint=eastwest;" parent="j_Ctqi_ZfGnduSrjhimz-18" vertex="1">
          <mxGeometry y="26" width="380" height="8" as="geometry" />
        </mxCell>
        <mxCell id="j_Ctqi_ZfGnduSrjhimz-21" value="validate(request: VoiceSearchRequest): VoiceSearchRequest" style="text;strokeColor=none;fillColor=none;align=left;verticalAlign=top;spacingLeft=4;spacingRight=4;overflow=hidden;rotatable=0;points=[[0,0.5],[1,0.5]];portConstraint=eastwest;" parent="j_Ctqi_ZfGnduSrjhimz-18" vertex="1">
          <mxGeometry y="34" width="380" height="26" as="geometry" />
        </mxCell>
        <mxCell id="j_Ctqi_ZfGnduSrjhimz-22" value="" style="endArrow=block;endSize=16;endFill=0;html=1;rounded=0;edgeStyle=orthogonalEdgeStyle;exitX=0.5;exitY=0;exitDx=0;exitDy=0;entryX=0.5;entryY=1.038;entryDx=0;entryDy=0;entryPerimeter=0;" parent="1" source="j_Ctqi_ZfGnduSrjhimz-10" edge="1" target="j_Ctqi_ZfGnduSrjhimz-44">
          <mxGeometry width="160" relative="1" as="geometry">
            <mxPoint x="5930" y="-84" as="sourcePoint" />
            <mxPoint x="6201" y="-140" as="targetPoint" />
            <Array as="points">
              <mxPoint x="5945" y="-101" />
              <mxPoint x="6430" y="-101" />
            </Array>
          </mxGeometry>
        </mxCell>
        <mxCell id="j_Ctqi_ZfGnduSrjhimz-23" value="" style="endArrow=block;endSize=16;endFill=0;html=1;rounded=0;edgeStyle=orthogonalEdgeStyle;exitX=0.5;exitY=0;exitDx=0;exitDy=0;entryX=0.494;entryY=1.09;entryDx=0;entryDy=0;entryPerimeter=0;" parent="1" source="j_Ctqi_ZfGnduSrjhimz-14" edge="1" target="j_Ctqi_ZfGnduSrjhimz-44">
          <mxGeometry width="160" relative="1" as="geometry">
            <mxPoint x="5960" y="-38" as="sourcePoint" />
            <mxPoint x="6200" y="-140" as="targetPoint" />
            <Array as="points">
              <mxPoint x="6430" y="-100" />
              <mxPoint x="6428" y="-100" />
            </Array>
          </mxGeometry>
        </mxCell>
        <mxCell id="j_Ctqi_ZfGnduSrjhimz-24" value="" style="endArrow=block;endSize=16;endFill=0;html=1;rounded=0;edgeStyle=orthogonalEdgeStyle;exitX=0.5;exitY=0;exitDx=0;exitDy=0;entryX=0.494;entryY=1.141;entryDx=0;entryDy=0;entryPerimeter=0;" parent="1" source="j_Ctqi_ZfGnduSrjhimz-18" edge="1" target="j_Ctqi_ZfGnduSrjhimz-44">
          <mxGeometry width="160" relative="1" as="geometry">
            <mxPoint x="5960" y="-38" as="sourcePoint" />
            <mxPoint x="6200" y="-140" as="targetPoint" />
            <Array as="points">
              <mxPoint x="6890" y="-101" />
              <mxPoint x="6428" y="-101" />
            </Array>
          </mxGeometry>
        </mxCell>
        <mxCell id="j_Ctqi_ZfGnduSrjhimz-41" value="RequestValidator" style="swimlane;fontStyle=1;align=center;verticalAlign=top;childLayout=stackLayout;horizontal=1;startSize=26;horizontalStack=0;resizeParent=1;resizeParentMax=0;resizeLast=0;collapsible=1;marginBottom=0;" parent="1" vertex="1">
          <mxGeometry x="6260" y="-246" width="340" height="114" as="geometry" />
        </mxCell>
        <mxCell id="3ZD-ds__CDtL9bY-RWLM-29" value="+ dataServerConnection: ServerManager" style="text;strokeColor=none;fillColor=none;align=left;verticalAlign=top;spacingLeft=4;spacingRight=4;overflow=hidden;rotatable=0;points=[[0,0.5],[1,0.5]];portConstraint=eastwest;" parent="j_Ctqi_ZfGnduSrjhimz-41" vertex="1">
          <mxGeometry y="26" width="340" height="26" as="geometry" />
        </mxCell>
        <mxCell id="j_Ctqi_ZfGnduSrjhimz-42" value="+ lexiconManager: LexiconManager" style="text;strokeColor=none;fillColor=none;align=left;verticalAlign=top;spacingLeft=4;spacingRight=4;overflow=hidden;rotatable=0;points=[[0,0.5],[1,0.5]];portConstraint=eastwest;" parent="j_Ctqi_ZfGnduSrjhimz-41" vertex="1">
          <mxGeometry y="52" width="340" height="28" as="geometry" />
        </mxCell>
        <mxCell id="j_Ctqi_ZfGnduSrjhimz-43" value="" style="line;strokeWidth=1;fillColor=none;align=left;verticalAlign=middle;spacingTop=-1;spacingLeft=3;spacingRight=3;rotatable=0;labelPosition=right;points=[];portConstraint=eastwest;" parent="j_Ctqi_ZfGnduSrjhimz-41" vertex="1">
          <mxGeometry y="80" width="340" height="8" as="geometry" />
        </mxCell>
        <mxCell id="j_Ctqi_ZfGnduSrjhimz-44" value="validate(request: SearchRequest): SearchRequest" style="text;strokeColor=none;fillColor=none;align=left;verticalAlign=top;spacingLeft=4;spacingRight=4;overflow=hidden;rotatable=0;points=[[0,0.5],[1,0.5]];portConstraint=eastwest;" parent="j_Ctqi_ZfGnduSrjhimz-41" vertex="1">
          <mxGeometry y="88" width="340" height="26" as="geometry" />
        </mxCell>
        <mxCell id="j_Ctqi_ZfGnduSrjhimz-46" value="VoiceSearchAnalytics" style="swimlane;fontStyle=1;align=center;verticalAlign=top;childLayout=stackLayout;horizontal=1;startSize=26;horizontalStack=0;resizeParent=1;resizeParentMax=0;resizeLast=0;collapsible=1;marginBottom=0;" parent="1" vertex="1">
          <mxGeometry x="3000" y="-12" width="290" height="60" as="geometry" />
        </mxCell>
        <mxCell id="j_Ctqi_ZfGnduSrjhimz-48" value="" style="line;strokeWidth=1;fillColor=none;align=left;verticalAlign=middle;spacingTop=-1;spacingLeft=3;spacingRight=3;rotatable=0;labelPosition=right;points=[];portConstraint=eastwest;" parent="j_Ctqi_ZfGnduSrjhimz-46" vertex="1">
          <mxGeometry y="26" width="290" height="8" as="geometry" />
        </mxCell>
        <mxCell id="j_Ctqi_ZfGnduSrjhimz-49" value="gatherAnalytics(request: VoiceSearchRequest): void" style="text;strokeColor=none;fillColor=none;align=left;verticalAlign=top;spacingLeft=4;spacingRight=4;overflow=hidden;rotatable=0;points=[[0,0.5],[1,0.5]];portConstraint=eastwest;" parent="j_Ctqi_ZfGnduSrjhimz-46" vertex="1">
          <mxGeometry y="34" width="290" height="26" as="geometry" />
        </mxCell>
        <mxCell id="j_Ctqi_ZfGnduSrjhimz-50" value="StringSearchAnalytics" style="swimlane;fontStyle=1;align=center;verticalAlign=top;childLayout=stackLayout;horizontal=1;startSize=26;horizontalStack=0;resizeParent=1;resizeParentMax=0;resizeLast=0;collapsible=1;marginBottom=0;" parent="1" vertex="1">
          <mxGeometry x="3340" y="-12" width="360" height="60" as="geometry" />
        </mxCell>
        <mxCell id="j_Ctqi_ZfGnduSrjhimz-52" value="" style="line;strokeWidth=1;fillColor=none;align=left;verticalAlign=middle;spacingTop=-1;spacingLeft=3;spacingRight=3;rotatable=0;labelPosition=right;points=[];portConstraint=eastwest;" parent="j_Ctqi_ZfGnduSrjhimz-50" vertex="1">
          <mxGeometry y="26" width="360" height="8" as="geometry" />
        </mxCell>
        <mxCell id="j_Ctqi_ZfGnduSrjhimz-53" value="gatherAnalytics(request: StringSearchRequest): void" style="text;strokeColor=none;fillColor=none;align=left;verticalAlign=top;spacingLeft=4;spacingRight=4;overflow=hidden;rotatable=0;points=[[0,0.5],[1,0.5]];portConstraint=eastwest;" parent="j_Ctqi_ZfGnduSrjhimz-50" vertex="1">
          <mxGeometry y="34" width="360" height="26" as="geometry" />
        </mxCell>
        <mxCell id="j_Ctqi_ZfGnduSrjhimz-54" value="ImageSearchAnalytics" style="swimlane;fontStyle=1;align=center;verticalAlign=top;childLayout=stackLayout;horizontal=1;startSize=26;horizontalStack=0;resizeParent=1;resizeParentMax=0;resizeLast=0;collapsible=1;marginBottom=0;" parent="1" vertex="1">
          <mxGeometry x="3760" y="-14" width="390" height="60" as="geometry" />
        </mxCell>
        <mxCell id="j_Ctqi_ZfGnduSrjhimz-56" value="" style="line;strokeWidth=1;fillColor=none;align=left;verticalAlign=middle;spacingTop=-1;spacingLeft=3;spacingRight=3;rotatable=0;labelPosition=right;points=[];portConstraint=eastwest;" parent="j_Ctqi_ZfGnduSrjhimz-54" vertex="1">
          <mxGeometry y="26" width="390" height="8" as="geometry" />
        </mxCell>
        <mxCell id="j_Ctqi_ZfGnduSrjhimz-57" value="gatherAnalytics(request: ImageSearchRequest): void" style="text;strokeColor=none;fillColor=none;align=left;verticalAlign=top;spacingLeft=4;spacingRight=4;overflow=hidden;rotatable=0;points=[[0,0.5],[1,0.5]];portConstraint=eastwest;" parent="j_Ctqi_ZfGnduSrjhimz-54" vertex="1">
          <mxGeometry y="34" width="390" height="26" as="geometry" />
        </mxCell>
        <mxCell id="j_Ctqi_ZfGnduSrjhimz-58" value="" style="endArrow=block;endSize=16;endFill=0;html=1;rounded=0;edgeStyle=orthogonalEdgeStyle;exitX=0.5;exitY=0;exitDx=0;exitDy=0;entryX=0.497;entryY=1.115;entryDx=0;entryDy=0;entryPerimeter=0;" parent="1" source="j_Ctqi_ZfGnduSrjhimz-46" target="yS8y4EqdHsvdQgxTJSFS-50" edge="1">
          <mxGeometry width="160" relative="1" as="geometry">
            <mxPoint x="3620" y="-50" as="sourcePoint" />
            <mxPoint x="3850" y="-121" as="targetPoint" />
            <Array as="points">
              <mxPoint x="3145" y="-70" />
              <mxPoint x="3549" y="-70" />
            </Array>
          </mxGeometry>
        </mxCell>
        <mxCell id="j_Ctqi_ZfGnduSrjhimz-59" value="" style="endArrow=block;endSize=16;endFill=0;html=1;rounded=0;edgeStyle=orthogonalEdgeStyle;exitX=0.5;exitY=0;exitDx=0;exitDy=0;entryX=0.499;entryY=1.09;entryDx=0;entryDy=0;entryPerimeter=0;" parent="1" source="j_Ctqi_ZfGnduSrjhimz-50" target="yS8y4EqdHsvdQgxTJSFS-50" edge="1">
          <mxGeometry width="160" relative="1" as="geometry">
            <mxPoint x="3650" y="-4" as="sourcePoint" />
            <mxPoint x="3850.0588235294117" y="-120.99999999999977" as="targetPoint" />
            <Array as="points">
              <mxPoint x="3520" y="-70" />
              <mxPoint x="3550" y="-70" />
            </Array>
          </mxGeometry>
        </mxCell>
        <mxCell id="j_Ctqi_ZfGnduSrjhimz-60" value="" style="endArrow=block;endSize=16;endFill=0;html=1;rounded=0;edgeStyle=orthogonalEdgeStyle;exitX=0.5;exitY=0;exitDx=0;exitDy=0;entryX=0.497;entryY=1.115;entryDx=0;entryDy=0;entryPerimeter=0;" parent="1" source="j_Ctqi_ZfGnduSrjhimz-54" target="yS8y4EqdHsvdQgxTJSFS-50" edge="1">
          <mxGeometry width="160" relative="1" as="geometry">
            <mxPoint x="3650" y="-4" as="sourcePoint" />
            <mxPoint x="3920" y="-100" as="targetPoint" />
            <Array as="points">
              <mxPoint x="3955" y="-70" />
              <mxPoint x="3549" y="-70" />
            </Array>
          </mxGeometry>
        </mxCell>
        <mxCell id="yS8y4EqdHsvdQgxTJSFS-1" value="SearchEngine" style="swimlane;fontStyle=3;align=center;verticalAlign=top;childLayout=stackLayout;horizontal=1;startSize=26;horizontalStack=0;resizeParent=1;resizeParentMax=0;resizeLast=0;collapsible=1;marginBottom=0;" parent="1" vertex="1">
          <mxGeometry x="3870" y="580" width="300" height="114" as="geometry" />
        </mxCell>
        <mxCell id="yS8y4EqdHsvdQgxTJSFS-2" value="+ searcher: Searcher&#xa;+ validator: Validator&#xa;+ analytics: Analytics&#xa;" style="text;strokeColor=none;fillColor=none;align=left;verticalAlign=top;spacingLeft=4;spacingRight=4;overflow=hidden;rotatable=0;points=[[0,0.5],[1,0.5]];portConstraint=eastwest;" parent="yS8y4EqdHsvdQgxTJSFS-1" vertex="1">
          <mxGeometry y="26" width="300" height="50" as="geometry" />
        </mxCell>
        <mxCell id="yS8y4EqdHsvdQgxTJSFS-3" value="" style="line;strokeWidth=1;fillColor=none;align=left;verticalAlign=middle;spacingTop=-1;spacingLeft=3;spacingRight=3;rotatable=0;labelPosition=right;points=[];portConstraint=eastwest;" parent="yS8y4EqdHsvdQgxTJSFS-1" vertex="1">
          <mxGeometry y="76" width="300" height="8" as="geometry" />
        </mxCell>
        <mxCell id="yS8y4EqdHsvdQgxTJSFS-4" value="processSearchRequest()" style="text;strokeColor=none;fillColor=none;align=left;verticalAlign=top;spacingLeft=4;spacingRight=4;overflow=hidden;rotatable=0;points=[[0,0.5],[1,0.5]];portConstraint=eastwest;" parent="yS8y4EqdHsvdQgxTJSFS-1" vertex="1">
          <mxGeometry y="84" width="300" height="30" as="geometry" />
        </mxCell>
        <mxCell id="yS8y4EqdHsvdQgxTJSFS-5" value="ImageSearchEngine" style="swimlane;fontStyle=1;align=center;verticalAlign=top;childLayout=stackLayout;horizontal=1;startSize=26;horizontalStack=0;resizeParent=1;resizeParentMax=0;resizeLast=0;collapsible=1;marginBottom=0;" parent="1" vertex="1">
          <mxGeometry x="3510" y="246" width="160" height="34" as="geometry" />
        </mxCell>
        <mxCell id="yS8y4EqdHsvdQgxTJSFS-9" value="StringSearchEngine" style="swimlane;fontStyle=1;align=center;verticalAlign=top;childLayout=stackLayout;horizontal=1;startSize=26;horizontalStack=0;resizeParent=1;resizeParentMax=0;resizeLast=0;collapsible=1;marginBottom=0;" parent="1" vertex="1" collapsed="1">
          <mxGeometry x="3950" y="250" width="150" height="26" as="geometry">
            <mxRectangle x="3950" y="250" width="160" height="34" as="alternateBounds" />
          </mxGeometry>
        </mxCell>
        <mxCell id="yS8y4EqdHsvdQgxTJSFS-13" value="VoiceSearchEngine" style="swimlane;fontStyle=1;align=center;verticalAlign=top;childLayout=stackLayout;horizontal=1;startSize=26;horizontalStack=0;resizeParent=1;resizeParentMax=0;resizeLast=0;collapsible=1;marginBottom=0;" parent="1" vertex="1">
          <mxGeometry x="4510" y="248" width="160" height="34" as="geometry">
            <mxRectangle x="4510" y="248" width="140" height="26" as="alternateBounds" />
          </mxGeometry>
        </mxCell>
        <mxCell id="yS8y4EqdHsvdQgxTJSFS-74" value="SearchRequestController" style="swimlane;fontStyle=1;align=center;verticalAlign=top;childLayout=stackLayout;horizontal=1;startSize=26;horizontalStack=0;resizeParent=1;resizeParentMax=0;resizeLast=0;collapsible=1;marginBottom=0;" parent="1" vertex="1">
          <mxGeometry x="5130" y="260" width="390" height="150" as="geometry" />
        </mxCell>
        <mxCell id="yS8y4EqdHsvdQgxTJSFS-75" value="+ stringSearchEngine: StringSearchEngine" style="text;strokeColor=none;fillColor=none;align=left;verticalAlign=top;spacingLeft=4;spacingRight=4;overflow=hidden;rotatable=0;points=[[0,0.5],[1,0.5]];portConstraint=eastwest;" parent="yS8y4EqdHsvdQgxTJSFS-74" vertex="1">
          <mxGeometry y="26" width="390" height="26" as="geometry" />
        </mxCell>
        <mxCell id="yS8y4EqdHsvdQgxTJSFS-80" value="+ imageSearchEngine: ImageSearchEngine" style="text;strokeColor=none;fillColor=none;align=left;verticalAlign=top;spacingLeft=4;spacingRight=4;overflow=hidden;rotatable=0;points=[[0,0.5],[1,0.5]];portConstraint=eastwest;" parent="yS8y4EqdHsvdQgxTJSFS-74" vertex="1">
          <mxGeometry y="52" width="390" height="26" as="geometry" />
        </mxCell>
        <mxCell id="XZYUjsQZ5xRN_dGaFp_k-4" value="+ voiceSearchEngine: VoiceSearchEngine" style="text;strokeColor=none;fillColor=none;align=left;verticalAlign=top;spacingLeft=4;spacingRight=4;overflow=hidden;rotatable=0;points=[[0,0.5],[1,0.5]];portConstraint=eastwest;" parent="yS8y4EqdHsvdQgxTJSFS-74" vertex="1">
          <mxGeometry y="78" width="390" height="26" as="geometry" />
        </mxCell>
        <mxCell id="yS8y4EqdHsvdQgxTJSFS-76" value="" style="line;strokeWidth=1;fillColor=none;align=left;verticalAlign=middle;spacingTop=-1;spacingLeft=3;spacingRight=3;rotatable=0;labelPosition=right;points=[];portConstraint=eastwest;" parent="yS8y4EqdHsvdQgxTJSFS-74" vertex="1">
          <mxGeometry y="104" width="390" height="8" as="geometry" />
        </mxCell>
        <mxCell id="yS8y4EqdHsvdQgxTJSFS-77" value="+ handleSearchRequest(request: SearchRequest): SearchResponse" style="text;strokeColor=none;fillColor=none;align=left;verticalAlign=top;spacingLeft=4;spacingRight=4;overflow=hidden;rotatable=0;points=[[0,0.5],[1,0.5]];portConstraint=eastwest;" parent="yS8y4EqdHsvdQgxTJSFS-74" vertex="1">
          <mxGeometry y="112" width="390" height="38" as="geometry" />
        </mxCell>
        <mxCell id="yS8y4EqdHsvdQgxTJSFS-97" value="" style="endArrow=block;dashed=1;endFill=0;endSize=12;html=1;rounded=0;edgeStyle=orthogonalEdgeStyle;exitX=0.5;exitY=1;exitDx=0;exitDy=0;entryX=0.474;entryY=-0.009;entryDx=0;entryDy=0;entryPerimeter=0;" parent="1" source="yS8y4EqdHsvdQgxTJSFS-5" target="yS8y4EqdHsvdQgxTJSFS-1" edge="1">
          <mxGeometry width="160" relative="1" as="geometry">
            <mxPoint x="3650" y="500" as="sourcePoint" />
            <mxPoint x="3810" y="500" as="targetPoint" />
          </mxGeometry>
        </mxCell>
        <mxCell id="yS8y4EqdHsvdQgxTJSFS-98" value="" style="endArrow=block;dashed=1;endFill=0;endSize=12;html=1;rounded=0;edgeStyle=orthogonalEdgeStyle;entryX=0.539;entryY=-0.004;entryDx=0;entryDy=0;entryPerimeter=0;" parent="1" target="yS8y4EqdHsvdQgxTJSFS-1" edge="1">
          <mxGeometry width="160" relative="1" as="geometry">
            <mxPoint x="4032.0588235294117" y="284" as="sourcePoint" />
            <mxPoint x="4030" y="580" as="targetPoint" />
            <Array as="points">
              <mxPoint x="4032" y="530" />
              <mxPoint x="4032" y="530" />
            </Array>
          </mxGeometry>
        </mxCell>
        <mxCell id="yS8y4EqdHsvdQgxTJSFS-99" value="" style="endArrow=block;dashed=1;endFill=0;endSize=12;html=1;rounded=0;edgeStyle=orthogonalEdgeStyle;exitX=0.563;exitY=0.75;exitDx=0;exitDy=0;exitPerimeter=0;" parent="1" edge="1">
          <mxGeometry width="160" relative="1" as="geometry">
            <mxPoint x="4600.08" y="280" as="sourcePoint" />
            <mxPoint x="4050" y="580" as="targetPoint" />
            <Array as="points">
              <mxPoint x="4600" y="430" />
              <mxPoint x="4050" y="430" />
            </Array>
          </mxGeometry>
        </mxCell>
        <mxCell id="yS8y4EqdHsvdQgxTJSFS-136" value="" style="endArrow=open;endFill=1;endSize=12;html=1;rounded=0;edgeStyle=orthogonalEdgeStyle;exitX=1;exitY=0.5;exitDx=0;exitDy=0;entryX=0;entryY=0.5;entryDx=0;entryDy=0;" parent="1" source="QKs4qBYW7GnzKIks0Z7w-55" target="j1ZgMSjSYDwOwTBpWPhx-15" edge="1">
          <mxGeometry width="160" relative="1" as="geometry">
            <mxPoint x="3480" y="970" as="sourcePoint" />
            <mxPoint x="5193" y="720" as="targetPoint" />
            <Array as="points">
              <mxPoint x="6890" y="820" />
              <mxPoint x="6890" y="1370" />
              <mxPoint x="4390" y="1370" />
              <mxPoint x="4390" y="733" />
            </Array>
          </mxGeometry>
        </mxCell>
        <mxCell id="yS8y4EqdHsvdQgxTJSFS-140" value="" style="endArrow=open;endFill=1;endSize=12;html=1;rounded=0;edgeStyle=orthogonalEdgeStyle;exitX=1;exitY=0.5;exitDx=0;exitDy=0;" parent="1" source="yS8y4EqdHsvdQgxTJSFS-77" target="j1ZgMSjSYDwOwTBpWPhx-1" edge="1">
          <mxGeometry width="160" relative="1" as="geometry">
            <mxPoint x="6550" y="344" as="sourcePoint" />
            <mxPoint x="4460" y="700" as="targetPoint" />
            <Array as="points">
              <mxPoint x="5570" y="391" />
              <mxPoint x="5570" y="640" />
              <mxPoint x="5895" y="640" />
            </Array>
          </mxGeometry>
        </mxCell>
        <mxCell id="3ZD-ds__CDtL9bY-RWLM-6" value="Use" style="endArrow=open;endSize=12;dashed=1;html=1;rounded=0;edgeStyle=orthogonalEdgeStyle;exitX=1.012;exitY=0.824;exitDx=0;exitDy=0;exitPerimeter=0;" parent="1" source="nHTIsOpt5-FmUogmospr-10" edge="1">
          <mxGeometry width="160" relative="1" as="geometry">
            <mxPoint x="920" y="130" as="sourcePoint" />
            <mxPoint x="1030" y="87" as="targetPoint" />
          </mxGeometry>
        </mxCell>
        <mxCell id="3ZD-ds__CDtL9bY-RWLM-10" value="Use" style="endArrow=open;endSize=12;dashed=1;html=1;rounded=0;edgeStyle=orthogonalEdgeStyle;exitX=0;exitY=0.5;exitDx=0;exitDy=0;entryX=0.25;entryY=1;entryDx=0;entryDy=0;" parent="1" source="3ZD-ds__CDtL9bY-RWLM-7" edge="1" target="UL4YKMBXZopJeCdpC2au-59">
          <mxGeometry width="160" relative="1" as="geometry">
            <mxPoint x="800" y="271" as="sourcePoint" />
            <mxPoint x="1120" y="120" as="targetPoint" />
            <Array as="points">
              <mxPoint x="830" y="359" />
              <mxPoint x="830" y="230" />
              <mxPoint x="1078" y="230" />
            </Array>
          </mxGeometry>
        </mxCell>
        <mxCell id="3ZD-ds__CDtL9bY-RWLM-11" value="Use" style="endArrow=open;endSize=12;dashed=1;html=1;rounded=0;edgeStyle=orthogonalEdgeStyle;exitX=0;exitY=0.5;exitDx=0;exitDy=0;entryX=0.25;entryY=1;entryDx=0;entryDy=0;" parent="1" source="xdEpOosHyWj6ykagDoDC-58" edge="1" target="UL4YKMBXZopJeCdpC2au-59">
          <mxGeometry width="160" relative="1" as="geometry">
            <mxPoint x="500" y="290" as="sourcePoint" />
            <mxPoint x="1100" y="119" as="targetPoint" />
            <Array as="points">
              <mxPoint x="410" y="409" />
              <mxPoint x="410" y="230" />
              <mxPoint x="1078" y="230" />
            </Array>
          </mxGeometry>
        </mxCell>
        <mxCell id="3ZD-ds__CDtL9bY-RWLM-12" value="Use" style="endArrow=open;endSize=12;dashed=1;html=1;rounded=0;edgeStyle=orthogonalEdgeStyle;exitX=0;exitY=0.5;exitDx=0;exitDy=0;entryX=0.25;entryY=1;entryDx=0;entryDy=0;" parent="1" source="xdEpOosHyWj6ykagDoDC-63" edge="1" target="UL4YKMBXZopJeCdpC2au-59">
          <mxGeometry width="160" relative="1" as="geometry">
            <mxPoint x="60" y="330" as="sourcePoint" />
            <mxPoint x="1080" y="100" as="targetPoint" />
            <Array as="points">
              <mxPoint x="80" y="409" />
              <mxPoint x="80" y="230" />
              <mxPoint x="1078" y="230" />
            </Array>
          </mxGeometry>
        </mxCell>
        <mxCell id="3ZD-ds__CDtL9bY-RWLM-17" value="Use" style="endArrow=open;endSize=12;dashed=1;html=1;rounded=0;edgeStyle=orthogonalEdgeStyle;exitX=0;exitY=0.5;exitDx=0;exitDy=0;entryX=0.25;entryY=1;entryDx=0;entryDy=0;" parent="1" source="ZvxXPG6ARuYnSKrhNRSG-10" edge="1" target="UL4YKMBXZopJeCdpC2au-59">
          <mxGeometry width="160" relative="1" as="geometry">
            <mxPoint x="1470" y="300" as="sourcePoint" />
            <mxPoint x="1139.06" y="119.16000000000031" as="targetPoint" />
            <Array as="points">
              <mxPoint x="1660" y="428" />
              <mxPoint x="1660" y="370" />
              <mxPoint x="1425" y="370" />
              <mxPoint x="1425" y="230" />
              <mxPoint x="1078" y="230" />
            </Array>
          </mxGeometry>
        </mxCell>
        <mxCell id="3ZD-ds__CDtL9bY-RWLM-19" value="Use" style="endArrow=open;endSize=12;dashed=1;html=1;rounded=0;edgeStyle=orthogonalEdgeStyle;exitX=0;exitY=0.5;exitDx=0;exitDy=0;entryX=1;entryY=0.5;entryDx=0;entryDy=0;" parent="1" source="xpTjOEdWHdF4yTKwdctW-26" edge="1" target="UL4YKMBXZopJeCdpC2au-59">
          <mxGeometry width="160" relative="1" as="geometry">
            <mxPoint x="2310" y="120" as="sourcePoint" />
            <mxPoint x="1250" y="110" as="targetPoint" />
            <Array as="points">
              <mxPoint x="2260" y="120" />
              <mxPoint x="2130" y="120" />
              <mxPoint x="2130" y="84" />
            </Array>
          </mxGeometry>
        </mxCell>
        <mxCell id="3ZD-ds__CDtL9bY-RWLM-23" value="AnalyticsServer" style="swimlane;fontStyle=1;align=center;verticalAlign=top;childLayout=stackLayout;horizontal=1;startSize=26;horizontalStack=0;resizeParent=1;resizeParentMax=0;resizeLast=0;collapsible=1;marginBottom=0;" parent="1" vertex="1">
          <mxGeometry x="1350" y="-114" width="160" height="20" as="geometry" />
        </mxCell>
        <mxCell id="3ZD-ds__CDtL9bY-RWLM-24" value="" style="endArrow=diamondThin;endFill=0;endSize=24;html=1;rounded=0;edgeStyle=orthogonalEdgeStyle;exitX=0.5;exitY=1;exitDx=0;exitDy=0;entryX=0.25;entryY=0;entryDx=0;entryDy=0;" parent="1" source="3ZD-ds__CDtL9bY-RWLM-23" target="UL4YKMBXZopJeCdpC2au-59" edge="1">
          <mxGeometry width="160" relative="1" as="geometry">
            <mxPoint x="1240" y="-84" as="sourcePoint" />
            <mxPoint x="1080" y="40" as="targetPoint" />
            <Array as="points">
              <mxPoint x="1430" y="-10" />
              <mxPoint x="1077" y="-10" />
            </Array>
          </mxGeometry>
        </mxCell>
        <mxCell id="3ZD-ds__CDtL9bY-RWLM-33" value="Use" style="endArrow=open;endSize=12;dashed=1;html=1;rounded=0;edgeStyle=orthogonalEdgeStyle;exitX=0.003;exitY=0.345;exitDx=0;exitDy=0;exitPerimeter=0;entryX=0.25;entryY=1;entryDx=0;entryDy=0;" parent="1" source="3ZD-ds__CDtL9bY-RWLM-31" edge="1" target="UL4YKMBXZopJeCdpC2au-59">
          <mxGeometry width="160" relative="1" as="geometry">
            <mxPoint x="1110" y="370" as="sourcePoint" />
            <mxPoint x="1160" y="120" as="targetPoint" />
            <Array as="points">
              <mxPoint x="1030" y="711" />
              <mxPoint x="1030" y="620" />
              <mxPoint x="1190" y="620" />
              <mxPoint x="1190" y="230" />
              <mxPoint x="1078" y="230" />
            </Array>
          </mxGeometry>
        </mxCell>
        <mxCell id="3ZD-ds__CDtL9bY-RWLM-34" value="ImageSorter" style="swimlane;fontStyle=1;align=center;verticalAlign=top;childLayout=stackLayout;horizontal=1;startSize=26;horizontalStack=0;resizeParent=1;resizeParentMax=0;resizeLast=0;collapsible=1;marginBottom=0;" parent="1" vertex="1">
          <mxGeometry x="1285" y="952" width="160" height="34" as="geometry" />
        </mxCell>
        <mxCell id="3ZD-ds__CDtL9bY-RWLM-36" value="DocumentSorter" style="swimlane;fontStyle=1;align=center;verticalAlign=top;childLayout=stackLayout;horizontal=1;startSize=26;horizontalStack=0;resizeParent=1;resizeParentMax=0;resizeLast=0;collapsible=1;marginBottom=0;" parent="1" vertex="1">
          <mxGeometry x="1090" y="952" width="160" height="34" as="geometry" />
        </mxCell>
        <mxCell id="3ZD-ds__CDtL9bY-RWLM-38" value="" style="endArrow=block;endSize=16;endFill=0;html=1;rounded=0;edgeStyle=orthogonalEdgeStyle;exitX=0.452;exitY=-0.093;exitDx=0;exitDy=0;exitPerimeter=0;entryX=0.449;entryY=1;entryDx=0;entryDy=0;entryPerimeter=0;" parent="1" source="3ZD-ds__CDtL9bY-RWLM-36" edge="1" target="3ZD-ds__CDtL9bY-RWLM-32">
          <mxGeometry x="0.6461" y="-130" width="160" relative="1" as="geometry">
            <mxPoint x="1180" y="810" as="sourcePoint" />
            <mxPoint x="1240" y="780" as="targetPoint" />
            <Array as="points">
              <mxPoint x="1162" y="880" />
              <mxPoint x="1230" y="880" />
            </Array>
            <mxPoint x="-120" y="130" as="offset" />
          </mxGeometry>
        </mxCell>
        <mxCell id="3ZD-ds__CDtL9bY-RWLM-39" value="" style="endArrow=block;endSize=16;endFill=0;html=1;rounded=0;edgeStyle=orthogonalEdgeStyle;exitX=0.5;exitY=0;exitDx=0;exitDy=0;entryX=0.448;entryY=1.031;entryDx=0;entryDy=0;entryPerimeter=0;" parent="1" source="3ZD-ds__CDtL9bY-RWLM-34" edge="1" target="3ZD-ds__CDtL9bY-RWLM-32">
          <mxGeometry x="-1" y="123" width="160" relative="1" as="geometry">
            <mxPoint x="1137.3200000000002" y="846.8379999999997" as="sourcePoint" />
            <mxPoint x="1240" y="780" as="targetPoint" />
            <mxPoint x="68" y="110" as="offset" />
            <Array as="points">
              <mxPoint x="1365" y="880" />
              <mxPoint x="1230" y="880" />
            </Array>
          </mxGeometry>
        </mxCell>
        <mxCell id="B37MmopoNUqpj75_Dg1A-33" value="SEORanker" style="swimlane;fontStyle=1;align=center;verticalAlign=top;childLayout=stackLayout;horizontal=1;startSize=26;horizontalStack=0;resizeParent=1;resizeParentMax=0;resizeLast=0;collapsible=1;marginBottom=0;" parent="1" vertex="1">
          <mxGeometry x="1320" y="420" width="330" height="86" as="geometry" />
        </mxCell>
        <mxCell id="B37MmopoNUqpj75_Dg1A-66" value="+ seoAspectProxy: SEOConfigProxy" style="text;strokeColor=none;fillColor=none;align=left;verticalAlign=top;spacingLeft=4;spacingRight=4;overflow=hidden;rotatable=0;points=[[0,0.5],[1,0.5]];portConstraint=eastwest;" parent="B37MmopoNUqpj75_Dg1A-33" vertex="1">
          <mxGeometry y="26" width="330" height="26" as="geometry" />
        </mxCell>
        <mxCell id="B37MmopoNUqpj75_Dg1A-35" value="" style="line;strokeWidth=1;fillColor=none;align=left;verticalAlign=middle;spacingTop=-1;spacingLeft=3;spacingRight=3;rotatable=0;labelPosition=right;points=[];portConstraint=eastwest;" parent="B37MmopoNUqpj75_Dg1A-33" vertex="1">
          <mxGeometry y="52" width="330" height="8" as="geometry" />
        </mxCell>
        <mxCell id="B37MmopoNUqpj75_Dg1A-36" value="+ calculateDocumentRank(doc: DocumentIndexModel): void" style="text;strokeColor=none;fillColor=none;align=left;verticalAlign=top;spacingLeft=4;spacingRight=4;overflow=hidden;rotatable=0;points=[[0,0.5],[1,0.5]];portConstraint=eastwest;" parent="B37MmopoNUqpj75_Dg1A-33" vertex="1">
          <mxGeometry y="60" width="330" height="26" as="geometry" />
        </mxCell>
        <mxCell id="B37MmopoNUqpj75_Dg1A-65" value="Use" style="endArrow=open;endSize=12;dashed=1;html=1;rounded=0;edgeStyle=orthogonalEdgeStyle;entryX=0.867;entryY=0.004;entryDx=0;entryDy=0;exitX=0;exitY=0.5;exitDx=0;exitDy=0;entryPerimeter=0;" parent="1" target="VXNcRWfN4zNZ4ETa913i-5" edge="1" source="B37MmopoNUqpj75_Dg1A-36">
          <mxGeometry width="160" relative="1" as="geometry">
            <mxPoint x="1320" y="459" as="sourcePoint" />
            <mxPoint x="1190" y="470" as="targetPoint" />
            <Array as="points">
              <mxPoint x="1300" y="493" />
              <mxPoint x="1300" y="640" />
              <mxPoint x="970" y="640" />
              <mxPoint x="970" y="950" />
              <mxPoint x="564" y="950" />
            </Array>
          </mxGeometry>
        </mxCell>
        <mxCell id="B37MmopoNUqpj75_Dg1A-68" value="Use" style="endArrow=open;endSize=12;dashed=1;html=1;rounded=0;edgeStyle=orthogonalEdgeStyle;exitX=1;exitY=0.5;exitDx=0;exitDy=0;" parent="1" source="B37MmopoNUqpj75_Dg1A-66" edge="1">
          <mxGeometry width="160" relative="1" as="geometry">
            <mxPoint x="1520" y="560" as="sourcePoint" />
            <mxPoint x="1719" y="490" as="targetPoint" />
            <Array as="points">
              <mxPoint x="1670" y="459" />
              <mxPoint x="1670" y="490" />
              <mxPoint x="1719" y="490" />
            </Array>
          </mxGeometry>
        </mxCell>
        <mxCell id="B37MmopoNUqpj75_Dg1A-69" value="SEOSuggestion" style="swimlane;fontStyle=1;align=center;verticalAlign=top;childLayout=stackLayout;horizontal=1;startSize=26;horizontalStack=0;resizeParent=1;resizeParentMax=0;resizeLast=0;collapsible=1;marginBottom=0;" parent="1" vertex="1">
          <mxGeometry x="2620" y="890" width="160" height="52" as="geometry" />
        </mxCell>
        <mxCell id="B37MmopoNUqpj75_Dg1A-70" value="+ description: String" style="text;strokeColor=none;fillColor=none;align=left;verticalAlign=top;spacingLeft=4;spacingRight=4;overflow=hidden;rotatable=0;points=[[0,0.5],[1,0.5]];portConstraint=eastwest;" parent="B37MmopoNUqpj75_Dg1A-69" vertex="1">
          <mxGeometry y="26" width="160" height="26" as="geometry" />
        </mxCell>
        <mxCell id="XZYUjsQZ5xRN_dGaFp_k-2" value="&lt;div&gt;Вне зависимости от типа запроса поисковым движком выполняется определенная последовательность действий - валидация, выполнение самого поиска и сбор аналитики. Однако тип запроса влияет на имплементацию этой последовательности действий:&amp;nbsp; для каждого типа запроса существует собственный поисковик, валидатор и сборщик аналитики. Поэтому здесь можно использовать паттерн абстрактной фабрики. &lt;/div&gt;В зависимости от запроса клиента вызывается соответствующий метод контроллера, использующий конкретную фабрику - имплементацию серверной логики" style="shape=note;size=20;whiteSpace=wrap;html=1;" parent="1" vertex="1">
          <mxGeometry x="3485" y="1494" width="710" height="100" as="geometry" />
        </mxCell>
        <mxCell id="XZYUjsQZ5xRN_dGaFp_k-7" value="Сервис, скачивающий документы&amp;nbsp; &amp;nbsp;в соответствии с политикой / запросами других компонентов / списком URL&amp;nbsp; итд" style="shape=note;size=20;whiteSpace=wrap;html=1;" parent="1" vertex="1">
          <mxGeometry x="-170" y="485" width="140" height="130" as="geometry" />
        </mxCell>
        <mxCell id="XZYUjsQZ5xRN_dGaFp_k-8" value="Сервис, загружающий URL на URL server для последующего скачивания и индексации документа" style="shape=note;size=20;whiteSpace=wrap;html=1;" parent="1" vertex="1">
          <mxGeometry x="280" y="662" width="140" height="130" as="geometry" />
        </mxCell>
        <mxCell id="XZYUjsQZ5xRN_dGaFp_k-9" value="" style="endArrow=none;html=1;edgeStyle=orthogonalEdgeStyle;rounded=0;entryX=0.034;entryY=0;entryDx=0;entryDy=0;entryPerimeter=0;" parent="1" source="XZYUjsQZ5xRN_dGaFp_k-7" target="xdEpOosHyWj6ykagDoDC-65" edge="1">
          <mxGeometry relative="1" as="geometry">
            <mxPoint x="-30" y="552" as="sourcePoint" />
            <mxPoint x="130" y="552" as="targetPoint" />
          </mxGeometry>
        </mxCell>
        <mxCell id="XZYUjsQZ5xRN_dGaFp_k-12" value="" style="endArrow=none;html=1;edgeStyle=orthogonalEdgeStyle;rounded=0;entryX=0.407;entryY=0.973;entryDx=0;entryDy=0;entryPerimeter=0;exitX=0;exitY=0;exitDx=140;exitDy=75;exitPerimeter=0;" parent="1" source="XZYUjsQZ5xRN_dGaFp_k-8" target="xdEpOosHyWj6ykagDoDC-60" edge="1">
          <mxGeometry relative="1" as="geometry">
            <mxPoint x="-9.86" y="645" as="sourcePoint" />
            <mxPoint x="189.9999999999999" y="590" as="targetPoint" />
            <Array as="points">
              <mxPoint x="420" y="685" />
              <mxPoint x="560" y="685" />
              <mxPoint x="560" y="459" />
            </Array>
          </mxGeometry>
        </mxCell>
        <mxCell id="XZYUjsQZ5xRN_dGaFp_k-13" value="OPTIONAL &lt;font style=&quot;font-size: 9px&quot;&gt;&lt;span style=&quot;left: 195px ; top: 369.553px ; font-family: serif ; transform: scalex(0.875478)&quot; class=&quot;&quot;&gt;&lt;span class=&quot;highlight selected&quot;&gt;URL Resolver&lt;/span&gt;:&lt;/span&gt;&lt;span style=&quot;left: 333.8px ; top: 369.553px ; font-family: serif ; transform: scalex(0.796404)&quot;&gt;  The URLResolver reads the Anchor files and in turn converts &lt;/span&gt;&lt;span style=&quot;left: 195px ; top: 394.354px ; font-family: serif ; transform: scalex(0.792527)&quot;&gt;relative URL into absolute URL and then into docIDs. It puts the anchor text into &lt;/span&gt;&lt;span style=&quot;left: 195px ; top: 419.353px ; font-family: serif ; transform: scalex(0.783219)&quot;&gt;the forward index, associated with the docID that the anchor points to. It also &lt;/span&gt;&lt;span style=&quot;left: 195px ; top: 444.154px ; font-family: serif ; transform: scalex(0.783557)&quot;&gt;generates a database of links which are pairs of docIDs. The links database is used &lt;/span&gt;&lt;span style=&quot;left: 195px ; top: 469.153px ; font-family: serif ; transform: scalex(0.787364)&quot;&gt;to compute PageRanks for all the documents&lt;/span&gt;&lt;/font&gt;" style="shape=note;size=20;whiteSpace=wrap;html=1;" parent="1" vertex="1">
          <mxGeometry x="320" y="15" width="290" height="140" as="geometry" />
        </mxCell>
        <mxCell id="XZYUjsQZ5xRN_dGaFp_k-14" value="" style="endArrow=open;endFill=1;endSize=12;html=1;rounded=0;fontSize=9;edgeStyle=orthogonalEdgeStyle;exitX=0;exitY=0;exitDx=290;exitDy=80;exitPerimeter=0;entryX=0.006;entryY=1.103;entryDx=0;entryDy=0;entryPerimeter=0;" parent="1" source="XZYUjsQZ5xRN_dGaFp_k-13" target="nHTIsOpt5-FmUogmospr-10" edge="1">
          <mxGeometry width="160" relative="1" as="geometry">
            <mxPoint x="585" y="157.17" as="sourcePoint" />
            <mxPoint x="720" y="100" as="targetPoint" />
          </mxGeometry>
        </mxCell>
        <mxCell id="XZYUjsQZ5xRN_dGaFp_k-16" value="Получается при индексации документа индексатором. Используется для хранения информации о странице" style="shape=note;size=20;whiteSpace=wrap;html=1;" parent="1" vertex="1">
          <mxGeometry x="140" y="792" width="140" height="130" as="geometry" />
        </mxCell>
        <mxCell id="XZYUjsQZ5xRN_dGaFp_k-20" value="" style="endArrow=none;html=1;edgeStyle=orthogonalEdgeStyle;rounded=0;entryX=0.5;entryY=1;entryDx=0;entryDy=0;exitX=0;exitY=0;exitDx=140;exitDy=75;exitPerimeter=0;" parent="1" source="XZYUjsQZ5xRN_dGaFp_k-16" target="X9t2nn5iT1wmEAKBCxQw-26" edge="1">
          <mxGeometry relative="1" as="geometry">
            <mxPoint x="440" y="695" as="sourcePoint" />
            <mxPoint x="570.0799999999999" y="474.6800000000003" as="targetPoint" />
            <Array as="points">
              <mxPoint x="280" y="870" />
              <mxPoint x="450" y="870" />
              <mxPoint x="450" y="836" />
            </Array>
          </mxGeometry>
        </mxCell>
        <mxCell id="XZYUjsQZ5xRN_dGaFp_k-21" value="Получается при обработке документа сортером. Используется для поиска документа по ключевым словам / картинкам ..." style="shape=note;size=20;whiteSpace=wrap;html=1;" parent="1" vertex="1">
          <mxGeometry x="140" y="940" width="140" height="130" as="geometry" />
        </mxCell>
        <mxCell id="XZYUjsQZ5xRN_dGaFp_k-22" value="" style="endArrow=none;html=1;edgeStyle=orthogonalEdgeStyle;rounded=0;entryX=0;entryY=0.5;entryDx=0;entryDy=0;exitX=1;exitY=0.385;exitDx=0;exitDy=0;exitPerimeter=0;" parent="1" source="XZYUjsQZ5xRN_dGaFp_k-21" target="X9t2nn5iT1wmEAKBCxQw-30" edge="1">
          <mxGeometry relative="1" as="geometry">
            <mxPoint x="290" y="877" as="sourcePoint" />
            <mxPoint x="510" y="845.9999999999995" as="targetPoint" />
            <Array as="points">
              <mxPoint x="390" y="990" />
              <mxPoint x="390" y="900" />
              <mxPoint x="790" y="900" />
              <mxPoint x="790" y="823" />
            </Array>
          </mxGeometry>
        </mxCell>
        <mxCell id="j1ZgMSjSYDwOwTBpWPhx-1" value="SearchRequest" style="swimlane;fontStyle=3;align=center;verticalAlign=top;childLayout=stackLayout;horizontal=1;startSize=26;horizontalStack=0;resizeParent=1;resizeParentMax=0;resizeLast=0;collapsible=1;marginBottom=0;" parent="1" vertex="1">
          <mxGeometry x="5685" y="730" width="420" height="52" as="geometry" />
        </mxCell>
        <mxCell id="j1ZgMSjSYDwOwTBpWPhx-2" value="+ requestSchemeTemplate: RequestScheme" style="text;strokeColor=none;fillColor=none;align=left;verticalAlign=top;spacingLeft=4;spacingRight=4;overflow=hidden;rotatable=0;points=[[0,0.5],[1,0.5]];portConstraint=eastwest;" parent="j1ZgMSjSYDwOwTBpWPhx-1" vertex="1">
          <mxGeometry y="26" width="420" height="26" as="geometry" />
        </mxCell>
        <mxCell id="j1ZgMSjSYDwOwTBpWPhx-6" value="StringSearchRequest" style="swimlane;fontStyle=1;align=center;verticalAlign=top;childLayout=stackLayout;horizontal=1;startSize=26;horizontalStack=0;resizeParent=1;resizeParentMax=0;resizeLast=0;collapsible=1;marginBottom=0;" parent="1" vertex="1">
          <mxGeometry x="5780" y="850" width="250" height="60" as="geometry" />
        </mxCell>
        <mxCell id="j1ZgMSjSYDwOwTBpWPhx-7" value="+ requestSchemeTemplate: RequestScheme" style="text;strokeColor=none;fillColor=none;align=left;verticalAlign=top;spacingLeft=4;spacingRight=4;overflow=hidden;rotatable=0;points=[[0,0.5],[1,0.5]];portConstraint=eastwest;" parent="j1ZgMSjSYDwOwTBpWPhx-6" vertex="1">
          <mxGeometry y="26" width="250" height="26" as="geometry" />
        </mxCell>
        <mxCell id="j1ZgMSjSYDwOwTBpWPhx-8" value="" style="line;strokeWidth=1;fillColor=none;align=left;verticalAlign=middle;spacingTop=-1;spacingLeft=3;spacingRight=3;rotatable=0;labelPosition=right;points=[];portConstraint=eastwest;" parent="j1ZgMSjSYDwOwTBpWPhx-6" vertex="1">
          <mxGeometry y="52" width="250" height="8" as="geometry" />
        </mxCell>
        <mxCell id="j1ZgMSjSYDwOwTBpWPhx-12" value="" style="endArrow=block;endSize=16;endFill=0;html=1;rounded=0;edgeStyle=orthogonalEdgeStyle;exitX=0.5;exitY=0;exitDx=0;exitDy=0;startArrow=none;" parent="1" source="j1ZgMSjSYDwOwTBpWPhx-3" edge="1">
          <mxGeometry width="160" relative="1" as="geometry">
            <mxPoint x="5670" y="886" as="sourcePoint" />
            <mxPoint x="5880" y="778.9999999999995" as="targetPoint" />
            <Array as="points">
              <mxPoint x="5670" y="833" />
              <mxPoint x="5880" y="833" />
              <mxPoint x="5880" y="779" />
            </Array>
          </mxGeometry>
        </mxCell>
        <mxCell id="j1ZgMSjSYDwOwTBpWPhx-13" value="" style="endArrow=block;endSize=16;endFill=0;html=1;rounded=0;edgeStyle=orthogonalEdgeStyle;exitX=0.5;exitY=0;exitDx=0;exitDy=0;" parent="1" source="j1ZgMSjSYDwOwTBpWPhx-6" target="j1ZgMSjSYDwOwTBpWPhx-1" edge="1">
          <mxGeometry width="160" relative="1" as="geometry">
            <mxPoint x="5680" y="896" as="sourcePoint" />
            <mxPoint x="5860" y="789" as="targetPoint" />
            <Array as="points">
              <mxPoint x="5880" y="810" />
              <mxPoint x="5880" y="810" />
            </Array>
          </mxGeometry>
        </mxCell>
        <mxCell id="j1ZgMSjSYDwOwTBpWPhx-14" value="" style="endArrow=block;endSize=16;endFill=0;html=1;rounded=0;edgeStyle=orthogonalEdgeStyle;startArrow=none;" parent="1" edge="1">
          <mxGeometry width="160" relative="1" as="geometry">
            <mxPoint x="5880" y="850" as="sourcePoint" />
            <mxPoint x="5880" y="780" as="targetPoint" />
            <Array as="points" />
          </mxGeometry>
        </mxCell>
        <mxCell id="j1ZgMSjSYDwOwTBpWPhx-15" value="SearchResponse" style="swimlane;fontStyle=3;align=center;verticalAlign=top;childLayout=stackLayout;horizontal=1;startSize=26;horizontalStack=0;resizeParent=1;resizeParentMax=0;resizeLast=0;collapsible=1;marginBottom=0;" parent="1" vertex="1">
          <mxGeometry x="4902.5" y="707" width="290" height="52" as="geometry" />
        </mxCell>
        <mxCell id="j1ZgMSjSYDwOwTBpWPhx-16" value="+ responseSchemeTemplate: ResponseScheme" style="text;strokeColor=none;fillColor=none;align=left;verticalAlign=top;spacingLeft=4;spacingRight=4;overflow=hidden;rotatable=0;points=[[0,0.5],[1,0.5]];portConstraint=eastwest;" parent="j1ZgMSjSYDwOwTBpWPhx-15" vertex="1">
          <mxGeometry y="26" width="290" height="26" as="geometry" />
        </mxCell>
        <mxCell id="j1ZgMSjSYDwOwTBpWPhx-17" value="VoiceSearchResponse" style="swimlane;fontStyle=1;align=center;verticalAlign=top;childLayout=stackLayout;horizontal=1;startSize=26;horizontalStack=0;resizeParent=1;resizeParentMax=0;resizeLast=0;collapsible=1;marginBottom=0;" parent="1" vertex="1">
          <mxGeometry x="4540" y="862" width="300" height="60" as="geometry" />
        </mxCell>
        <mxCell id="j1ZgMSjSYDwOwTBpWPhx-18" value="+ responseSchemeTemplate: ResponseScheme" style="text;strokeColor=none;fillColor=none;align=left;verticalAlign=top;spacingLeft=4;spacingRight=4;overflow=hidden;rotatable=0;points=[[0,0.5],[1,0.5]];portConstraint=eastwest;" parent="j1ZgMSjSYDwOwTBpWPhx-17" vertex="1">
          <mxGeometry y="26" width="300" height="26" as="geometry" />
        </mxCell>
        <mxCell id="j1ZgMSjSYDwOwTBpWPhx-19" value="" style="line;strokeWidth=1;fillColor=none;align=left;verticalAlign=middle;spacingTop=-1;spacingLeft=3;spacingRight=3;rotatable=0;labelPosition=right;points=[];portConstraint=eastwest;" parent="j1ZgMSjSYDwOwTBpWPhx-17" vertex="1">
          <mxGeometry y="52" width="300" height="8" as="geometry" />
        </mxCell>
        <mxCell id="j1ZgMSjSYDwOwTBpWPhx-20" value="StringSearchResponse" style="swimlane;fontStyle=1;align=center;verticalAlign=top;childLayout=stackLayout;horizontal=1;startSize=26;horizontalStack=0;resizeParent=1;resizeParentMax=0;resizeLast=0;collapsible=1;marginBottom=0;" parent="1" vertex="1">
          <mxGeometry x="4875" y="861" width="270" height="60" as="geometry" />
        </mxCell>
        <mxCell id="j1ZgMSjSYDwOwTBpWPhx-21" value="+ responseSchemeTemplate: ResponseScheme" style="text;strokeColor=none;fillColor=none;align=left;verticalAlign=top;spacingLeft=4;spacingRight=4;overflow=hidden;rotatable=0;points=[[0,0.5],[1,0.5]];portConstraint=eastwest;" parent="j1ZgMSjSYDwOwTBpWPhx-20" vertex="1">
          <mxGeometry y="26" width="270" height="26" as="geometry" />
        </mxCell>
        <mxCell id="j1ZgMSjSYDwOwTBpWPhx-22" value="" style="line;strokeWidth=1;fillColor=none;align=left;verticalAlign=middle;spacingTop=-1;spacingLeft=3;spacingRight=3;rotatable=0;labelPosition=right;points=[];portConstraint=eastwest;" parent="j1ZgMSjSYDwOwTBpWPhx-20" vertex="1">
          <mxGeometry y="52" width="270" height="8" as="geometry" />
        </mxCell>
        <mxCell id="j1ZgMSjSYDwOwTBpWPhx-23" value="ImageSearchResponse" style="swimlane;fontStyle=1;align=center;verticalAlign=top;childLayout=stackLayout;horizontal=1;startSize=26;horizontalStack=0;resizeParent=1;resizeParentMax=0;resizeLast=0;collapsible=1;marginBottom=0;" parent="1" vertex="1">
          <mxGeometry x="5170" y="856" width="270" height="60" as="geometry" />
        </mxCell>
        <mxCell id="j1ZgMSjSYDwOwTBpWPhx-24" value="+ responseSchemeTemplate: ResponseScheme" style="text;strokeColor=none;fillColor=none;align=left;verticalAlign=top;spacingLeft=4;spacingRight=4;overflow=hidden;rotatable=0;points=[[0,0.5],[1,0.5]];portConstraint=eastwest;" parent="j1ZgMSjSYDwOwTBpWPhx-23" vertex="1">
          <mxGeometry y="26" width="270" height="26" as="geometry" />
        </mxCell>
        <mxCell id="j1ZgMSjSYDwOwTBpWPhx-25" value="" style="line;strokeWidth=1;fillColor=none;align=left;verticalAlign=middle;spacingTop=-1;spacingLeft=3;spacingRight=3;rotatable=0;labelPosition=right;points=[];portConstraint=eastwest;" parent="j1ZgMSjSYDwOwTBpWPhx-23" vertex="1">
          <mxGeometry y="52" width="270" height="8" as="geometry" />
        </mxCell>
        <mxCell id="j1ZgMSjSYDwOwTBpWPhx-26" value="" style="endArrow=block;endSize=16;endFill=0;html=1;rounded=0;edgeStyle=orthogonalEdgeStyle;exitX=0.5;exitY=0;exitDx=0;exitDy=0;" parent="1" source="j1ZgMSjSYDwOwTBpWPhx-17" edge="1">
          <mxGeometry width="160" relative="1" as="geometry">
            <mxPoint x="6070" y="835" as="sourcePoint" />
            <mxPoint x="5045" y="761" as="targetPoint" />
            <Array as="points">
              <mxPoint x="4765" y="821" />
              <mxPoint x="5045" y="821" />
            </Array>
          </mxGeometry>
        </mxCell>
        <mxCell id="j1ZgMSjSYDwOwTBpWPhx-28" value="" style="endArrow=block;endSize=16;endFill=0;html=1;rounded=0;edgeStyle=orthogonalEdgeStyle;exitX=0.396;exitY=-0.009;exitDx=0;exitDy=0;exitPerimeter=0;" parent="1" source="j1ZgMSjSYDwOwTBpWPhx-23" edge="1">
          <mxGeometry width="160" relative="1" as="geometry">
            <mxPoint x="5165" y="861" as="sourcePoint" />
            <mxPoint x="5045" y="761" as="targetPoint" />
            <Array as="points">
              <mxPoint x="5277" y="821" />
              <mxPoint x="5045" y="821" />
            </Array>
          </mxGeometry>
        </mxCell>
        <mxCell id="j1ZgMSjSYDwOwTBpWPhx-29" value="" style="endArrow=block;endSize=16;endFill=0;html=1;rounded=0;edgeStyle=orthogonalEdgeStyle;exitX=0.5;exitY=0;exitDx=0;exitDy=0;" parent="1" source="j1ZgMSjSYDwOwTBpWPhx-20" edge="1">
          <mxGeometry width="160" relative="1" as="geometry">
            <mxPoint x="4865" y="851" as="sourcePoint" />
            <mxPoint x="5044" y="761" as="targetPoint" />
            <Array as="points">
              <mxPoint x="4955" y="821" />
              <mxPoint x="5044" y="821" />
            </Array>
          </mxGeometry>
        </mxCell>
        <mxCell id="I2TExvk2Ryq5NWT1-N8--4" value="" style="endArrow=diamondThin;endFill=0;endSize=24;html=1;rounded=0;edgeStyle=orthogonalEdgeStyle;entryX=0.25;entryY=0;entryDx=0;entryDy=0;" parent="1" source="j_Ctqi_ZfGnduSrjhimz-53" target="yS8y4EqdHsvdQgxTJSFS-9" edge="1">
          <mxGeometry width="160" relative="1" as="geometry">
            <mxPoint x="3430" y="40" as="sourcePoint" />
            <mxPoint x="3580" y="276" as="targetPoint" />
            <Array as="points">
              <mxPoint x="3430" y="170" />
              <mxPoint x="3988" y="170" />
            </Array>
          </mxGeometry>
        </mxCell>
        <mxCell id="I2TExvk2Ryq5NWT1-N8--5" value="" style="endArrow=diamondThin;endFill=0;endSize=24;html=1;rounded=0;edgeStyle=orthogonalEdgeStyle;" parent="1" edge="1">
          <mxGeometry width="160" relative="1" as="geometry">
            <mxPoint x="4750" y="46" as="sourcePoint" />
            <mxPoint x="3990" y="250" as="targetPoint" />
            <Array as="points">
              <mxPoint x="4750" y="170" />
              <mxPoint x="3990" y="170" />
            </Array>
          </mxGeometry>
        </mxCell>
        <mxCell id="I2TExvk2Ryq5NWT1-N8--8" value="" style="endArrow=diamondThin;endFill=0;endSize=24;html=1;rounded=0;edgeStyle=orthogonalEdgeStyle;exitX=0.517;exitY=1.09;exitDx=0;exitDy=0;exitPerimeter=0;" parent="1" source="j_Ctqi_ZfGnduSrjhimz-17" edge="1">
          <mxGeometry width="160" relative="1" as="geometry">
            <mxPoint x="6392" y="50" as="sourcePoint" />
            <mxPoint x="3989" y="250" as="targetPoint" />
            <Array as="points">
              <mxPoint x="6440" y="48" />
              <mxPoint x="6440" y="170" />
              <mxPoint x="3989" y="170" />
            </Array>
          </mxGeometry>
        </mxCell>
        <mxCell id="I2TExvk2Ryq5NWT1-N8--10" value="" style="endArrow=diamondThin;endFill=0;endSize=24;html=1;rounded=0;edgeStyle=orthogonalEdgeStyle;entryX=0.557;entryY=-0.012;entryDx=0;entryDy=0;entryPerimeter=0;" parent="1" target="yS8y4EqdHsvdQgxTJSFS-5" edge="1">
          <mxGeometry width="160" relative="1" as="geometry">
            <mxPoint x="3910" y="40" as="sourcePoint" />
            <mxPoint x="3710" y="200" as="targetPoint" />
            <Array as="points">
              <mxPoint x="3910" y="50" />
              <mxPoint x="3910" y="130" />
              <mxPoint x="3599" y="130" />
            </Array>
          </mxGeometry>
        </mxCell>
        <mxCell id="I2TExvk2Ryq5NWT1-N8--12" value="" style="endArrow=diamondThin;endFill=0;endSize=24;html=1;rounded=0;edgeStyle=orthogonalEdgeStyle;entryX=0.557;entryY=-0.012;entryDx=0;entryDy=0;entryPerimeter=0;exitX=0.484;exitY=1.167;exitDx=0;exitDy=0;exitPerimeter=0;" parent="1" edge="1" source="QKs4qBYW7GnzKIks0Z7w-44">
          <mxGeometry width="160" relative="1" as="geometry">
            <mxPoint x="5430" y="40" as="sourcePoint" />
            <mxPoint x="3600.02" y="246.0020000000001" as="targetPoint" />
            <Array as="points">
              <mxPoint x="5478" y="130" />
              <mxPoint x="3600" y="130" />
            </Array>
          </mxGeometry>
        </mxCell>
        <mxCell id="I2TExvk2Ryq5NWT1-N8--13" value="" style="endArrow=diamondThin;endFill=0;endSize=24;html=1;rounded=0;edgeStyle=orthogonalEdgeStyle;entryX=0.557;entryY=-0.012;entryDx=0;entryDy=0;entryPerimeter=0;" parent="1" edge="1">
          <mxGeometry width="160" relative="1" as="geometry">
            <mxPoint x="6800" y="40" as="sourcePoint" />
            <mxPoint x="3600.0200000000004" y="246.00200000000018" as="targetPoint" />
            <Array as="points">
              <mxPoint x="6800" y="130" />
              <mxPoint x="3600" y="130" />
            </Array>
          </mxGeometry>
        </mxCell>
        <mxCell id="I2TExvk2Ryq5NWT1-N8--14" value="" style="endArrow=diamondThin;endFill=0;endSize=24;html=1;rounded=0;edgeStyle=orthogonalEdgeStyle;entryX=0.6;entryY=0.059;entryDx=0;entryDy=0;entryPerimeter=0;exitX=0.577;exitY=1.108;exitDx=0;exitDy=0;exitPerimeter=0;" parent="1" source="QKs4qBYW7GnzKIks0Z7w-36" target="yS8y4EqdHsvdQgxTJSFS-13" edge="1">
          <mxGeometry width="160" relative="1" as="geometry">
            <mxPoint x="4606" y="90" as="sourcePoint" />
            <mxPoint x="4770" y="230" as="targetPoint" />
            <Array as="points">
              <mxPoint x="4400" y="80" />
              <mxPoint x="4606" y="80" />
            </Array>
          </mxGeometry>
        </mxCell>
        <mxCell id="I2TExvk2Ryq5NWT1-N8--15" value="" style="endArrow=diamondThin;endFill=0;endSize=24;html=1;rounded=0;edgeStyle=orthogonalEdgeStyle;entryX=0.6;entryY=0.059;entryDx=0;entryDy=0;entryPerimeter=0;exitX=0.555;exitY=1.064;exitDx=0;exitDy=0;exitPerimeter=0;" parent="1" edge="1" source="j_Ctqi_ZfGnduSrjhimz-49">
          <mxGeometry width="160" relative="1" as="geometry">
            <mxPoint x="2879" y="50" as="sourcePoint" />
            <mxPoint x="4606.2" y="249.9960000000001" as="targetPoint" />
            <Array as="points">
              <mxPoint x="3161" y="80" />
              <mxPoint x="4606" y="80" />
            </Array>
          </mxGeometry>
        </mxCell>
        <mxCell id="I2TExvk2Ryq5NWT1-N8--16" value="" style="endArrow=diamondThin;endFill=0;endSize=24;html=1;rounded=0;edgeStyle=orthogonalEdgeStyle;entryX=0.602;entryY=0.024;entryDx=0;entryDy=0;entryPerimeter=0;exitX=0.487;exitY=1.031;exitDx=0;exitDy=0;exitPerimeter=0;" parent="1" source="j_Ctqi_ZfGnduSrjhimz-13" target="yS8y4EqdHsvdQgxTJSFS-13" edge="1">
          <mxGeometry width="160" relative="1" as="geometry">
            <mxPoint x="5950" y="30" as="sourcePoint" />
            <mxPoint x="4800" y="220" as="targetPoint" />
            <Array as="points">
              <mxPoint x="5951" y="80" />
              <mxPoint x="4606" y="80" />
            </Array>
          </mxGeometry>
        </mxCell>
        <mxCell id="RxSAZR1VYwHM6Kve5wEy-16" value="" style="endArrow=none;html=1;edgeStyle=orthogonalEdgeStyle;rounded=0;exitX=0.75;exitY=1;exitDx=0;exitDy=0;entryX=0.35;entryY=0;entryDx=0;entryDy=0;entryPerimeter=0;" parent="1" source="UL4YKMBXZopJeCdpC2au-59" target="RxSAZR1VYwHM6Kve5wEy-19" edge="1">
          <mxGeometry relative="1" as="geometry">
            <mxPoint x="1160" y="264.29" as="sourcePoint" />
            <mxPoint x="1281.8200000000002" y="247.41499999999996" as="targetPoint" />
          </mxGeometry>
        </mxCell>
        <mxCell id="RxSAZR1VYwHM6Kve5wEy-19" value="Pseudo entity to handle all interactions with servers" style="shape=note;size=20;whiteSpace=wrap;html=1;" parent="1" vertex="1">
          <mxGeometry x="1220" y="260" width="180" height="55" as="geometry" />
        </mxCell>
        <mxCell id="RxSAZR1VYwHM6Kve5wEy-21" value="" style="endArrow=none;html=1;edgeStyle=orthogonalEdgeStyle;rounded=0;exitX=1.012;exitY=0.909;exitDx=0;exitDy=0;exitPerimeter=0;entryX=0.5;entryY=0;entryDx=0;entryDy=0;entryPerimeter=0;" parent="1" source="3ZD-ds__CDtL9bY-RWLM-31" target="RxSAZR1VYwHM6Kve5wEy-24" edge="1">
          <mxGeometry relative="1" as="geometry">
            <mxPoint x="1460" y="872.57" as="sourcePoint" />
            <mxPoint x="1579.9999999999995" y="778" as="targetPoint" />
          </mxGeometry>
        </mxCell>
        <mxCell id="RxSAZR1VYwHM6Kve5wEy-24" value="Creates/updates inverted indexes - lists of specific words / images and associated&amp;nbsp; documents" style="shape=note;size=20;whiteSpace=wrap;html=1;" parent="1" vertex="1">
          <mxGeometry x="1489.5" y="780" width="181" height="55" as="geometry" />
        </mxCell>
        <mxCell id="RxSAZR1VYwHM6Kve5wEy-28" value="&lt;div&gt;General entity based on Composite pattern which is used to perform SEO analysis of document. At the moment of initialization application loads default SEOAspect configuration - object which includes all possible child SEOAspects, problems related to these aspects and solutions for them. During SEO analysis caller classes can recursively iterate over child aspects. Each on-page SEO aspect is related to some set of tags, so it&#39;s possible to send to each child aspect only required tags content, which can be processed by static functions of Problem classes. Based on errors these functions can calculate impact of each aspect on total page SEO score and make suggestions.&lt;/div&gt;" style="shape=note;size=20;whiteSpace=wrap;html=1;" parent="1" vertex="1">
          <mxGeometry x="930" y="1090" width="640" height="110" as="geometry" />
        </mxCell>
        <mxCell id="RxSAZR1VYwHM6Kve5wEy-30" value="" style="endArrow=none;html=1;edgeStyle=orthogonalEdgeStyle;rounded=0;entryX=-0.012;entryY=0.87;entryDx=0;entryDy=0;entryPerimeter=0;" parent="1" source="RxSAZR1VYwHM6Kve5wEy-28" target="UL4YKMBXZopJeCdpC2au-90" edge="1">
          <mxGeometry relative="1" as="geometry">
            <mxPoint x="1710" y="1058" as="sourcePoint" />
            <mxPoint x="1870" y="1058" as="targetPoint" />
          </mxGeometry>
        </mxCell>
        <mxCell id="RxSAZR1VYwHM6Kve5wEy-35" value="Since in multithreading environment multiple callers can access default &lt;br&gt;configuration and there are possibility of updating it, managing access &lt;br&gt;to configuration object is necessary which leads to usage of Proxy &lt;br&gt;pattern." style="shape=note;size=20;whiteSpace=wrap;html=1;" parent="1" vertex="1">
          <mxGeometry x="1670.5" y="560" width="429.5" height="80" as="geometry" />
        </mxCell>
        <mxCell id="RxSAZR1VYwHM6Kve5wEy-36" value="" style="endArrow=none;html=1;edgeStyle=orthogonalEdgeStyle;rounded=0;entryX=0.256;entryY=1.075;entryDx=0;entryDy=0;entryPerimeter=0;exitX=0.367;exitY=0.012;exitDx=0;exitDy=0;exitPerimeter=0;" parent="1" source="RxSAZR1VYwHM6Kve5wEy-35" target="ZvxXPG6ARuYnSKrhNRSG-12" edge="1">
          <mxGeometry relative="1" as="geometry">
            <mxPoint x="1555" y="570" as="sourcePoint" />
            <mxPoint x="1715" y="570" as="targetPoint" />
            <Array as="points">
              <mxPoint x="1812" y="561" />
            </Array>
          </mxGeometry>
        </mxCell>
        <mxCell id="m8PIFnoMGad8uP0K9j40-2" value="PageVisitController" style="swimlane;fontStyle=1;align=center;verticalAlign=top;childLayout=stackLayout;horizontal=1;startSize=26;horizontalStack=0;resizeParent=1;resizeParentMax=0;resizeLast=0;collapsible=1;marginBottom=0;" parent="1" vertex="1">
          <mxGeometry x="2740" y="500" width="560" height="258" as="geometry" />
        </mxCell>
        <mxCell id="m8PIFnoMGad8uP0K9j40-68" value="+ dataServerConnection: ServerManager" style="text;strokeColor=none;fillColor=none;align=left;verticalAlign=top;spacingLeft=4;spacingRight=4;overflow=hidden;rotatable=0;points=[[0,0.5],[1,0.5]];portConstraint=eastwest;" parent="m8PIFnoMGad8uP0K9j40-2" vertex="1">
          <mxGeometry y="26" width="560" height="24" as="geometry" />
        </mxCell>
        <mxCell id="ZLtzulAEG12qj5SxT5-5-33" value="Use" style="endArrow=open;endSize=12;dashed=1;html=1;rounded=0;edgeStyle=orthogonalEdgeStyle;entryX=0;entryY=0.5;entryDx=0;entryDy=0;" edge="1" parent="m8PIFnoMGad8uP0K9j40-2" target="4URgF8J09XDzKeIFWTpl-2">
          <mxGeometry width="160" relative="1" as="geometry">
            <mxPoint y="60" as="sourcePoint" />
            <mxPoint x="160" y="60" as="targetPoint" />
            <Array as="points">
              <mxPoint x="-30" y="60" />
              <mxPoint x="-30" y="-196" />
              <mxPoint x="-130" y="-196" />
              <mxPoint x="-130" y="-465" />
            </Array>
          </mxGeometry>
        </mxCell>
        <mxCell id="ZLtzulAEG12qj5SxT5-5-53" value="Use" style="endArrow=open;endSize=12;dashed=1;html=1;rounded=0;edgeStyle=orthogonalEdgeStyle;entryX=1;entryY=0.5;entryDx=0;entryDy=0;" edge="1" parent="m8PIFnoMGad8uP0K9j40-2" target="UL4YKMBXZopJeCdpC2au-59">
          <mxGeometry width="160" relative="1" as="geometry">
            <mxPoint y="40" as="sourcePoint" />
            <mxPoint x="-1520" y="-422.28585379464283" as="targetPoint" />
            <Array as="points">
              <mxPoint x="-30" y="40" />
              <mxPoint x="-30" y="-260" />
              <mxPoint x="-610" y="-260" />
              <mxPoint x="-610" y="-416" />
            </Array>
          </mxGeometry>
        </mxCell>
        <mxCell id="m8PIFnoMGad8uP0K9j40-22" value="+ pageVisitsAnalytics: PageVisitsAnalytics" style="text;strokeColor=none;fillColor=none;align=left;verticalAlign=top;spacingLeft=4;spacingRight=4;overflow=hidden;rotatable=0;points=[[0,0.5],[1,0.5]];portConstraint=eastwest;" parent="m8PIFnoMGad8uP0K9j40-2" vertex="1">
          <mxGeometry y="50" width="560" height="38" as="geometry" />
        </mxCell>
        <mxCell id="ZLtzulAEG12qj5SxT5-5-34" value="Use" style="endArrow=open;endSize=12;dashed=1;html=1;rounded=0;edgeStyle=orthogonalEdgeStyle;entryX=-0.001;entryY=0.169;entryDx=0;entryDy=0;entryPerimeter=0;" edge="1" parent="m8PIFnoMGad8uP0K9j40-2" target="m8PIFnoMGad8uP0K9j40-39">
          <mxGeometry width="160" relative="1" as="geometry">
            <mxPoint y="100" as="sourcePoint" />
            <mxPoint x="160" y="100" as="targetPoint" />
            <Array as="points">
              <mxPoint x="-30" y="100" />
              <mxPoint x="-30" y="-50" />
              <mxPoint x="330" y="-50" />
              <mxPoint x="330" y="-216" />
            </Array>
          </mxGeometry>
        </mxCell>
        <mxCell id="Vg_vFvyBdRH64RmHOJFF-40" value="+ pageFetcher: PageFetcher" style="text;strokeColor=none;fillColor=none;align=left;verticalAlign=top;spacingLeft=4;spacingRight=4;overflow=hidden;rotatable=0;points=[[0,0.5],[1,0.5]];portConstraint=eastwest;" parent="m8PIFnoMGad8uP0K9j40-2" vertex="1">
          <mxGeometry y="88" width="560" height="38" as="geometry" />
        </mxCell>
        <mxCell id="ZLtzulAEG12qj5SxT5-5-35" value="Use" style="endArrow=open;endSize=12;dashed=1;html=1;rounded=0;edgeStyle=orthogonalEdgeStyle;entryX=-0.012;entryY=0.126;entryDx=0;entryDy=0;entryPerimeter=0;" edge="1" parent="m8PIFnoMGad8uP0K9j40-2" target="m8PIFnoMGad8uP0K9j40-74">
          <mxGeometry width="160" relative="1" as="geometry">
            <mxPoint y="140" as="sourcePoint" />
            <mxPoint x="160" y="140" as="targetPoint" />
            <Array as="points">
              <mxPoint x="-30" y="140" />
              <mxPoint x="-30" y="-219" />
            </Array>
          </mxGeometry>
        </mxCell>
        <mxCell id="Vg_vFvyBdRH64RmHOJFF-43" value="+ urlToDocidConverter: URLtoDocidConverter" style="text;strokeColor=none;fillColor=none;align=left;verticalAlign=top;spacingLeft=4;spacingRight=4;overflow=hidden;rotatable=0;points=[[0,0.5],[1,0.5]];portConstraint=eastwest;" parent="m8PIFnoMGad8uP0K9j40-2" vertex="1">
          <mxGeometry y="126" width="560" height="38" as="geometry" />
        </mxCell>
        <mxCell id="Vg_vFvyBdRH64RmHOJFF-47" value="+ seoSuggester: SEOSuggester" style="text;strokeColor=none;fillColor=none;align=left;verticalAlign=top;spacingLeft=4;spacingRight=4;overflow=hidden;rotatable=0;points=[[0,0.5],[1,0.5]];portConstraint=eastwest;" parent="m8PIFnoMGad8uP0K9j40-2" vertex="1">
          <mxGeometry y="164" width="560" height="32" as="geometry" />
        </mxCell>
        <mxCell id="ZLtzulAEG12qj5SxT5-5-25" value="Use" style="endArrow=open;endSize=12;dashed=1;html=1;rounded=0;edgeStyle=orthogonalEdgeStyle;entryX=1;entryY=0.25;entryDx=0;entryDy=0;" edge="1" parent="m8PIFnoMGad8uP0K9j40-2" target="Vg_vFvyBdRH64RmHOJFF-36">
          <mxGeometry width="160" relative="1" as="geometry">
            <mxPoint y="180" as="sourcePoint" />
            <mxPoint x="160" y="180" as="targetPoint" />
          </mxGeometry>
        </mxCell>
        <mxCell id="m8PIFnoMGad8uP0K9j40-8" value="" style="line;strokeWidth=1;fillColor=none;align=left;verticalAlign=middle;spacingTop=-1;spacingLeft=3;spacingRight=3;rotatable=0;labelPosition=right;points=[];portConstraint=eastwest;" parent="m8PIFnoMGad8uP0K9j40-2" vertex="1">
          <mxGeometry y="196" width="560" height="8" as="geometry" />
        </mxCell>
        <mxCell id="m8PIFnoMGad8uP0K9j40-7" value="+ handleVisitRequest(request: VisitPageRequest): void&#xa;+ handleExtendedVisitRequest(ExtendedVIsitPageRequest): ExtendedVisitPageResponse" style="text;strokeColor=none;fillColor=none;align=left;verticalAlign=top;spacingLeft=4;spacingRight=4;overflow=hidden;rotatable=0;points=[[0,0.5],[1,0.5]];portConstraint=eastwest;" parent="m8PIFnoMGad8uP0K9j40-2" vertex="1">
          <mxGeometry y="204" width="560" height="54" as="geometry" />
        </mxCell>
        <mxCell id="m8PIFnoMGad8uP0K9j40-35" value="Calculates SEO rank but not suggestions.&lt;br&gt;If search engine will calculate (and maybe cache) suggestions each time it indexes document, it will lead to waste of resources&amp;nbsp;&amp;nbsp;" style="shape=note;size=20;whiteSpace=wrap;html=1;" parent="1" vertex="1">
          <mxGeometry x="1330" y="570" width="290" height="75" as="geometry" />
        </mxCell>
        <mxCell id="m8PIFnoMGad8uP0K9j40-36" value="" style="endArrow=none;html=1;edgeStyle=orthogonalEdgeStyle;rounded=0;entryX=0.276;entryY=-0.027;entryDx=0;entryDy=0;entryPerimeter=0;exitX=0.273;exitY=1.115;exitDx=0;exitDy=0;exitPerimeter=0;" parent="1" source="B37MmopoNUqpj75_Dg1A-36" target="m8PIFnoMGad8uP0K9j40-35" edge="1">
          <mxGeometry relative="1" as="geometry">
            <mxPoint x="1285" y="540" as="sourcePoint" />
            <mxPoint x="1445" y="540" as="targetPoint" />
            <Array as="points">
              <mxPoint x="1410" y="560" />
              <mxPoint x="1410" y="560" />
            </Array>
          </mxGeometry>
        </mxCell>
        <mxCell id="m8PIFnoMGad8uP0K9j40-39" value="PageFetcher" style="swimlane;fontStyle=1;align=center;verticalAlign=top;childLayout=stackLayout;horizontal=1;startSize=26;horizontalStack=0;resizeParent=1;resizeParentMax=0;resizeLast=0;collapsible=1;marginBottom=0;" parent="1" vertex="1">
          <mxGeometry x="3120" y="270" width="290" height="84" as="geometry" />
        </mxCell>
        <mxCell id="m8PIFnoMGad8uP0K9j40-81" value="+ dataServerConnection: ServerManager" style="text;strokeColor=none;fillColor=none;align=left;verticalAlign=top;spacingLeft=4;spacingRight=4;overflow=hidden;rotatable=0;points=[[0,0.5],[1,0.5]];portConstraint=eastwest;" parent="m8PIFnoMGad8uP0K9j40-39" vertex="1">
          <mxGeometry y="26" width="290" height="24" as="geometry" />
        </mxCell>
        <mxCell id="m8PIFnoMGad8uP0K9j40-41" value="" style="line;strokeWidth=1;fillColor=none;align=left;verticalAlign=middle;spacingTop=-1;spacingLeft=3;spacingRight=3;rotatable=0;labelPosition=right;points=[];portConstraint=eastwest;" parent="m8PIFnoMGad8uP0K9j40-39" vertex="1">
          <mxGeometry y="50" width="290" height="8" as="geometry" />
        </mxCell>
        <mxCell id="m8PIFnoMGad8uP0K9j40-42" value="+ fetchLivePage(url: String): DocumentIndexModel" style="text;strokeColor=none;fillColor=none;align=left;verticalAlign=top;spacingLeft=4;spacingRight=4;overflow=hidden;rotatable=0;points=[[0,0.5],[1,0.5]];portConstraint=eastwest;" parent="m8PIFnoMGad8uP0K9j40-39" vertex="1">
          <mxGeometry y="58" width="290" height="26" as="geometry" />
        </mxCell>
        <mxCell id="m8PIFnoMGad8uP0K9j40-74" value="URLtoDocidConverter" style="swimlane;fontStyle=1;align=center;verticalAlign=top;childLayout=stackLayout;horizontal=1;startSize=26;horizontalStack=0;resizeParent=1;resizeParentMax=0;resizeLast=0;collapsible=1;marginBottom=0;" parent="1" vertex="1">
          <mxGeometry x="2760" y="270" width="230" height="90" as="geometry" />
        </mxCell>
        <mxCell id="m8PIFnoMGad8uP0K9j40-78" value="+ dataServerConnection: ServerManager" style="text;whiteSpace=wrap;html=1;" parent="m8PIFnoMGad8uP0K9j40-74" vertex="1">
          <mxGeometry y="26" width="230" height="30" as="geometry" />
        </mxCell>
        <mxCell id="m8PIFnoMGad8uP0K9j40-76" value="" style="line;strokeWidth=1;fillColor=none;align=left;verticalAlign=middle;spacingTop=-1;spacingLeft=3;spacingRight=3;rotatable=0;labelPosition=right;points=[];portConstraint=eastwest;" parent="m8PIFnoMGad8uP0K9j40-74" vertex="1">
          <mxGeometry y="56" width="230" height="8" as="geometry" />
        </mxCell>
        <mxCell id="m8PIFnoMGad8uP0K9j40-77" value="convert(url: String): Int" style="text;strokeColor=none;fillColor=none;align=left;verticalAlign=top;spacingLeft=4;spacingRight=4;overflow=hidden;rotatable=0;points=[[0,0.5],[1,0.5]];portConstraint=eastwest;" parent="m8PIFnoMGad8uP0K9j40-74" vertex="1">
          <mxGeometry y="64" width="230" height="26" as="geometry" />
        </mxCell>
        <mxCell id="m8PIFnoMGad8uP0K9j40-82" value="Page visit controller is responsible for redirecting user to page. Since unless our web engine uses browser extension it&#39;s impossible to run additional scripts required to display suggestions and rank on the page. Let&#39;s assume that if user has developer mode enabled, iframe is used to display the page and information about SEO is placed outside of it (another approach is to resolve dependencies from the original website and use them on generated by engine page. It will make DOM of the page editable, but restrict site functionality, as example CSRF tokens will be invalid). Otherwise user gets redirected to the original website in order to save site functionality and UX.&lt;br&gt;When user enters live URL, crawler downloads document, then indexer indexes document and retr" style="shape=note;size=20;whiteSpace=wrap;html=1;" parent="1" vertex="1">
          <mxGeometry x="3860" y="-662" width="485" height="180" as="geometry" />
        </mxCell>
        <mxCell id="u-7sVttWgLM-PdHD-KK4-2" value="HTMLParser" style="swimlane;fontStyle=1;align=center;verticalAlign=top;childLayout=stackLayout;horizontal=1;startSize=26;horizontalStack=0;resizeParent=1;resizeParentMax=0;resizeLast=0;collapsible=1;marginBottom=0;" parent="1" vertex="1">
          <mxGeometry x="1940" y="264" width="280" height="64" as="geometry" />
        </mxCell>
        <mxCell id="u-7sVttWgLM-PdHD-KK4-7" value="+ parse(is: InputStream): Document&#xa;+ select(doc: Document): Element [0..*]" style="text;strokeColor=none;fillColor=none;align=left;verticalAlign=top;spacingLeft=4;spacingRight=4;overflow=hidden;rotatable=0;points=[[0,0.5],[1,0.5]];portConstraint=eastwest;" parent="u-7sVttWgLM-PdHD-KK4-2" vertex="1">
          <mxGeometry y="26" width="280" height="38" as="geometry" />
        </mxCell>
        <mxCell id="u-7sVttWgLM-PdHD-KK4-8" value="Since building HTML parser from scratch is hard task, real projects most probably will depend on some third party library. Since we are implementing project in Java, let&#39;s assume that we are using Jsoup library interface.&amp;nbsp;" style="shape=note;size=20;whiteSpace=wrap;html=1;" parent="1" vertex="1">
          <mxGeometry x="1660" y="198" width="210" height="130" as="geometry" />
        </mxCell>
        <mxCell id="u-7sVttWgLM-PdHD-KK4-9" value="" style="endArrow=none;html=1;edgeStyle=orthogonalEdgeStyle;rounded=0;exitX=0.995;exitY=0.723;exitDx=0;exitDy=0;exitPerimeter=0;entryX=-0.008;entryY=0.154;entryDx=0;entryDy=0;entryPerimeter=0;" parent="1" source="u-7sVttWgLM-PdHD-KK4-8" target="u-7sVttWgLM-PdHD-KK4-7" edge="1">
          <mxGeometry relative="1" as="geometry">
            <mxPoint x="1870" y="320" as="sourcePoint" />
            <mxPoint x="2030" y="320" as="targetPoint" />
          </mxGeometry>
        </mxCell>
        <mxCell id="Vg_vFvyBdRH64RmHOJFF-3" value="plainDocId - ID of unparsed compressed document stored in server" style="shape=note;size=20;whiteSpace=wrap;html=1;" parent="1" vertex="1">
          <mxGeometry x="150" y="1150" width="170" height="50" as="geometry" />
        </mxCell>
        <mxCell id="Vg_vFvyBdRH64RmHOJFF-4" value="" style="endArrow=none;html=1;edgeStyle=orthogonalEdgeStyle;rounded=0;exitX=0;exitY=0;exitDx=170;exitDy=35;exitPerimeter=0;entryX=-0.006;entryY=0.269;entryDx=0;entryDy=0;entryPerimeter=0;" parent="1" source="Vg_vFvyBdRH64RmHOJFF-3" target="VXNcRWfN4zNZ4ETa913i-6" edge="1">
          <mxGeometry relative="1" as="geometry">
            <mxPoint x="380" y="1190" as="sourcePoint" />
            <mxPoint x="540" y="1190" as="targetPoint" />
          </mxGeometry>
        </mxCell>
        <mxCell id="Vg_vFvyBdRH64RmHOJFF-25" value="VisitPageRequest" style="swimlane;fontStyle=1;align=center;verticalAlign=top;childLayout=stackLayout;horizontal=1;startSize=26;horizontalStack=0;resizeParent=1;resizeParentMax=0;resizeLast=0;collapsible=1;marginBottom=0;" parent="1" vertex="1">
          <mxGeometry x="3412.5" y="924" width="275" height="52" as="geometry" />
        </mxCell>
        <mxCell id="Vg_vFvyBdRH64RmHOJFF-26" value="+ requestSchemeTemplate: RequestScheme" style="text;strokeColor=none;fillColor=none;align=left;verticalAlign=top;spacingLeft=4;spacingRight=4;overflow=hidden;rotatable=0;points=[[0,0.5],[1,0.5]];portConstraint=eastwest;" parent="Vg_vFvyBdRH64RmHOJFF-25" vertex="1">
          <mxGeometry y="26" width="275" height="26" as="geometry" />
        </mxCell>
        <mxCell id="Vg_vFvyBdRH64RmHOJFF-27" value="ExtendedVisitPageResponse" style="swimlane;fontStyle=1;align=center;verticalAlign=top;childLayout=stackLayout;horizontal=1;startSize=26;horizontalStack=0;resizeParent=1;resizeParentMax=0;resizeLast=0;collapsible=1;marginBottom=0;" parent="1" vertex="1">
          <mxGeometry x="3090" y="810" width="275" height="52" as="geometry" />
        </mxCell>
        <mxCell id="Vg_vFvyBdRH64RmHOJFF-28" value="+ responseSchemeTemplate: ResponseScheme" style="text;strokeColor=none;fillColor=none;align=left;verticalAlign=top;spacingLeft=4;spacingRight=4;overflow=hidden;rotatable=0;points=[[0,0.5],[1,0.5]];portConstraint=eastwest;" parent="Vg_vFvyBdRH64RmHOJFF-27" vertex="1">
          <mxGeometry y="26" width="275" height="26" as="geometry" />
        </mxCell>
        <mxCell id="Vg_vFvyBdRH64RmHOJFF-29" value="ExtendedVisitPageRequest" style="swimlane;fontStyle=1;align=center;verticalAlign=top;childLayout=stackLayout;horizontal=1;startSize=26;horizontalStack=0;resizeParent=1;resizeParentMax=0;resizeLast=0;collapsible=1;marginBottom=0;" parent="1" vertex="1">
          <mxGeometry x="3420" y="810" width="275" height="52" as="geometry" />
        </mxCell>
        <mxCell id="Vg_vFvyBdRH64RmHOJFF-30" value="+ requestSchemeTemplate: RequestScheme" style="text;strokeColor=none;fillColor=none;align=left;verticalAlign=top;spacingLeft=4;spacingRight=4;overflow=hidden;rotatable=0;points=[[0,0.5],[1,0.5]];portConstraint=eastwest;" parent="Vg_vFvyBdRH64RmHOJFF-29" vertex="1">
          <mxGeometry y="26" width="275" height="26" as="geometry" />
        </mxCell>
        <mxCell id="Vg_vFvyBdRH64RmHOJFF-32" value="" style="endArrow=open;endFill=1;endSize=12;html=1;rounded=0;edgeStyle=orthogonalEdgeStyle;entryX=1;entryY=0.25;entryDx=0;entryDy=0;exitX=1.004;exitY=0.204;exitDx=0;exitDy=0;exitPerimeter=0;" parent="1" source="m8PIFnoMGad8uP0K9j40-7" target="Vg_vFvyBdRH64RmHOJFF-25" edge="1">
          <mxGeometry width="160" relative="1" as="geometry">
            <mxPoint x="3520" y="-190" as="sourcePoint" />
            <mxPoint x="3680" y="-190" as="targetPoint" />
            <Array as="points">
              <mxPoint x="3790" y="715" />
              <mxPoint x="3790" y="937" />
            </Array>
          </mxGeometry>
        </mxCell>
        <mxCell id="Vg_vFvyBdRH64RmHOJFF-33" value="" style="endArrow=open;endFill=1;endSize=12;html=1;rounded=0;edgeStyle=orthogonalEdgeStyle;entryX=0.847;entryY=0.019;entryDx=0;entryDy=0;entryPerimeter=0;exitX=1;exitY=0.5;exitDx=0;exitDy=0;" parent="1" target="Vg_vFvyBdRH64RmHOJFF-27" edge="1" source="m8PIFnoMGad8uP0K9j40-7">
          <mxGeometry width="160" relative="1" as="geometry">
            <mxPoint x="3090" y="500" as="sourcePoint" />
            <mxPoint x="3592.925" y="-418.98800000000006" as="targetPoint" />
            <Array as="points">
              <mxPoint x="3360" y="731" />
              <mxPoint x="3360" y="780" />
              <mxPoint x="3323" y="780" />
            </Array>
          </mxGeometry>
        </mxCell>
        <mxCell id="Vg_vFvyBdRH64RmHOJFF-34" value="" style="endArrow=open;endFill=1;endSize=12;html=1;rounded=0;edgeStyle=orthogonalEdgeStyle;entryX=0.372;entryY=-0.058;entryDx=0;entryDy=0;entryPerimeter=0;exitX=1;exitY=0.5;exitDx=0;exitDy=0;" parent="1" source="m8PIFnoMGad8uP0K9j40-7" target="Vg_vFvyBdRH64RmHOJFF-29" edge="1">
          <mxGeometry width="160" relative="1" as="geometry">
            <mxPoint x="3107" y="130" as="sourcePoint" />
            <mxPoint x="3882.925" y="-418" as="targetPoint" />
            <Array as="points">
              <mxPoint x="3522" y="731" />
            </Array>
          </mxGeometry>
        </mxCell>
        <mxCell id="Vg_vFvyBdRH64RmHOJFF-36" value="SEOSuggester" style="swimlane;fontStyle=1;align=center;verticalAlign=top;childLayout=stackLayout;horizontal=1;startSize=26;horizontalStack=0;resizeParent=1;resizeParentMax=0;resizeLast=0;collapsible=1;marginBottom=0;" parent="1" vertex="1">
          <mxGeometry x="2280" y="446" width="360" height="80" as="geometry" />
        </mxCell>
        <mxCell id="ZLtzulAEG12qj5SxT5-5-48" value="Use" style="endArrow=open;endSize=12;dashed=1;html=1;rounded=0;edgeStyle=orthogonalEdgeStyle;entryX=1;entryY=0.5;entryDx=0;entryDy=0;" edge="1" parent="Vg_vFvyBdRH64RmHOJFF-36" target="UL4YKMBXZopJeCdpC2au-59">
          <mxGeometry width="160" relative="1" as="geometry">
            <mxPoint y="34" as="sourcePoint" />
            <mxPoint x="160" y="34" as="targetPoint" />
            <Array as="points">
              <mxPoint x="-50" y="34" />
              <mxPoint x="-50" y="-206" />
              <mxPoint x="-150" y="-206" />
              <mxPoint x="-150" y="-362" />
            </Array>
          </mxGeometry>
        </mxCell>
        <mxCell id="Vg_vFvyBdRH64RmHOJFF-46" value="+ dataServerConnection: ServerManager" style="text;strokeColor=none;fillColor=none;align=left;verticalAlign=top;spacingLeft=4;spacingRight=4;overflow=hidden;rotatable=0;points=[[0,0.5],[1,0.5]];portConstraint=eastwest;" parent="Vg_vFvyBdRH64RmHOJFF-36" vertex="1">
          <mxGeometry y="26" width="360" height="24" as="geometry" />
        </mxCell>
        <mxCell id="Vg_vFvyBdRH64RmHOJFF-38" value="" style="line;strokeWidth=1;fillColor=none;align=left;verticalAlign=middle;spacingTop=-1;spacingLeft=3;spacingRight=3;rotatable=0;labelPosition=right;points=[];portConstraint=eastwest;" parent="Vg_vFvyBdRH64RmHOJFF-36" vertex="1">
          <mxGeometry y="50" width="360" height="8" as="geometry" />
        </mxCell>
        <mxCell id="Vg_vFvyBdRH64RmHOJFF-39" value="+ getSEOSuggestions(doc: DocumentIndexModel): SEOAspect" style="text;strokeColor=none;fillColor=none;align=left;verticalAlign=top;spacingLeft=4;spacingRight=4;overflow=hidden;rotatable=0;points=[[0,0.5],[1,0.5]];portConstraint=eastwest;" parent="Vg_vFvyBdRH64RmHOJFF-36" vertex="1">
          <mxGeometry y="58" width="360" height="22" as="geometry" />
        </mxCell>
        <mxCell id="j1ZgMSjSYDwOwTBpWPhx-3" value="VoiceSearchRequest" style="swimlane;fontStyle=1;align=center;verticalAlign=top;childLayout=stackLayout;horizontal=1;startSize=26;horizontalStack=0;resizeParent=1;resizeParentMax=0;resizeLast=0;collapsible=1;marginBottom=0;" parent="1" vertex="1">
          <mxGeometry x="5510" y="850" width="260" height="60" as="geometry" />
        </mxCell>
        <mxCell id="j1ZgMSjSYDwOwTBpWPhx-4" value="+ requestSchemeTemplate: RequestScheme" style="text;strokeColor=none;fillColor=none;align=left;verticalAlign=top;spacingLeft=4;spacingRight=4;overflow=hidden;rotatable=0;points=[[0,0.5],[1,0.5]];portConstraint=eastwest;" parent="j1ZgMSjSYDwOwTBpWPhx-3" vertex="1">
          <mxGeometry y="26" width="260" height="26" as="geometry" />
        </mxCell>
        <mxCell id="j1ZgMSjSYDwOwTBpWPhx-5" value="" style="line;strokeWidth=1;fillColor=none;align=left;verticalAlign=middle;spacingTop=-1;spacingLeft=3;spacingRight=3;rotatable=0;labelPosition=right;points=[];portConstraint=eastwest;" parent="j1ZgMSjSYDwOwTBpWPhx-3" vertex="1">
          <mxGeometry y="52" width="260" height="8" as="geometry" />
        </mxCell>
        <mxCell id="4URgF8J09XDzKeIFWTpl-6" value="" style="endArrow=none;endSize=16;endFill=0;html=1;rounded=0;edgeStyle=orthogonalEdgeStyle;exitX=0.5;exitY=0;exitDx=0;exitDy=0;" parent="1" source="j1ZgMSjSYDwOwTBpWPhx-3" target="j1ZgMSjSYDwOwTBpWPhx-3" edge="1">
          <mxGeometry width="160" relative="1" as="geometry">
            <mxPoint x="5670" y="886" as="sourcePoint" />
            <mxPoint x="5880" y="778.9999999999995" as="targetPoint" />
            <Array as="points">
              <mxPoint x="5640" y="890" />
              <mxPoint x="5640" y="890" />
            </Array>
          </mxGeometry>
        </mxCell>
        <mxCell id="j1ZgMSjSYDwOwTBpWPhx-9" value="ImageSearchRequest" style="swimlane;fontStyle=1;align=center;verticalAlign=top;childLayout=stackLayout;horizontal=1;startSize=26;horizontalStack=0;resizeParent=1;resizeParentMax=0;resizeLast=0;collapsible=1;marginBottom=0;" parent="1" vertex="1">
          <mxGeometry x="6040" y="850" width="260" height="60" as="geometry" />
        </mxCell>
        <mxCell id="j1ZgMSjSYDwOwTBpWPhx-10" value="+ requestSchemeTemplate: RequestScheme" style="text;strokeColor=none;fillColor=none;align=left;verticalAlign=top;spacingLeft=4;spacingRight=4;overflow=hidden;rotatable=0;points=[[0,0.5],[1,0.5]];portConstraint=eastwest;" parent="j1ZgMSjSYDwOwTBpWPhx-9" vertex="1">
          <mxGeometry y="26" width="260" height="26" as="geometry" />
        </mxCell>
        <mxCell id="j1ZgMSjSYDwOwTBpWPhx-11" value="" style="line;strokeWidth=1;fillColor=none;align=left;verticalAlign=middle;spacingTop=-1;spacingLeft=3;spacingRight=3;rotatable=0;labelPosition=right;points=[];portConstraint=eastwest;" parent="j1ZgMSjSYDwOwTBpWPhx-9" vertex="1">
          <mxGeometry y="52" width="260" height="8" as="geometry" />
        </mxCell>
        <mxCell id="4URgF8J09XDzKeIFWTpl-7" value="" style="endArrow=none;endSize=16;endFill=0;html=1;rounded=0;edgeStyle=orthogonalEdgeStyle;" parent="1" edge="1">
          <mxGeometry width="160" relative="1" as="geometry">
            <mxPoint x="6100" y="850" as="sourcePoint" />
            <mxPoint x="5990" y="833" as="targetPoint" />
            <Array as="points">
              <mxPoint x="6100" y="833" />
              <mxPoint x="5880" y="833" />
            </Array>
          </mxGeometry>
        </mxCell>
        <mxCell id="4URgF8J09XDzKeIFWTpl-8" value="RequestScheme" style="swimlane;fontStyle=1;align=center;verticalAlign=top;childLayout=stackLayout;horizontal=1;startSize=26;horizontalStack=0;resizeParent=1;resizeParentMax=0;resizeLast=0;collapsible=1;marginBottom=0;" parent="1" vertex="1">
          <mxGeometry x="5690" y="1038" width="290" height="104" as="geometry" />
        </mxCell>
        <mxCell id="4URgF8J09XDzKeIFWTpl-9" value="+ queryLine: String" style="text;strokeColor=none;fillColor=none;align=left;verticalAlign=top;spacingLeft=4;spacingRight=4;overflow=hidden;rotatable=0;points=[[0,0.5],[1,0.5]];portConstraint=eastwest;" parent="4URgF8J09XDzKeIFWTpl-8" vertex="1">
          <mxGeometry y="26" width="290" height="26" as="geometry" />
        </mxCell>
        <mxCell id="4URgF8J09XDzKeIFWTpl-10" value="+ headers: String" style="text;strokeColor=none;fillColor=none;align=left;verticalAlign=top;spacingLeft=4;spacingRight=4;overflow=hidden;rotatable=0;points=[[0,0.5],[1,0.5]];portConstraint=eastwest;" parent="4URgF8J09XDzKeIFWTpl-8" vertex="1">
          <mxGeometry y="52" width="290" height="26" as="geometry" />
        </mxCell>
        <mxCell id="4URgF8J09XDzKeIFWTpl-11" value="+ messageBody: MessagetBody" style="text;strokeColor=none;fillColor=none;align=left;verticalAlign=top;spacingLeft=4;spacingRight=4;overflow=hidden;rotatable=0;points=[[0,0.5],[1,0.5]];portConstraint=eastwest;" parent="4URgF8J09XDzKeIFWTpl-8" vertex="1">
          <mxGeometry y="78" width="290" height="26" as="geometry" />
        </mxCell>
        <mxCell id="4URgF8J09XDzKeIFWTpl-14" value="ResponseScheme" style="swimlane;fontStyle=1;align=center;verticalAlign=top;childLayout=stackLayout;horizontal=1;startSize=26;horizontalStack=0;resizeParent=1;resizeParentMax=0;resizeLast=0;collapsible=1;marginBottom=0;" parent="1" vertex="1">
          <mxGeometry x="5050" y="1038" width="310" height="104" as="geometry" />
        </mxCell>
        <mxCell id="4URgF8J09XDzKeIFWTpl-15" value="+ statusLine: String" style="text;strokeColor=none;fillColor=none;align=left;verticalAlign=top;spacingLeft=4;spacingRight=4;overflow=hidden;rotatable=0;points=[[0,0.5],[1,0.5]];portConstraint=eastwest;" parent="4URgF8J09XDzKeIFWTpl-14" vertex="1">
          <mxGeometry y="26" width="310" height="26" as="geometry" />
        </mxCell>
        <mxCell id="4URgF8J09XDzKeIFWTpl-16" value="+ headers: String" style="text;strokeColor=none;fillColor=none;align=left;verticalAlign=top;spacingLeft=4;spacingRight=4;overflow=hidden;rotatable=0;points=[[0,0.5],[1,0.5]];portConstraint=eastwest;" parent="4URgF8J09XDzKeIFWTpl-14" vertex="1">
          <mxGeometry y="52" width="310" height="26" as="geometry" />
        </mxCell>
        <mxCell id="4URgF8J09XDzKeIFWTpl-17" value="+ messageBody: MessageBody" style="text;strokeColor=none;fillColor=none;align=left;verticalAlign=top;spacingLeft=4;spacingRight=4;overflow=hidden;rotatable=0;points=[[0,0.5],[1,0.5]];portConstraint=eastwest;" parent="4URgF8J09XDzKeIFWTpl-14" vertex="1">
          <mxGeometry y="78" width="310" height="26" as="geometry" />
        </mxCell>
        <mxCell id="4URgF8J09XDzKeIFWTpl-21" value="MessageBody" style="html=1;" parent="1" vertex="1">
          <mxGeometry x="5470" y="1182" width="110" height="50" as="geometry" />
        </mxCell>
        <mxCell id="4URgF8J09XDzKeIFWTpl-22" value="" style="endArrow=diamondThin;endFill=0;endSize=24;html=1;rounded=0;edgeStyle=orthogonalEdgeStyle;entryX=1;entryY=0.5;entryDx=0;entryDy=0;exitX=0;exitY=0.5;exitDx=0;exitDy=0;" parent="1" source="4URgF8J09XDzKeIFWTpl-11" target="4URgF8J09XDzKeIFWTpl-21" edge="1">
          <mxGeometry width="160" relative="1" as="geometry">
            <mxPoint x="5640" y="1160" as="sourcePoint" />
            <mxPoint x="5760" y="1210" as="targetPoint" />
          </mxGeometry>
        </mxCell>
        <mxCell id="4URgF8J09XDzKeIFWTpl-23" value="" style="endArrow=diamondThin;endFill=0;endSize=24;html=1;rounded=0;edgeStyle=orthogonalEdgeStyle;entryX=0;entryY=0.5;entryDx=0;entryDy=0;" parent="1" source="4URgF8J09XDzKeIFWTpl-17" target="4URgF8J09XDzKeIFWTpl-21" edge="1">
          <mxGeometry width="160" relative="1" as="geometry">
            <mxPoint x="5440" y="1110" as="sourcePoint" />
            <mxPoint x="5600" y="1110" as="targetPoint" />
          </mxGeometry>
        </mxCell>
        <mxCell id="4URgF8J09XDzKeIFWTpl-24" value="" style="endArrow=open;endFill=1;endSize=12;html=1;rounded=0;edgeStyle=orthogonalEdgeStyle;" parent="1" source="j1ZgMSjSYDwOwTBpWPhx-2" target="4URgF8J09XDzKeIFWTpl-8" edge="1">
          <mxGeometry width="160" relative="1" as="geometry">
            <mxPoint x="6105" y="769" as="sourcePoint" />
            <mxPoint x="6265" y="769" as="targetPoint" />
            <Array as="points">
              <mxPoint x="6340" y="769" />
              <mxPoint x="6340" y="960" />
              <mxPoint x="5835" y="960" />
            </Array>
          </mxGeometry>
        </mxCell>
        <mxCell id="4URgF8J09XDzKeIFWTpl-25" value="" style="endArrow=open;endFill=1;endSize=12;html=1;rounded=0;edgeStyle=orthogonalEdgeStyle;entryX=0.5;entryY=0;entryDx=0;entryDy=0;" parent="1" source="j1ZgMSjSYDwOwTBpWPhx-16" target="4URgF8J09XDzKeIFWTpl-14" edge="1">
          <mxGeometry width="160" relative="1" as="geometry">
            <mxPoint x="5190" y="750" as="sourcePoint" />
            <mxPoint x="5350" y="750" as="targetPoint" />
            <Array as="points">
              <mxPoint x="5480" y="740" />
              <mxPoint x="5480" y="970" />
              <mxPoint x="5205" y="970" />
            </Array>
          </mxGeometry>
        </mxCell>
        <mxCell id="ZLtzulAEG12qj5SxT5-5-1" value="" style="endArrow=open;endFill=1;endSize=12;html=1;rounded=0;edgeStyle=orthogonalEdgeStyle;exitX=0;exitY=0.5;exitDx=0;exitDy=0;entryX=0.75;entryY=0;entryDx=0;entryDy=0;" edge="1" parent="1" source="yS8y4EqdHsvdQgxTJSFS-77" target="j1ZgMSjSYDwOwTBpWPhx-15">
          <mxGeometry width="160" relative="1" as="geometry">
            <mxPoint x="5810" y="400" as="sourcePoint" />
            <mxPoint x="5970" y="400" as="targetPoint" />
            <Array as="points">
              <mxPoint x="5040" y="391" />
              <mxPoint x="5040" y="640" />
              <mxPoint x="5120" y="640" />
            </Array>
          </mxGeometry>
        </mxCell>
        <mxCell id="yS8y4EqdHsvdQgxTJSFS-47" value="Analytics" style="swimlane;fontStyle=1;align=center;verticalAlign=top;childLayout=stackLayout;horizontal=1;startSize=26;horizontalStack=0;resizeParent=1;resizeParentMax=0;resizeLast=0;collapsible=1;marginBottom=0;" parent="1" vertex="1">
          <mxGeometry x="3400" y="-246" width="300" height="90" as="geometry" />
        </mxCell>
        <mxCell id="ZLtzulAEG12qj5SxT5-5-41" value="Use" style="endArrow=open;endSize=12;dashed=1;html=1;rounded=0;edgeStyle=orthogonalEdgeStyle;entryX=1;entryY=0.5;entryDx=0;entryDy=0;" edge="1" parent="yS8y4EqdHsvdQgxTJSFS-47" target="UL4YKMBXZopJeCdpC2au-59">
          <mxGeometry width="160" relative="1" as="geometry">
            <mxPoint y="36" as="sourcePoint" />
            <mxPoint x="160" y="36" as="targetPoint" />
            <Array as="points">
              <mxPoint x="-1700" y="36" />
              <mxPoint x="-1700" y="330" />
            </Array>
          </mxGeometry>
        </mxCell>
        <mxCell id="3ZD-ds__CDtL9bY-RWLM-26" value="+ analyticsServerConnection: ServerManager" style="text;whiteSpace=wrap;html=1;" parent="yS8y4EqdHsvdQgxTJSFS-47" vertex="1">
          <mxGeometry y="26" width="300" height="30" as="geometry" />
        </mxCell>
        <mxCell id="yS8y4EqdHsvdQgxTJSFS-49" value="" style="line;strokeWidth=1;fillColor=none;align=left;verticalAlign=middle;spacingTop=-1;spacingLeft=3;spacingRight=3;rotatable=0;labelPosition=right;points=[];portConstraint=eastwest;" parent="yS8y4EqdHsvdQgxTJSFS-47" vertex="1">
          <mxGeometry y="56" width="300" height="8" as="geometry" />
        </mxCell>
        <mxCell id="yS8y4EqdHsvdQgxTJSFS-50" value="gatherAnalytics(request: SearchRequest): void" style="text;strokeColor=none;fillColor=none;align=left;verticalAlign=top;spacingLeft=4;spacingRight=4;overflow=hidden;rotatable=0;points=[[0,0.5],[1,0.5]];portConstraint=eastwest;" parent="yS8y4EqdHsvdQgxTJSFS-47" vertex="1">
          <mxGeometry y="64" width="300" height="26" as="geometry" />
        </mxCell>
        <mxCell id="m8PIFnoMGad8uP0K9j40-16" value="PageVisitsAnalytics" style="swimlane;fontStyle=1;align=center;verticalAlign=top;childLayout=stackLayout;horizontal=1;startSize=26;horizontalStack=0;resizeParent=1;resizeParentMax=0;resizeLast=0;collapsible=1;marginBottom=0;" parent="1" vertex="1">
          <mxGeometry x="2650" y="-12" width="270" height="60" as="geometry" />
        </mxCell>
        <mxCell id="m8PIFnoMGad8uP0K9j40-17" value="" style="line;strokeWidth=1;fillColor=none;align=left;verticalAlign=middle;spacingTop=-1;spacingLeft=3;spacingRight=3;rotatable=0;labelPosition=right;points=[];portConstraint=eastwest;" parent="m8PIFnoMGad8uP0K9j40-16" vertex="1">
          <mxGeometry y="26" width="270" height="8" as="geometry" />
        </mxCell>
        <mxCell id="4URgF8J09XDzKeIFWTpl-2" value="gatherAnalytics(request: SearchRequest): void" style="text;strokeColor=none;fillColor=none;align=left;verticalAlign=top;spacingLeft=4;spacingRight=4;overflow=hidden;rotatable=0;points=[[0,0.5],[1,0.5]];portConstraint=eastwest;" parent="m8PIFnoMGad8uP0K9j40-16" vertex="1">
          <mxGeometry y="34" width="270" height="26" as="geometry" />
        </mxCell>
        <mxCell id="ZLtzulAEG12qj5SxT5-5-31" value="" style="endArrow=block;endSize=16;endFill=0;html=1;rounded=0;edgeStyle=orthogonalEdgeStyle;exitX=0.5;exitY=0;exitDx=0;exitDy=0;" edge="1" parent="m8PIFnoMGad8uP0K9j40-16" source="m8PIFnoMGad8uP0K9j40-16">
          <mxGeometry width="160" relative="1" as="geometry">
            <mxPoint x="150" y="-8" as="sourcePoint" />
            <mxPoint x="900" y="-138" as="targetPoint" />
            <Array as="points">
              <mxPoint x="150" />
              <mxPoint x="150" y="-58" />
              <mxPoint x="900" y="-58" />
            </Array>
          </mxGeometry>
        </mxCell>
        <mxCell id="ZLtzulAEG12qj5SxT5-5-12" value="" style="endArrow=diamondThin;endFill=0;endSize=24;html=1;rounded=0;edgeStyle=orthogonalEdgeStyle;entryX=0;entryY=0.5;entryDx=0;entryDy=0;" edge="1" parent="1" target="yS8y4EqdHsvdQgxTJSFS-80">
          <mxGeometry width="160" relative="1" as="geometry">
            <mxPoint x="3620" y="280" as="sourcePoint" />
            <mxPoint x="3780" y="280" as="targetPoint" />
          </mxGeometry>
        </mxCell>
        <mxCell id="ZLtzulAEG12qj5SxT5-5-15" value="" style="endArrow=diamondThin;endFill=0;endSize=24;html=1;rounded=0;edgeStyle=orthogonalEdgeStyle;entryX=0;entryY=0.5;entryDx=0;entryDy=0;exitX=0.75;exitY=1;exitDx=0;exitDy=0;" edge="1" parent="1" source="yS8y4EqdHsvdQgxTJSFS-9" target="yS8y4EqdHsvdQgxTJSFS-75">
          <mxGeometry width="160" relative="1" as="geometry">
            <mxPoint x="4920" y="280" as="sourcePoint" />
            <mxPoint x="5080" y="280" as="targetPoint" />
          </mxGeometry>
        </mxCell>
        <mxCell id="ZLtzulAEG12qj5SxT5-5-16" value="" style="endArrow=diamondThin;endFill=0;endSize=24;html=1;rounded=0;edgeStyle=orthogonalEdgeStyle;entryX=0;entryY=0.5;entryDx=0;entryDy=0;exitX=0.75;exitY=1;exitDx=0;exitDy=0;" edge="1" parent="1" source="yS8y4EqdHsvdQgxTJSFS-13" target="XZYUjsQZ5xRN_dGaFp_k-4">
          <mxGeometry width="160" relative="1" as="geometry">
            <mxPoint x="4810" y="360" as="sourcePoint" />
            <mxPoint x="4970" y="360" as="targetPoint" />
          </mxGeometry>
        </mxCell>
        <mxCell id="ZLtzulAEG12qj5SxT5-5-17" value="Use" style="endArrow=open;endSize=12;dashed=1;html=1;rounded=0;edgeStyle=orthogonalEdgeStyle;entryX=1;entryY=0.25;entryDx=0;entryDy=0;exitX=0;exitY=0.5;exitDx=0;exitDy=0;" edge="1" parent="1" source="Vg_vFvyBdRH64RmHOJFF-39" target="3ZD-ds__CDtL9bY-RWLM-16">
          <mxGeometry width="160" relative="1" as="geometry">
            <mxPoint x="2340" y="340" as="sourcePoint" />
            <mxPoint x="2280" y="300" as="targetPoint" />
          </mxGeometry>
        </mxCell>
        <mxCell id="ZLtzulAEG12qj5SxT5-5-20" value="" style="endArrow=open;endFill=1;endSize=12;html=1;rounded=0;edgeStyle=orthogonalEdgeStyle;entryX=0.513;entryY=1.049;entryDx=0;entryDy=0;entryPerimeter=0;exitX=1;exitY=0.5;exitDx=0;exitDy=0;" edge="1" parent="1" source="Vg_vFvyBdRH64RmHOJFF-30" target="4URgF8J09XDzKeIFWTpl-11">
          <mxGeometry width="160" relative="1" as="geometry">
            <mxPoint x="4890" y="680" as="sourcePoint" />
            <mxPoint x="5760" y="1050" as="targetPoint" />
            <Array as="points">
              <mxPoint x="3960" y="849" />
              <mxPoint x="3960" y="1310" />
              <mxPoint x="5839" y="1310" />
            </Array>
          </mxGeometry>
        </mxCell>
        <mxCell id="ZLtzulAEG12qj5SxT5-5-21" value="" style="endArrow=open;endFill=1;endSize=12;html=1;rounded=0;edgeStyle=orthogonalEdgeStyle;entryX=0.513;entryY=1.137;entryDx=0;entryDy=0;entryPerimeter=0;" edge="1" parent="1" target="4URgF8J09XDzKeIFWTpl-11">
          <mxGeometry width="160" relative="1" as="geometry">
            <mxPoint x="3690" y="960" as="sourcePoint" />
            <mxPoint x="3850" y="960" as="targetPoint" />
            <Array as="points">
              <mxPoint x="3800" y="960" />
              <mxPoint x="3800" y="1310" />
              <mxPoint x="5839" y="1310" />
            </Array>
          </mxGeometry>
        </mxCell>
        <mxCell id="ZLtzulAEG12qj5SxT5-5-22" value="" style="endArrow=open;endFill=1;endSize=12;html=1;rounded=0;edgeStyle=orthogonalEdgeStyle;entryX=0.487;entryY=1.005;entryDx=0;entryDy=0;entryPerimeter=0;exitX=1;exitY=0.5;exitDx=0;exitDy=0;" edge="1" parent="1" source="Vg_vFvyBdRH64RmHOJFF-28" target="4URgF8J09XDzKeIFWTpl-17">
          <mxGeometry width="160" relative="1" as="geometry">
            <mxPoint x="3090" y="850" as="sourcePoint" />
            <mxPoint x="4453.428431919643" y="1120" as="targetPoint" />
            <Array as="points">
              <mxPoint x="3400" y="850" />
              <mxPoint x="3400" y="1230" />
              <mxPoint x="5201" y="1230" />
            </Array>
          </mxGeometry>
        </mxCell>
        <mxCell id="ZLtzulAEG12qj5SxT5-5-26" value="Use" style="endArrow=open;endSize=12;dashed=1;html=1;rounded=0;edgeStyle=orthogonalEdgeStyle;entryX=0.999;entryY=0.053;entryDx=0;entryDy=0;entryPerimeter=0;exitX=0;exitY=0.5;exitDx=0;exitDy=0;" edge="1" parent="1" source="QKs4qBYW7GnzKIks0Z7w-53" target="m8PIFnoMGad8uP0K9j40-2">
          <mxGeometry width="160" relative="1" as="geometry">
            <mxPoint x="3500" y="620" as="sourcePoint" />
            <mxPoint x="3660" y="620" as="targetPoint" />
            <Array as="points">
              <mxPoint x="6200" y="743" />
              <mxPoint x="6200" y="620" />
              <mxPoint x="4880" y="620" />
              <mxPoint x="4880" y="514" />
            </Array>
          </mxGeometry>
        </mxCell>
        <mxCell id="ZLtzulAEG12qj5SxT5-5-29" value="" style="endArrow=block;endSize=16;endFill=0;html=1;entryX=1;entryY=0.025;entryDx=0;entryDy=0;entryPerimeter=0;" edge="1" parent="1" target="B37MmopoNUqpj75_Dg1A-76">
          <mxGeometry x="0.1467" y="100" width="160" relative="1" as="geometry">
            <mxPoint x="2340" y="1590" as="sourcePoint" />
            <mxPoint x="2850" y="1160.75" as="targetPoint" />
            <Array as="points">
              <mxPoint x="2340" y="1690" />
              <mxPoint x="3120" y="1690" />
              <mxPoint x="3120" y="1161" />
            </Array>
            <mxPoint as="offset" />
          </mxGeometry>
        </mxCell>
        <mxCell id="ZLtzulAEG12qj5SxT5-5-32" value="Use" style="endArrow=open;endSize=12;dashed=1;html=1;rounded=0;edgeStyle=orthogonalEdgeStyle;entryX=-0.002;entryY=0.092;entryDx=0;entryDy=0;entryPerimeter=0;" edge="1" parent="1" target="xpTjOEdWHdF4yTKwdctW-25">
          <mxGeometry width="160" relative="1" as="geometry">
            <mxPoint x="1450" y="700" as="sourcePoint" />
            <mxPoint x="1610" y="700" as="targetPoint" />
            <Array as="points">
              <mxPoint x="2240" y="700" />
              <mxPoint x="2240" y="91" />
            </Array>
          </mxGeometry>
        </mxCell>
        <mxCell id="ZLtzulAEG12qj5SxT5-5-39" value="" style="endArrow=diamondThin;endFill=0;endSize=24;html=1;rounded=0;edgeStyle=orthogonalEdgeStyle;entryX=0.551;entryY=0.005;entryDx=0;entryDy=0;entryPerimeter=0;" edge="1" parent="1" target="ZvxXPG6ARuYnSKrhNRSG-15">
          <mxGeometry width="160" relative="1" as="geometry">
            <mxPoint x="2680" y="940" as="sourcePoint" />
            <mxPoint x="2840" y="940" as="targetPoint" />
          </mxGeometry>
        </mxCell>
        <mxCell id="ZLtzulAEG12qj5SxT5-5-44" value="Use" style="endArrow=open;endSize=12;dashed=1;html=1;rounded=0;edgeStyle=orthogonalEdgeStyle;exitX=0;exitY=0.5;exitDx=0;exitDy=0;entryX=1;entryY=0.5;entryDx=0;entryDy=0;" edge="1" parent="1" source="3ZD-ds__CDtL9bY-RWLM-29" target="UL4YKMBXZopJeCdpC2au-59">
          <mxGeometry width="160" relative="1" as="geometry">
            <mxPoint x="5940" y="-150" as="sourcePoint" />
            <mxPoint x="1390" y="70" as="targetPoint" />
            <Array as="points">
              <mxPoint x="6230" y="-207" />
              <mxPoint x="6230" y="-290" />
              <mxPoint x="1700" y="-290" />
              <mxPoint x="1700" y="84" />
            </Array>
          </mxGeometry>
        </mxCell>
        <mxCell id="ZLtzulAEG12qj5SxT5-5-45" value="Use" style="endArrow=open;endSize=12;dashed=1;html=1;rounded=0;edgeStyle=orthogonalEdgeStyle;entryX=0.846;entryY=0;entryDx=0;entryDy=0;entryPerimeter=0;exitX=0;exitY=0.5;exitDx=0;exitDy=0;" edge="1" parent="1" source="j_Ctqi_ZfGnduSrjhimz-42" target="xpTjOEdWHdF4yTKwdctW-25">
          <mxGeometry width="160" relative="1" as="geometry">
            <mxPoint x="6260" y="-180" as="sourcePoint" />
            <mxPoint x="5670" y="-210" as="targetPoint" />
            <Array as="points">
              <mxPoint x="6130" y="-180" />
              <mxPoint x="6130" y="-290" />
              <mxPoint x="2480" y="-290" />
            </Array>
          </mxGeometry>
        </mxCell>
        <mxCell id="ZLtzulAEG12qj5SxT5-5-46" value="Use" style="endArrow=open;endSize=12;dashed=1;html=1;rounded=0;edgeStyle=orthogonalEdgeStyle;entryX=1;entryY=0.5;entryDx=0;entryDy=0;" edge="1" parent="1" target="UL4YKMBXZopJeCdpC2au-59">
          <mxGeometry width="160" relative="1" as="geometry">
            <mxPoint x="2990" y="310" as="sourcePoint" />
            <mxPoint x="3150" y="310" as="targetPoint" />
            <Array as="points">
              <mxPoint x="3020" y="310" />
              <mxPoint x="3020" y="240" />
              <mxPoint x="2130" y="240" />
              <mxPoint x="2130" y="84" />
            </Array>
          </mxGeometry>
        </mxCell>
        <mxCell id="ZLtzulAEG12qj5SxT5-5-47" value="Use" style="endArrow=open;endSize=12;dashed=1;html=1;rounded=0;edgeStyle=orthogonalEdgeStyle;entryX=1;entryY=0.5;entryDx=0;entryDy=0;exitX=1;exitY=0.5;exitDx=0;exitDy=0;" edge="1" parent="1" source="m8PIFnoMGad8uP0K9j40-81" target="UL4YKMBXZopJeCdpC2au-59">
          <mxGeometry width="160" relative="1" as="geometry">
            <mxPoint x="3370" y="310" as="sourcePoint" />
            <mxPoint x="3530" y="310" as="targetPoint" />
            <Array as="points">
              <mxPoint x="3410" y="310" />
              <mxPoint x="3440" y="310" />
              <mxPoint x="3440" y="240" />
              <mxPoint x="2130" y="240" />
              <mxPoint x="2130" y="84" />
            </Array>
          </mxGeometry>
        </mxCell>
        <mxCell id="ZLtzulAEG12qj5SxT5-5-49" value="Use" style="endArrow=open;endSize=12;dashed=1;html=1;rounded=0;edgeStyle=orthogonalEdgeStyle;entryX=0.25;entryY=0;entryDx=0;entryDy=0;exitX=1;exitY=1;exitDx=0;exitDy=0;" edge="1" parent="1" source="3ZD-ds__CDtL9bY-RWLM-16" target="UL4YKMBXZopJeCdpC2au-89">
          <mxGeometry width="160" relative="1" as="geometry">
            <mxPoint x="1710" y="450" as="sourcePoint" />
            <mxPoint x="1870" y="450" as="targetPoint" />
            <Array as="points">
              <mxPoint x="2110" y="470" />
              <mxPoint x="2110" y="780" />
              <mxPoint x="1928" y="780" />
            </Array>
          </mxGeometry>
        </mxCell>
      </root>
    </mxGraphModel>
  </diagram>
</mxfile>
